<?xml version="1.0" encoding="utf-8"?>
<!-- Generator: Adobe Illustrator 25.4.1, SVG Export Plug-In . SVG Version: 6.00 Build 0)  -->
<svg version="1.1" id="Layer_1" xmlns="http://www.w3.org/2000/svg" xmlns:xlink="http://www.w3.org/1999/xlink" x="0px" y="0px"
	 viewBox="0 0 384 384" style="enable-background:new 0 0 384 384;" xml:space="preserve">
<path d="M31.5,9.5C32,9.2,34.9,9,40.1,9c4.1,0,6.5,0.1,7.3,0.2c0.8,0.1,1.2,0.5,1.2,1.2c0,1.2-1.1,1.9-3.4,2.1
	c-1.3,0.2-2.3,0.5-2.9,0.9c-0.6,0.4-1.2,1.3-1.9,2.6c-1,1.9-2.8,6-5.3,12.1c-2.6,6.1-3.8,9.3-3.8,9.6c0,0.2,2.3,0.3,6.9,0.3
	c4.5,0,6.9,0.1,7.1,0.4c0.2,0.2,0.8,1.8,2,4.6c1.7,4.1,3,6.9,4,8.4c1,1.4,2.1,2.3,3.3,2.5c1.7,0.3,2.6,0.9,2.6,1.6
	c0,0.3-0.2,0.8-0.7,1.3c-0.3,0.4-0.9,0.6-1.7,0.7c-0.8,0.1-3.4,0.1-7.8,0.1c-4.4,0-7,0-7.8-0.1c-0.8-0.1-1.3-0.3-1.5-0.6
	c-0.3-0.5-0.5-0.9-0.5-1.4c0-1,0.7-1.4,2.1-1.4c0.6,0,1.1-0.2,1.7-0.6c0.4-0.3,0.6-0.8,0.6-1.3c0-1-0.6-2.9-1.8-5.7L38,42.7
	l-8.1-0.1l-8.1-0.1l-1.8,4c-1.1,2.6-1.8,4.2-2,5c0,0.1-0.1,0.3-0.1,0.5c0,1,0.9,1.7,2.7,1.9c1.8,0.2,2.7,0.8,2.7,1.7
	c0,0.4-0.2,0.8-0.7,1.3c-0.3,0.3-0.8,0.5-1.6,0.5s-2.8,0.1-6.1,0.1c-3.8,0-6.1-0.1-6.9-0.2C7.3,57.1,7,56.6,7,55.7
	c0-0.5,0.1-0.9,0.4-1.2c0.3-0.2,0.8-0.5,1.5-0.6c0.7-0.1,1.2-0.4,1.7-0.7c1-0.7,2.6-3.7,4.8-8.7c1.5-3.4,2.3-5.3,2.5-5.7
	c0.2-0.3,0.5-0.5,1-0.6c0.5-0.1,1.8-0.1,4-0.1c3.1,0,4.6-0.1,4.6-0.4c0-0.6-2.4-6.4-7.1-17.5c-1.3-3-2.3-4.9-3-5.7
	c-0.7-0.8-1.9-1.4-3.7-1.6c-2-0.4-3-1-3-1.8c0-0.4,0.2-0.7,0.6-1.1c0.2-0.2,0.7-0.4,1.5-0.5c0.7-0.1,2.5-0.1,5.3-0.1
	c2.8,0,4.6,0,5.4,0.1c0.8,0.1,1.2,0.2,1.5,0.5c0.3,0.4,1.4,2.8,3.2,7.1c1.8,4.3,2.9,6.4,3.1,6.4s0.8-1,1.6-2.9
	c0.8-1.9,1.5-3.5,1.8-4.9c0.2-0.9,0.4-1.4,0.4-1.7c0-0.2-0.2-0.5-0.6-0.8c-0.5-0.4-1.2-0.6-2.1-0.6c-1,0-1.6-0.1-1.8-0.4
	c-0.2-0.2-0.2-0.4-0.2-0.7C30.3,10.5,30.7,9.9,31.5,9.5z M39.9,73.2c0.7-0.2,1.5-0.4,2.2-0.4c2.1,0,3.6,1,4.5,2.9
	c0.3,0.6,0.4,1.2,0.4,1.7c0,0.7-0.4,1.4-1.2,2.4c-0.9,1.1-2.3,1.7-4,1.7c-0.5,0-1-0.1-1.4-0.2C39.6,81.1,39,81,38.6,81
	c-0.7,0-1.5,0.3-2.2,0.9c-0.5,0.4-0.7,0.7-0.8,0.9c-0.1,0.2-0.2,0.7-0.2,1.4v1.4c0,3.4,0.6,5.8,1.7,7.3l0.7,0.9H45h1.8
	c1.7,0,2.9,0,3.6,0c0.7,0,1.3,0.1,1.8,0.4c0.5,0.3,0.9,0.5,1,0.7c0.1,0.2,0.3,0.7,0.7,1.6c0.5,1.2,0.7,2.7,0.7,4.4
	c0,3.8-0.8,6.9-2.4,9.3c-3.4,5.1-8.1,8.5-14.1,10.2c-1.9,0.5-4.9,0.7-9.1,0.7h-6.4l-4.1-1.4c-2.4-0.8-3.8-1.2-4.2-1.2h-0.1
	c-0.1,0.1-0.3,0.6-0.6,1.4c-0.2,0.5-0.3,0.9-0.5,1c-0.1,0.1-0.5,0.2-1.1,0.3c-0.8,0.1-1.3,0-1.6-0.2c-0.2-0.2-0.5-2.3-0.8-6.1
	c-0.3-3.9-0.5-6.7-0.5-8.6c0-0.6,0-1,0.1-1.1c0.3-0.6,0.8-0.9,1.5-0.9c0.4,0,0.7,0.1,1.1,0.4c0.4,0.3,0.6,0.6,0.6,0.9
	c0,0.3,0.4,1.3,1.2,2.9c2.7,5.3,7,8,12.8,8c2.3,0,4.6-0.4,7.1-1.2c2.1-0.7,4-1.8,5.7-3.4c1.7-1.6,2.9-3.4,3.7-5.4
	c0.8-2.2,1.2-4.3,1.2-6.3c0-0.4,0-0.6-0.1-0.8l-0.2-1.1l-4.1,0.1c-6,0-9.3,0.4-10.1,1.2c-0.8,0.7-1.5,2.3-2.1,4.8
	c-0.2,0.7-0.3,1.1-0.5,1.2c-0.1,0.1-0.5,0.2-1.1,0.2c-0.8,0-1.3-0.2-1.5-0.5c-0.2-0.3-0.4-1.1-0.4-2.3c0-0.3,0-1.5,0.1-3.5
	c0.2-3.4,0.4-5.3,0.6-5.6c0.2-0.2,1.2-0.4,2.9-0.4c1.7,0,2.5-0.1,2.5-0.2l-0.5-2c-0.4-1.4-0.6-2.8-0.6-4.2c0-3.3,0.8-6,2.3-8.1
	c0.8-1.2,2-2.3,3.6-3.5C36.9,74.5,38.4,73.7,39.9,73.2z M72.9,72.7c0.4-0.2,2.6-0.3,6.4-0.3h1.7c2.3,0,3.7,0.1,4.3,0.3
	c0.5,0.2,0.8,0.8,0.8,1.6c0,0.5-0.2,0.9-0.6,1.1c-0.4,0.2-1.4,0.5-2.9,0.7c-1.6,0.2-2.7,0.6-3.4,1.1c-0.7,0.5-1.3,1.2-1.9,2.4
	l-0.9,1.9l-1.7,0.1h-0.5c-0.8,0-1.4-0.1-1.9-0.2c-0.4-0.2-0.6-0.9-0.6-2c0-0.2,0.1-1.5,0.2-3.8C72.2,73.8,72.5,72.9,72.9,72.7z
	 M96.2,88.8c10.9-1.2,17.8-1.8,20.8-2h0.2c1.9,0,2.8,0.6,2.8,1.7c0,0.5-2.1,4.4-6.3,11.8c-4.2,7.4-6.9,12.8-8.3,16.3
	c-1.4,3.4-2.3,5.3-2.7,5.7c-0.3,0.2-0.9,0.4-1.7,0.5c-0.8,0.1-2.8,0.1-5.9,0.1c-3.3,0-5.4-0.1-6.2-0.2c-0.8-0.1-1.3-0.4-1.3-0.9
	c0-0.2,0-0.5,0.1-0.6c0.1-0.7,0.4-1.1,0.9-1.4c0.5-0.3,1.3-0.5,2.6-0.7c2.4-0.4,4.4-1.1,5.9-2c1.5-0.9,2.7-2.2,3.8-3.9
	c1.1-1.9,2.9-5,5.3-9.5c2.4-4.4,3.7-6.8,3.7-7c-0.2-0.2-0.4-0.3-0.6-0.4c-0.9,0-7,0.6-18.3,1.8c-10.4,1.1-16.3,1.7-17.9,1.7
	c-0.1,0-0.2,0-0.2-0.1h-0.1c-0.4-0.2-0.6-0.5-0.6-0.7c0-0.3,0.6-1.5,1.8-3.6c1.2-2.1,2-3.4,2.4-3.8c0.3-0.3,1.5-0.6,3.5-0.9
	C81.9,90.3,87.4,89.7,96.2,88.8z M142.4,89.5c0.4-0.4,0.8-0.6,1.4-0.6c0.4,0,0.7,0.1,0.9,0.3c0.2,0.2,0.6,0.8,1.1,1.6
	c1.2,2.2,6.5,7.7,15.9,16.4l6.5,6l5.7-0.1c2.9-0.1,4.5-0.2,5.1-0.2c0.5-0.1,1-0.3,1.4-0.7c0.5-0.5,0.9-1.5,1.1-2.8
	c0.2-1.3,0.4-2.1,0.6-2.4c0.3-0.3,0.7-0.5,1.1-0.5c0.5,0,1,0.2,1.5,0.7c0.3,0.3,0.5,0.8,0.5,1.4c0.1,0.7,0.1,2.5,0.1,5.5
	c0,3,0,4.8-0.1,5.4c-0.1,0.6-0.3,1-0.6,1.2c-0.3,0.2-1.9,0.3-4.7,0.4s-9.5,0.1-20.1,0.1h-24l-0.5-0.7c-0.4-0.5-0.6-2.7-0.6-6.6
	c0-4,0.2-6.2,0.6-6.7c0.3-0.5,0.8-0.7,1.5-0.7c0.5,0,0.9,0.2,1.2,0.5c0.2,0.3,0.5,1.1,0.6,2.4c0.2,1.4,0.5,2.3,1,2.7
	c0.5,0.4,1.6,0.7,3.2,0.9c1.9,0.2,5,0.2,9.4,0.2h2.4c2.9,0,4.4-0.1,4.4-0.4c0-0.3-1.4-1.9-4.1-4.6c-2.7-2.8-4.7-4.6-5.9-5.4
	c-1.3-1-2.1-1.4-2.6-1.4c-0.6,0-1,0.7-1.2,2.2c-0.1,0.5-0.4,1-1,1.4c-0.4,0.3-0.7,0.4-0.8,0.4s-0.5-0.1-0.8-0.4l-0.8-0.5v-7.3
	c0-3.2,0-5.2,0.1-6.1C142,90.3,142.1,89.8,142.4,89.5z M135.1,73.6c0.2-0.3,1.3-0.5,3.5-0.5c2.1-0.1,9.2-0.1,21.3-0.1
	c16.3,0,24.5,0.1,24.7,0.4c0.3,0.3,0.4,2,0.4,5.3v3c0,2-0.1,3.2-0.2,3.8c-0.1,0.5-0.2,1-0.5,1.2c-0.5,0.5-0.8,0.7-1.1,0.7
	c-0.5,0-0.9-0.3-1.2-0.8c-0.4-0.5-0.6-1.1-0.6-1.8c0-0.9-0.1-1.7-0.3-2.3c-0.3-0.9-1-1.5-2.2-1.6c-1.2-0.2-4.3-0.3-9.3-0.3
	c-6,0-9,0.1-9,0.3c0,0.2,1.7,2.1,5.2,5.5c3.5,3.5,5.5,5.3,6,5.7c0.7,0.4,1.3,0.6,1.7,0.6c0.3,0,0.6-0.2,0.8-0.7
	c0.2-0.5,0.4-1,0.4-1.6c0-0.5,0.2-0.9,0.5-1.2c0.3-0.3,0.7-0.5,1.2-0.5c0.6,0,1,0.2,1.3,0.7c0.4,0.5,0.6,3.4,0.6,8.6
	c0,3.6,0,5.9-0.1,6.8c-0.1,0.9-0.2,1.4-0.5,1.7c-0.4,0.4-0.9,0.5-1.7,0.4c-0.5-0.1-0.8-0.2-1-0.3c-0.1-0.1-0.3-0.6-0.5-1.3
	c-0.2-1.1-0.7-2.2-1.4-3.2c-0.7-1.1-4.4-4.9-11-11.4l-9.9-9.9h-5.8c-2.6,0-4.3,0-5,0.1c-0.7,0.1-1.2,0.3-1.6,0.6
	c-1,0.8-1.6,2.1-1.6,4c0,0.6-0.1,1.1-0.4,1.5c-0.3,0.4-0.7,0.6-1.1,0.6c-0.5,0-0.9-0.2-1.3-0.6c-0.3-0.3-0.5-0.7-0.5-1.4
	s-0.1-2.4-0.1-5.2C134.8,76.2,134.9,74,135.1,73.6z M199.8,93.3c0.1,0,0.8-0.1,2.1-0.1c6,0,9.3,0.1,10,0.4c0.2,0,0.4,0.5,0.4,1.4
	c0,0.8-0.3,1.4-0.8,1.7c-1,0.5-1.4,1-1.4,1.7c0,0.4,0.3,1.2,0.8,2.6c0.5,1.2,1,2.7,1.4,4.4c0.4,1.7,0.6,3,0.6,3.9v0.4
	c0,0.4-0.1,0.7-0.3,0.7c-0.2,0.1-0.6,0.1-1.4,0.1h-0.5c-0.6,0-0.9-0.1-1.1-0.4c-0.1-0.3-0.4-1.2-0.7-2.6c0-0.1,0-0.2,0-0.2
	c0,0,0-0.1-0.1-0.2c0-0.1,0-0.2,0-0.3c-0.5-2.7-1.7-4.9-3.3-6.6c-1.3-1.3-3.1-2.3-5.3-3c-1-0.3-1.6-0.6-1.8-0.8
	c-0.3-0.2-0.4-0.6-0.4-1.1c0-0.4,0.2-0.8,0.6-1.2C198.8,93.6,199.2,93.4,199.8,93.3z M220,73c0.2-0.2,2.5-0.4,6.9-0.4
	c3.1,0,5,0,5.8,0.1c0.8,0,1.3,0.2,1.6,0.4c0.4,0.4,0.6,0.8,0.6,1.2c0,0.5-0.3,0.9-0.8,1.3c-0.5,0.4-1.2,0.5-2,0.5
	c-1.8,0-2.9,0.6-3.3,1.7c-0.2,0.7-0.3,6.8-0.3,18.3c0,12.7,0.1,19.3,0.4,19.7c0.2,0.4,0.7,0.8,1.4,1.1c0.7,0.3,1.5,0.4,2.3,0.4
	c0.7,0,1.3,0.2,1.7,0.5c0.4,0.3,0.6,0.7,0.6,1.2c0,0.5-0.2,0.9-0.6,1.3c-0.2,0.3-0.9,0.5-1.8,0.5c-1,0-3.7,0.1-8.3,0.1
	c-4.3,0-7,0-8.1-0.1c-1.1-0.1-1.8-0.2-2.1-0.5c-0.4-0.3-0.6-0.7-0.6-1.2c0-0.3,0.1-0.7,0.3-1.1c0.2-0.4,0.9-0.6,2-0.6
	c2.3,0,3.6-0.8,3.9-2.4c0.1-0.7,0.1-5,0.1-13v-8.4v-7.9C219.8,77.5,219.9,73.2,220,73z M239.8,93.3c4-0.1,6.5-0.2,7.6-0.2
	c0.4,0,0.7,0,0.9,0c0.2,0,0.4,0,0.6,0c0.1,0,0.3,0,0.4,0.1c0.1,0.1,0.2,0.1,0.2,0.1c0,0,0.1,0.1,0.1,0.2s0.1,0.2,0.2,0.2
	c0.2,0.5,0.4,0.8,0.4,1.1c0,0.7-0.8,1.3-2.3,1.9c-2.9,1.1-5.1,2.7-6.6,4.9c-0.6,0.9-1.1,2-1.6,3.3c-0.5,1.3-0.7,2.4-0.7,3.2
	c0,0.7-0.2,1.3-0.6,1.8s-0.9,0.7-1.5,0.7c-1.2,0-1.8-0.6-1.8-1.7c0-0.8,0.2-2.1,0.7-3.9c0.5-1.8,1-3.3,1.5-4.5
	c0.5-1.3,0.8-2.1,0.8-2.3c0-0.2-0.1-0.4-0.4-0.7c-0.2-0.3-0.7-0.6-1.3-0.9c-0.5-0.2-0.7-0.8-0.7-1.7v-1.4L239.8,93.3z M279.1,72.6
	c0.4-0.2,5.9-0.3,16.4-0.3h16.1L312,73c0.4,0.6,1.1,2.7,2.1,6.2c1.1,3.5,1.6,5.7,1.6,6.4c0,1.3-0.4,2-1.3,2h-0.3
	c-0.5,0-1.2-0.9-2-2.7c-0.9-1.7-1.6-3-2.3-3.8c-0.6-0.8-1.4-1.5-2.3-2c-1-0.6-2-1-2.9-1.1c-1-0.1-2.7-0.2-5.2-0.3
	c-2,0-3.2,0-3.7,0.1c-0.5,0.1-0.9,0.3-1.1,0.6c-0.4,0.5-0.6,3.4-0.6,8.7v2c0,0.8,0,1.5,0,2c0,0.5,0,1.1,0.1,1.7s0.1,1,0.1,1.3
	c0,0.2,0.1,0.6,0.2,1.2c0.1,0.6,0.2,1,0.2,1.1c0,0.2,0.2,0.6,0.3,1.4c0.2,0.7,0.3,1.3,0.4,1.5c0.1,0.3,0.3,0.9,0.6,2
	s0.6,1.9,0.7,2.4l1.1,3.4l-0.9,0.8c-0.6,0.5-1.1,0.8-1.4,0.7c-0.4-0.1-1.1-1-1.9-2.9c-1.6-3.2-3.3-5.2-5.1-6.1
	c-1.5-0.8-4.4-1.2-8.7-1.2c-2.9,0-4.5,0.2-4.9,0.7c-0.5,0.7-0.8,3-0.8,6.8c0,1.4,0,2.6,0.1,3.4c0.1,3,0.2,4.9,0.5,5.7
	c0.2,0.8,0.8,1.4,1.8,1.8c0.7,0.3,1.6,0.4,2.7,0.4c0.9,0,1.6,0.2,2.2,0.5c0.5,0.4,0.8,0.8,0.8,1.3s-0.2,1-0.7,1.4
	c-0.3,0.3-0.9,0.5-1.9,0.5s-4,0.1-8.9,0.1h-10.2v-3.8h1.4c0.9,0,1.7-0.2,2.3-0.7l0.9-0.7v-8.7c0-4.1,0-6.6-0.1-7.5
	c-0.1-0.9-0.3-1.5-0.6-1.8c-0.4-0.5-1.2-0.7-2.3-0.9l-1.6-0.1v-3.4h25.2v-4.7c0-6.5-0.3-10.3-1-11.5c-0.2-0.4-0.6-0.7-1.4-1
	c-0.8-0.3-1.5-0.5-2.2-0.5c-0.7,0-1.2-0.2-1.6-0.5c-0.4-0.3-0.7-0.7-0.7-1.2c0-0.2,0-0.4,0.1-0.4C278.6,73.2,278.8,72.8,279.1,72.6z
	 M345.2,73.5c0.2-0.3,1.1-0.5,2.6-0.5c1.5,0,6-0.1,13.6-0.1h15.7l0.2,1c0,0.1,0.1,2,0.3,5.6c0,0.7,0.1,1.5,0.1,2.5
	c0,1.1-0.1,1.9-0.2,2.2c-0.2,0.4-0.5,0.5-1.1,0.5c0,0-0.1,0-0.3,0c-0.2,0-0.3,0-0.4,0l-1.2-0.1l-0.6-2.4c-0.2-0.6-0.3-1.1-0.5-1.5
	c-0.1-0.4-0.3-0.8-0.6-1.1c-0.2-0.3-0.4-0.6-0.6-0.8c-0.1-0.2-0.4-0.4-0.9-0.6c-0.4-0.2-0.7-0.3-0.9-0.4c-0.2-0.1-0.6-0.1-1.3-0.2
	c-0.7,0-1.1-0.1-1.4-0.1c-0.2,0-0.8,0-1.7-0.1c-0.9,0-1.6,0-1.9,0h-4.6v13.5v2.3c0,6.1-0.1,9.7-0.2,10.8c-0.2,1.1-0.7,1.6-1.7,1.6
	h-0.2c-0.5,0-0.8-0.1-1-0.3c-0.1-0.2-0.3-0.9-0.5-2c-0.2-1.5-0.6-2.6-1.2-3.2l-0.8-0.9l-6.3,0.1l-6.3,0.1l-0.1,8.2v3.7
	c0,3.1,0.1,4.7,0.4,5c0.2,0.2,2.6,0.4,7,0.4c4.3,0,6.9-0.1,7.8-0.4c2.3-0.7,4.5-2.9,6.6-6.8c0.3-0.6,0.6-1,0.8-1.2
	c0.2-0.2,0.5-0.3,0.8-0.3h0.4c0.6,0,1,0.1,1.2,0.3c0.2,0.1,0.4,0.4,0.4,0.9c0,0.7-0.6,2.7-1.8,6.1l-2.1,6h-17.7c-8,0-13,0-14.9-0.1
	s-3.1-0.2-3.4-0.5c-0.4-0.4-0.6-0.8-0.6-1.2c0-0.5,0.2-0.9,0.7-1.2c0.5-0.3,1.1-0.5,1.9-0.5c2.1,0,3.3-0.5,3.6-1.6
	c0.1-0.4,0.2-4.1,0.2-11.2c0-5,0-8,0.1-9c0-1.1,0.2-1.7,0.5-2c0.4-0.3,3.5-0.5,9.2-0.6l8.6-0.1v-7.5c0-5.1-0.1-7.8-0.4-8.2
	c-0.2-0.4-0.7-0.7-1.5-1c-0.8-0.3-1.6-0.4-2.4-0.4c-0.7,0-1.2-0.1-1.6-0.4c-0.4-0.3-0.6-0.6-0.6-1.1
	C344.7,74.3,344.9,73.9,345.2,73.5z M7.6,137.3c0.2-0.2,3.6-0.4,10.2-0.4c5.4,0,8.5,0.1,9.5,0.2c0.9,0.1,1.4,0.7,1.4,1.5
	c0,0.5-0.2,0.8-0.5,1c-0.3,0.2-1.1,0.3-2.2,0.5c-1.3,0.2-2.2,0.5-2.7,1.1l-0.9,0.8v14.5c0,9.4,0.2,15,0.6,16.7c0.7,3,2.1,5,4.1,6
	c0.8,0.4,1.5,0.7,2.2,0.7c0.6,0.1,2,0.1,4.3,0.1c2.3,0,3.7,0,4.4-0.1c0.6-0.1,1.4-0.4,2.4-0.8c1.8-0.8,3.2-2,4.2-3.7
	c1-1.6,1.5-3.4,1.4-5.4v-1.4l-0.9,2.2c-0.6,1.5-1.1,2.5-1.5,2.9c-0.4,0.4-1.1,0.6-2.3,0.6c-0.1,0-0.4,0-0.7,0c-0.4,0-0.7,0-0.9,0
	c-2.3,0-3.5-0.2-3.7-0.6v-0.1c0,0-0.1-0.1-0.1-0.1c0-0.8,2-6.3,6.1-16.6c1-2.4,1.5-4.1,1.6-4.8c0-0.2,0.1-0.4,0.1-0.7
	c0-0.4-0.1-0.7-0.3-1c-0.2-0.2-0.8-0.7-1.6-1.3c-0.5-0.4-0.6-0.9-0.4-1.5c0.2-0.8,0.7-1.2,1.2-1.2c0.7,0,3.1,0.8,7.1,2.4
	c3,1.2,4.9,1.9,5.7,2.4c0.8,0.4,1.2,0.8,1.3,1.1c0.1,0.5-0.1,0.9-0.6,1.4c-0.4,0.4-0.8,0.6-1.3,0.6c-0.3,0-0.6,0-0.9-0.1
	c-0.1,0-0.3,0-0.4,0c-0.2,0-0.3,0-0.3,0c-0.5,0-1,0.3-1.4,0.9c-0.8,1.2-1.3,2.3-1.4,3.4c-0.2,1.1-0.3,3.6-0.4,7.6
	c-0.1,3.4-0.2,5.7-0.2,6.7c-0.1,1-0.3,2-0.6,2.9c-1.5,4.3-4.2,7.2-7.9,8.7c-1.2,0.5-3.6,0.8-7.1,0.9c-0.3,0-0.8,0-1.4,0
	c-0.6,0-1,0-1.2,0c-3.3,0-6.2-0.6-8.8-1.7c-2.1-1-3.9-2.4-5.4-4.1c-1.5-1.7-2.4-3.7-2.9-5.8c-0.4-1.6-0.7-7.2-0.7-16.6
	c-0.1-9.5-0.3-14.6-0.8-15.3c-0.7-1-1.8-1.6-3.5-1.6c-0.9,0-1.5-0.1-1.7-0.4c-0.2-0.2-0.4-0.6-0.4-1.2C7.3,138,7.4,137.6,7.6,137.3z
	 M90.3,137.2c1.6-0.3,5.8-0.5,12.6-0.5h4.5c3.8,0,5.8,0.2,6.2,0.5c0.4,0.3,0.6,0.7,0.6,1.2c0,0.5-0.2,0.9-0.6,1.2
	c-0.3,0.3-1.1,0.5-2.4,0.6c-1.2,0.1-2.1,0.4-2.5,0.9c-0.3,0.3-0.5,0.8-0.6,1.5c-0.1,0.7-0.1,2.8-0.2,6.3v3c0,2.8,0,4.5,0.1,5.1
	c0.3,1.6,1.3,2.4,3,2.4c1,0,1.7,0.2,2.3,0.5c0.6,0.3,0.9,0.7,0.9,1.2c0,0.3-0.2,0.7-0.5,1c-0.3,0.3-2.2,0.5-5.6,0.5
	c-2.8,0-5.2,0-7.3-0.1c-6-0.1-9.7-0.2-11-0.2c-1.3-0.1-2.5-0.3-3.4-0.6c-2.6-0.8-4.6-2.2-6.1-4c-1.5-1.8-2.3-4-2.5-6.5v-0.8
	c0-3.3,1.1-6.2,3.4-8.6C83.4,139.4,86.5,137.8,90.3,137.2z M87.2,175.4c0.4-0.3,0.8-0.4,1.2-0.4c0.3,0,0.7,0.1,1.1,0.3
	c0.4,0.2,0.6,0.7,0.6,1.6c0,1,0.2,1.7,0.7,1.9c0.7,0.4,3.5,0.6,8.2,0.7h0.1c0.7,0,1.5,0,2.5,0c1,0,1.7,0,2.1,0
	c3.9,0,6.1-0.2,6.6-0.7c0.2-0.2,0.4-0.8,0.6-1.9c0.1-1,0.4-1.7,1.1-1.9c0.5-0.2,1.1-0.2,1.7,0.1l0.8,0.4v4.6c0,3-0.1,4.6-0.2,5
	c-0.2,0.2-2.7,0.3-7.8,0.3h-6.1l-13.6-0.1l-0.1-4.8v-2.1C86.7,176.7,86.9,175.7,87.2,175.4z M98.6,141.9c-0.3-0.1-1.3-0.2-2.9-0.2
	c-4.6,0-7.4,2.4-8.2,7.3c-0.1,0.4-0.1,1-0.1,1.8c0,2.9,1.1,5.1,3.3,6.6c1.2,0.8,2.6,1.2,4.2,1.2c0.4,0,1,0,1.9-0.1l2.2-0.2v-8.1
	C99.1,144.8,99,142.1,98.6,141.9z M135.5,138l0.7-0.7h9.5c4.8,0,7.6,0,8.4,0.1c0.8,0.1,1.4,0.3,1.7,0.6c0.4,0.5,0.6,1,0.6,1.5
	c0,0.4-0.1,0.7-0.4,0.9c-0.3,0.3-0.9,0.4-1.7,0.4c-2.2,0-3.6,0.6-4,1.8c-0.3,0.7-0.4,4.3-0.4,10.7c0,2.3,0,3.7,0.1,4
	c0.1,0.3,0.3,0.5,0.6,0.6c0.3,0.1,1.1,0.1,2.4,0.1c1.4,0,2.4,0.1,2.9,0.3c0.5,0.2,0.7,0.6,0.7,1.1c0,1.2-0.8,1.8-2.5,1.8
	c-1.8,0-2.9,0.6-3.5,1.7c-0.3,0.6-0.4,1.8-0.4,3.5c0,4.2,0.5,7.3,1.4,9.3c0.8,1.7,2.3,3.2,4.5,4.3c0.9,0.5,1.4,0.8,1.6,1
	c0.2,0.2,0.3,0.7,0.3,1.4c0,0.2,0,0.4,0,0.7c0,0.3,0,0.4,0,0.5c0,0.8-0.1,1.3-0.4,1.5c-0.2,0.2-0.7,0.3-1.4,0.3
	c-0.9,0-2.1-0.2-3.5-0.6c-1.4-0.4-2.6-0.9-3.4-1.4c-1.1-0.6-2.2-1.6-3.4-2.9c-1.2-1.3-2.1-2.6-2.6-3.8c-0.7-1.4-1.1-3.4-1.3-5.7
	c-0.2-2.4-0.3-7-0.3-14c0-8.3-0.1-12.8-0.3-13.6c-0.2-0.9-0.5-1.5-1-1.9c-0.5-0.4-1.3-0.6-2.4-0.7c-2-0.2-3-0.7-3-1.5
	C134.8,139,135,138.6,135.5,138z M167.8,138c0.3-0.4,0.8-0.6,1.5-0.7c0.7-0.1,3-0.1,6.8-0.1c3.8,0,6,0,6.7,0.1
	c0.7,0.1,1.3,0.3,1.6,0.6c0.5,0.4,0.7,0.8,0.7,1.2c0,0.4-0.2,0.8-0.7,1.1c-0.4,0.4-0.9,0.5-1.5,0.5c-1.8,0-3,0.5-3.7,1.6
	c-0.4,0.6-0.6,5.4-0.7,14.5c-0.1,7.4-0.2,12.2-0.5,14.4c-0.2,2.1-0.8,4.1-1.6,5.9c-0.8,1.7-2.3,3.4-4.3,5.1c-2.1,1.6-4,2.6-5.8,2.9
	c-0.2,0-0.4,0.1-0.7,0.1c-0.5,0-0.9-0.2-1.1-0.5c-0.2-0.4-0.3-1-0.3-1.9c0-0.9,0.1-1.6,0.4-2c0.3-0.4,0.9-0.8,1.9-1.2
	c2.3-1,4-2.4,5-4.2c1-1.9,1.6-4.5,1.6-7.8c0-0.2,0-0.4,0-0.8c0-0.4,0-0.6,0-0.8c0-2-0.2-3.2-0.6-3.8c-0.4-0.5-1.3-0.8-2.7-1
	c-2-0.2-3-0.8-3-1.9c0-0.6,0.2-1,0.7-1.1c0.5-0.2,1.4-0.3,2.9-0.3h2.8v-7.3c0-4.9-0.1-7.6-0.3-8.2c-0.2-0.5-0.7-0.9-1.4-1.2
	c-0.7-0.3-1.6-0.5-2.5-0.5c-1.4,0-2.2-0.4-2.2-1.3C167,139.1,167.3,138.6,167.8,138z M211.4,137.2c0.4-0.1,1-0.2,1.8-0.2
	c0.2,0,0.4,0,0.7,0c0.3,0,0.5,0,0.6,0c2.9,0.2,5.3,1.3,7.4,3.5c1.5,1.6,2.6,3.4,3.3,5.4c0.7,2,1,4.6,1,7.6c0,2.3,0.1,3.5,0.2,3.5
	h0.1c0,0,0.1,0,0.2,0c0.1,0,0.2,0,0.3,0c0.3,0,1,0,2-0.1c1.1-0.1,1.9-0.2,2.2-0.3s0.7-0.4,1.1-0.8c0.5-0.6,0.8-1.4,0.9-2.5
	c0.2-1.2,0.6-1.8,1.1-1.8c0.2,0,0.4,0.1,0.6,0.2c0.3,0.2,0.6,1.2,0.7,2.9c0.1,1.2,0.2,1.9,0.3,2.2c0.1,0.3,0.4,0.7,0.8,1
	c0.5,0.5,1.3,0.7,2.4,0.7c1.9,0,2.9,0.6,2.9,1.8c0,0.7-0.3,1.2-1,1.4c-0.7,0.2-2.2,0.3-4.5,0.3c-0.3,0-0.8,0-1.5,0
	c-0.7,0-1.3,0-1.7,0l-7.1-0.1v8.7c0,5.7,0.1,8.8,0.2,9.4c0.2,0.5,0.6,1,1.3,1.4c0.7,0.4,1.5,0.6,2.4,0.6c1.7,0,2.5,0.5,2.5,1.5
	c0,0.4-0.2,0.8-0.5,1.1c-0.2,0.3-0.9,0.5-1.9,0.5c-1,0-3.8,0.1-8.4,0.1c-4.3,0-7.1,0-8.2-0.1c-1.2-0.1-1.9-0.2-2.1-0.5
	c-0.4-0.4-0.6-0.7-0.6-1.1c0-0.9,1-1.4,2.9-1.6c1.2-0.2,2.1-0.4,2.6-0.8c0.5-0.4,0.8-1.3,1-2.7c0.1-1.4,0.2-5.1,0.2-11v-7.8
	c0-7.9-0.1-12.7-0.1-14.4c0-1.7-0.2-2.7-0.5-3c-0.3-0.4-0.5-0.6-0.7-0.6c-0.4,0-1,0.9-1.8,2.6c-1.1,2.3-2.6,3.4-4.4,3.4
	c-1.2,0-2.3-0.4-3.1-1.3c-0.8-0.9-1.2-2-1.2-3.2c0-0.4,0-0.7,0.1-0.9c0.2-1,0.8-2,1.9-3C208.9,138.2,210.1,137.5,211.4,137.2z
	 M281,142.5c0.3-0.3,2.6-0.5,6.9-0.5c3.5,0,5.7,0.1,6.5,0.3c0.8,0.2,1.3,0.7,1.3,1.5c0,0.5-0.2,0.9-0.7,1.2
	c-0.4,0.3-1.2,0.5-2.3,0.6c-1.4,0.2-2.4,0.6-2.8,1.1c-0.4,0.5-0.6,1.7-0.7,3.7l-0.1,3.2h3.5c6.3,0,11.1,1.6,14.3,4.6
	c1.7,1.7,2.8,3.6,3.4,5.7c0.6,2.2,0.9,5.5,0.9,10.1c0,3.8-0.2,5.9-0.5,6.2c-0.4,0.4-2.7,0.6-7,0.6c-4.3,0-6.7-0.2-7.1-0.6
	c-0.3-0.3-0.5-0.7-0.5-1c0-0.5,0.3-0.9,0.9-1.2c0.6-0.4,1.4-0.5,2.4-0.5c1,0,1.7-0.3,2.2-0.8c0.4-0.4,0.6-0.9,0.7-1.3
	c0.1-0.5,0.1-1.9,0.1-4.3c0-3.4-0.3-5.8-0.7-7.2c-0.7-2.2-1.6-3.7-2.8-4.4c-1.2-0.8-3.2-1.2-6-1.3l-3.8-0.1v4.3
	c0,2.9-0.1,4.4-0.4,4.6s-1.4,0.4-3.5,0.4c-2.1,0-3.1,0.1-3.1,0.2l1.7,4.6c1,2.7,1.5,4.3,1.5,4.6c0,0.1,0,0.2-0.1,0.3
	c-0.2,0.3-1.4,0.5-3.6,0.5c-2.4,0-3.8-0.2-4.1-0.6c-0.4-0.5-2.3-5-5.8-13.5c-1-2.4-1.8-4.1-2.4-5.1c-0.5-0.7-1-1-1.4-1
	c-0.3,0-0.6,0-0.9,0.1c-0.2,0-0.4,0.1-0.7,0.1c-1.2,0-1.9-0.5-1.9-1.6v-0.4c0-0.4,0.4-0.8,1.1-1.1c0.7-0.3,2.7-1.2,6.1-2.5l7-2.7
	l0.6,0.7c0.4,0.5,0.6,1,0.6,1.4c0,0.6-0.3,1-1,1.4c-0.9,0.5-1.4,1.1-1.4,1.9c0,1,0.5,2.8,1.6,5.5c0.7,1.7,1.1,2.6,1.4,2.6
	c0,0,0.1,0,0.1-0.1c0.1-0.1,0.1-1.3,0.1-3.7c0-2.6,0-4.8-0.1-6.4c0-1.9-0.1-4.1-0.1-6.5C280.7,143.9,280.8,142.7,281,142.5z
	 M346.9,156.4c3.2-2.9,5.1-4.4,5.5-4.4c0.4,0,2.2,1.6,5.5,4.7c6.4,6,10.4,9.4,12,10.2c0.7,0.3,1.1,0.4,1.2,0.4
	c0.3,0,0.5-0.2,0.6-0.6c0.1-0.4,0.1-1.2,0.1-2.4c0-1.5,0.1-2.6,0.4-3.1c0.3-0.6,0.8-0.8,1.5-0.8c0.8,0,1.2,0.4,1.4,1.2
	c0.1,0.8,0.2,3.5,0.2,7.9c0,3.8,0,6.2-0.1,7.2c-0.1,0.9-0.2,1.5-0.5,1.8c-0.4,0.4-0.9,0.5-1.7,0.4c-0.5-0.1-0.8-0.2-0.9-0.3
	c-0.2-0.1-0.3-0.5-0.5-1.2c-0.3-1.2-1.2-2.5-2.5-3.9c-1.4-1.5-3.8-3.7-7.4-6.8c-4.2-3.6-6.5-5.6-7.1-6h-0.1c-0.4,0-3.4,2.5-9.1,7.4
	c-5.7,5-9.2,8.3-10.7,9.9c-1.4,1.6-2.5,3.3-3,5.2c-0.3,1.1-0.6,1.7-0.7,1.9c-0.2,0.2-0.5,0.4-0.9,0.4c-0.5,0-1-0.2-1.4-0.6
	c-0.3-0.2-0.5-0.9-0.5-2c0-1.1-0.1-4.2-0.1-9.4v-2.1c0-4.3,0.1-7,0.2-8c0.1-1,0.5-1.5,1-1.5c0.2,0,0.5,0,0.6,0.1
	c0.5,0.1,0.7,0.2,0.8,0.4c0.1,0.2,0.2,1,0.3,2.3c0.1,1.4,0.3,2.4,0.5,2.9c0.2,0.5,0.6,0.7,1.1,0.7c0.4,0,1.4-0.7,3.1-2.1
	C337.8,164.5,341.4,161.3,346.9,156.4z M361.2,137.2c1.2,0,2.7-0.1,4.5-0.1h0.7c0.3,0.1,1.6,0.1,3.9,0.1c2.5,0,3.8,0.3,3.8,0.8
	c0,0.2-0.1,0.5-0.3,0.9c-0.5,1-1.3,1.4-2.4,1.5c-0.9,0-1.8,0.2-2.7,0.5c-0.9,0.3-1.6,0.7-2,1c-0.4,0.4-1.3,2.1-2.9,5.1l-2.2,4.4
	l-2.6,0.1h-1.1c-1.1,0-1.7-0.2-1.7-0.5c0-0.5,0.5-1.9,1.4-4c1-2.2,1.5-3.7,1.7-4.7c0-0.2,0.1-0.4,0.1-0.6c0-0.3-0.3-0.6-1-0.9
	c-0.8-0.3-1.5-0.5-2.1-0.5c-1,0-1.5-0.3-1.5-1c0-0.2,0-0.4,0.1-0.5c0.4-0.7,0.9-1.2,1.5-1.4C357.1,137.4,358.7,137.3,361.2,137.2z
	 M4.3,202.7V201h8.2c3.6,0,6,0,6.9,0.1c1,0.1,1.6,0.2,1.9,0.5c0.4,0.3,0.6,0.7,0.6,1.3c0,0.4-0.1,0.7-0.4,1
	c-0.3,0.2-0.9,0.4-1.7,0.6c-1,0.2-1.6,0.5-2,0.9c-0.3,0.4-0.5,0.8-0.6,1.4s-0.1,2.1-0.2,4.6c0,1-0.1,2.2-0.1,3.4
	c0,1,0.1,1.5,0.2,1.5l0.2-0.1c1.1-0.6,2.4-2.1,4-4.6c2.7-4.2,6.5-7.1,11.3-8.6c3.1-1,6.1-1.6,9.2-1.8c0.5,0,1.1-0.1,1.9-0.1
	c2.7,0,5.8,0.6,9.4,1.9c1.1,0.4,1.9,0.6,2.5,0.6c0.6,0,0.9-0.4,0.9-1.1c0-1,0.6-1.4,1.9-1.4c0.7,0,1.2,0.3,1.4,0.8
	c0.2,0.5,0.3,3.2,0.3,8.2v7.3l-0.9-0.1c-0.4,0-0.8-0.2-1-0.6c-0.3-0.4-0.8-1.3-1.5-2.7c-1-1.9-1.9-3.4-2.8-4.4
	c-0.9-1-2.1-1.9-3.7-2.7c-1.5-0.8-3.2-1.2-5-1.3c-0.2,0-0.4,0-0.7,0c-0.3,0-0.5,0-0.6,0c-6.3,0-10.8,2.8-13.5,8.5
	c-0.9,1.9-1.5,3.5-1.8,4.9c-0.3,1.4-0.4,3.4-0.4,6.1c0,2.7,0.2,4.8,0.5,6.2c0.3,1.5,0.9,3.2,1.9,5.2c2.1,4.3,5.2,6.9,9.3,7.8
	c0.8,0.2,1.9,0.3,3.2,0.3c2.1,0,4.1-0.3,6-0.9c1.2-0.4,1.9-0.6,2.2-0.6c0.2,0,0.4,0.1,0.6,0.4c0.3,0.3,0.4,0.8,0.4,1.6
	c0,1-0.2,1.7-0.7,2.2c-1.2,1.2-4.1,1.8-8.8,1.8c-2.1,0-3.9-0.2-5.4-0.5c-5.6-1.2-10.2-3.7-13.8-7.4c-2.9-3.1-4.9-7.2-6-12.5
	l-0.4-1.8l-3.7-0.2c-2.3-0.1-3.6-0.3-4-0.5c-0.7-0.4-1.1-1.8-1.2-4c0-0.7-0.1-1.8-0.1-3.2v-3c0-6-0.1-9.2-0.4-9.7
	c-0.5-1-1.4-1.6-2.7-1.6c-0.4,0-0.6-0.1-0.7-0.2C4.3,204,4.3,203.5,4.3,202.7z M92.1,201c0.2-0.2,2.6-0.4,7.1-0.4c3.1,0,5,0,5.8,0.1
	c0.8,0,1.3,0.2,1.6,0.4c0.4,0.3,0.6,0.7,0.6,1.2c0,0.5-0.2,0.9-0.6,1.2c-0.3,0.3-1.1,0.5-2.4,0.6c-1.2,0.1-2,0.4-2.5,0.8
	c-0.5,0.5-0.8,1.3-1,2.4c-0.2,1.2-0.2,4.9-0.2,10.9v2.3c0,8.3,0.2,12.5,0.7,12.5c0.1,0,0.2-0.4,0.4-1.1c0.2-0.7,0.8-2.3,1.9-5
	c1.1-2.7,1.7-4.2,1.9-4.5c0.2-0.2,1.1-0.3,2.7-0.3h1.8l4.2,0.1l0.1,0.8c0.1,0.6-0.1,1.1-0.7,1.7c-0.5,0.6-1.1,0.8-1.7,0.8
	c-1.4,0-2.9,2-4.7,6.1c-0.5,1.3-1.1,2.8-1.7,4.4c-0.6,1.6-1.2,3.2-1.8,4.7c-0.6,1.5-1.4,3.4-2.4,5.5l-1.3,2.8H93
	c-3.6,0-5.7-0.1-6.4-0.2c-0.7-0.1-1-0.6-1-1.3c0-1.3,0.9-2,2.7-2c1.2,0,2.1-0.2,2.6-0.7l0.9-0.7l0.1-13.1v-5.2
	c0-5.7-0.1-8.9-0.2-9.6l-0.3-1.7l-0.4,1.2c-0.2,0.8-1,2.6-2.3,5.3c-1.3,2.7-2.1,4.2-2.4,4.6c-0.3,0.4-1.7,0.6-4.1,0.6
	c-1.9,0-3-0.1-3.6-0.2c-0.5-0.2-0.8-0.6-0.8-1.2c0-0.4,0.3-0.9,0.8-1.3c0.5-0.5,1-0.7,1.5-0.7c0.5,0,1.1-0.2,1.7-0.6
	c0.6-0.4,1.1-0.9,1.4-1.5c0.5-0.9,1.3-2.7,2.5-5.3c1.2-2.6,1.8-4.1,1.9-4.5c0.1-0.4,0.8-2,2-4.9C91.1,202.9,91.8,201.3,92.1,201z
	 M153.1,200.8c0.1-0.1,0.2-0.1,0.3-0.1c0.3,0,2,0.8,5.1,2.5c5,2.8,8.5,4.6,10.2,5.6c3.6,2,5.5,3.2,5.8,3.5c0.2,0.3,0.4,0.7,0.4,1.4
	c0,0.7-0.2,1.2-0.6,1.5c-0.6,0.5-3.2,2.1-7.8,4.6c-4.9,2.7-7.5,4.2-7.8,4.5c-0.1,0.1-0.1,0.1-0.1,0.2c0,0.3,2.3,1.8,7,4.4
	c4.2,2.4,6.8,3.9,7.8,4.6c1,0.7,1.5,1.4,1.5,2s-0.2,1.1-0.6,1.6c-0.4,0.4-1.4,1-2.9,1.9c-0.7,0.4-2.1,1.2-4.3,2.5
	c-2,1.3-4.7,2.8-8,4.7c-3.3,1.8-5.2,2.8-5.5,2.8c-0.3,0-0.4-1-0.4-2.9v-1.4l0.1-4.1l3.7-2.1c5-2.9,7.6-4.4,7.6-4.8
	c0-0.1-0.5-0.4-1.5-1c-1-0.6-2-1.1-2.9-1.7c-1-0.6-1.5-0.9-1.6-0.9c-0.1-0.1-0.9-0.6-2.5-1.4l-2.3-1.3l-1.7,0.9
	c-1.5,0.8-2.5,1.4-3,1.9c-0.5,0.5-0.8,1.1-0.9,1.7c-0.2,1.2-0.4,2-0.5,2.3c-0.1,0.3-0.4,0.6-0.8,0.9c-0.4,0.2-0.6,0.4-0.8,0.4
	c-0.1,0-0.3-0.1-0.6-0.4c-0.2-0.2-0.4-0.8-0.4-1.7c0-0.9-0.1-3.4-0.2-7.4c0-1.4-0.1-3.1-0.1-5c0-2.5,0.1-3.9,0.4-4.3
	c0.2-0.3,0.5-0.4,0.7-0.4c0.5,0,0.9,0.8,1.1,2.3c0.1,0.7,0.2,1.1,0.2,1.4c0.1,0.3,0.2,0.5,0.3,0.7c0.1,0.2,0.3,0.3,0.6,0.3
	c0.4,0,0.9-0.2,1.7-0.6c6.4-3.5,11.2-6.2,14.3-8.1l0.9-0.5l-5.2-2.9c-3.5-1.9-5.6-3.1-6.1-3.5c-0.6-0.4-0.9-1.1-0.9-1.9v-0.7
	C152.9,201.8,153,201,153.1,200.8z M231.3,215c0.1-0.1,0.4-0.2,0.9-0.2c0.4,0,2.6,1.1,6.6,3.1c4,2,6,3.2,6,3.5c0,1.4-1.7,5.7-5,12.9
	c-2.4,5.3-6.1,9.2-10.9,11.7c-2.1,1.1-3.8,1.8-5.1,2.1c-1.3,0.3-3.2,0.5-5.6,0.5c-2.4,0-4.2-0.1-5.5-0.4c-1.3-0.3-3.3-1-6.2-2.2
	c-1.8-0.7-3-1.3-3.6-1.7c-0.6-0.4-0.9-0.9-0.9-1.4c0-0.2,0-0.3,0.1-0.4c0.2-0.7,0.7-1.1,1.4-1.1c0.6,0,1.7,0.3,3.2,0.9
	c3.2,1.2,5.9,1.8,8.1,1.8c0.9,0,1.6,0,2-0.1c3.4-0.5,6.3-2.1,8.6-4.7c2.5-2.7,4.9-6.9,7.1-12.6c1.3-3.3,2-5.4,2-6.3
	c0-0.7-0.2-1.2-0.5-1.6c-0.4-0.4-1-0.9-1.8-1.5c-0.6-0.4-0.9-1-0.9-1.6C231,215.4,231.1,215.1,231.3,215z M226.4,201.7
	c1.2-0.2,2.2-0.3,3.2-0.3c3.1,0,7.2,1,12.3,3c1.6,0.7,2.7,1.1,3.2,1.4c0.5,0.3,0.8,0.6,0.9,1c0.2,0.6,0.1,1.1-0.4,1.6l-0.7,0.7
	l-4.2-1.4c-1.8-0.6-3.1-1-3.8-1.2c-0.7-0.2-1.6-0.2-2.6-0.2h-1.1c-2.1,0-3.9,0.2-5.1,0.7c-3.7,1.5-6.9,4.8-9.4,9.7
	c-0.7,1.2-1.8,3.8-3.4,7.5c-1.6,3.8-2.6,6.3-3,7.5c-0.1,0.2-0.1,0.5-0.1,0.9c0,0.9,0.6,1.8,1.9,2.5c0.8,0.5,1.3,0.9,1.5,1.3
	c0,0,0.1,0.1,0.1,0.2c0,0.3-0.1,0.6-0.4,0.8c-0.3,0.2-0.5,0.4-0.8,0.4c-0.6,0-2.6-0.9-5.9-2.7c-3.3-1.8-5.1-2.9-5.3-3.4
	c-0.1-0.2-0.2-0.6-0.2-1c0-1.6,1.1-4.9,3.2-9.9c1.5-3.6,2.8-6.3,3.8-7.9c1-1.6,2.2-3.2,3.6-4.6c1.9-1.9,3.8-3.3,5.8-4.3
	C221.3,203,223.7,202.2,226.4,201.7z M269,201.4c0.4-0.5,0.8-0.7,1.1-0.7c0.2,0,0.6,0.2,1.1,0.7c0.5,0.5,0.7,0.9,0.7,1.1
	c0,0.2,0.3,0.8,0.9,2c0.5,0.9,1.3,1.7,2.4,2.5c1.1,0.8,4.5,3,10,6.5c5.8,3.7,9.4,5.9,10.6,6.6c1.2,0.7,2.2,1,2.9,1h1.2
	c1.7,0,2.8-0.2,3.3-0.6c0.6-0.4,0.9-1.3,1.1-2.7c0.1-0.8,0.2-1.4,0.3-1.7c0.1-0.3,0.4-0.5,0.7-0.7c0.4-0.2,0.7-0.3,0.9-0.3
	c0.2,0,0.4,0.2,0.7,0.5c0.3,0.3,0.5,0.9,0.6,1.7c0.1,0.8,0.1,3,0.1,6.5c0,3.4,0,5.5-0.1,6.4c-0.1,0.8-0.2,1.4-0.5,1.6
	c-0.4,0.3-0.8,0.4-1.2,0.4c-0.8,0-1.3-0.9-1.6-2.6c-0.2-1.3-0.4-2.1-0.8-2.5c-0.4-0.4-1.2-0.7-2.3-0.8l-1.8-0.2l-10,6.4
	c-6.5,4.2-10.6,6.9-12.3,8.1c-1.7,1.2-2.9,2.1-3.5,2.9c-1.3,1.4-1.9,2.8-1.9,4.1c0,0.4-0.2,0.8-0.6,1.2c-0.4,0.4-0.8,0.6-1.2,0.6
	c-0.3,0-0.6-0.2-0.9-0.5c-0.4-0.4-0.6-3.1-0.6-8.1c0-5.1,0.2-7.8,0.6-8.2c0.3-0.3,0.6-0.4,1.1-0.4c0.5,0,0.8,0.2,1.2,0.5
	c0.3,0.4,0.5,0.8,0.5,1.3c0,0.6,0.2,1.2,0.7,1.7c0.4,0.5,0.9,0.7,1.5,0.7c0.2,0,0.3,0,0.4-0.1c0.8-0.2,3.6-1.8,8.3-4.8
	c4.8-3,7.1-4.6,7.1-5c0-0.3-2.4-2-7.3-5s-7.6-4.5-8.3-4.6h-0.2c-0.5,0-1,0.2-1.3,0.7c-0.3,0.5-0.5,1.1-0.5,1.8
	c0,0.7-0.2,1.2-0.5,1.6c-0.3,0.4-0.7,0.6-1.2,0.6c-0.5,0-0.9-0.2-1.2-0.5c-0.3-0.2-0.5-0.8-0.5-1.8c0-0.9-0.1-3.6-0.1-7.9
	c0-4.5,0-7.2,0.1-8.1C268.5,202.4,268.7,201.8,269,201.4z M344.6,201c1.4-0.5,2.7-0.7,3.8-0.7c0.7,0,1.2,0,1.5,0.1
	c0.3,0.1,0.5,0.3,0.7,0.6c0.2,0.4,0.4,1,0.4,1.9c0,1.1-0.2,1.8-0.5,2.2c-0.2,0.2-1,0.4-2.5,0.6c-2.2,0.3-4,1-5.5,2.2
	c-0.7,0.5-1.1,0.9-1.1,1.2c0,0.1,0.1,0.1,0.2,0.1c0,0,0.1,0,0.3-0.1l0.1-0.1h0.1c0.3,0,0.7,0.2,1,0.6c0.3,0.4,0.5,0.8,0.5,1.3
	c0,0.6-0.4,1.2-1.1,1.7c-0.7,0.5-1.1,1.1-1.1,1.8c0,0.8,0.3,2.1,1,3.9c0.7,1.8,2,5.4,4.1,10.6c1.9,4.9,2.9,7.6,2.9,8.1
	c0,0.3-0.2,0.5-0.5,0.6c-0.3,0-1.4,0.1-3.3,0.2h-1.1c-1.8,0-2.8-0.1-3-0.2c-0.3-0.2-0.8-1.2-1.5-3c-0.6-1.4-1-2.2-1.1-2.2
	c0,0-0.1,0.4-0.1,1.1c0,0.9,0.1,1.8,0.4,2.8c1.1,4.6,4,7.2,8.7,7.7c1.5,0.2,2.4,0.5,2.7,0.9c0.2,0.4,0.4,0.9,0.4,1.6
	c0,0.6-0.1,1.2-0.3,1.9c-0.2,0.4-0.4,0.6-0.6,0.7c-0.2,0.1-0.8,0.1-1.8,0.1c-2.1,0-4-0.5-5.8-1.4c-1.8-0.9-3.3-2.1-4.5-3.7
	c-1.4-2-2.4-3.9-2.8-5.9c-0.4-1.9-0.6-5.2-0.6-9.9c0-3.2,0-5.2-0.1-6c-0.1-0.8-0.3-1.6-0.7-2.5c-0.5-1.2-1-1.8-1.2-2
	c-0.4-0.3-0.9-0.4-1.5-0.4c-0.4,0-0.7,0.1-1.1,0.2c-0.1,0-0.2,0.1-0.3,0.1c-0.5,0-0.9-0.2-1.2-0.7c-0.4-0.4-0.5-0.9-0.5-1.4
	c0-0.4,0.1-0.7,0.4-0.9c0.2-0.2,1.4-0.7,3.6-1.5c2.1-0.8,3.3-1.5,3.5-2c1.1-2.9,2.3-5,3.7-6.5C340.5,203,342.3,201.8,344.6,201z
	 M353.5,201.1c0.2-0.3,0.4-0.5,0.7-0.6c0.2-0.1,0.7-0.1,1.3-0.1c1.1,0,2.3,0.2,3.6,0.6c4,1.2,6.8,3.6,8.4,7.2
	c0.7,1.7,1.2,3.4,1.5,5.2c0.3,1.8,0.4,4.5,0.4,8.2v6.8l0.9,1.9c0.8,1.5,1.7,2.3,2.6,2.3c0.1,0,0.4,0,0.9-0.1c0.1,0,0.3-0.1,0.5-0.1
	c0.5,0,0.9,0.2,1.2,0.5c0.3,0.3,0.5,0.7,0.5,1.3c0,0.6-0.2,1-0.6,1.3c-0.4,0.3-1.5,0.8-3.4,1.5l-3.2,1.2l-0.6,1.7
	c-0.9,2.8-2.5,5-4.8,6.8c-2.3,1.8-4.9,2.7-7.8,2.8h-0.3c-1,0-1.6-0.2-2-0.5c-0.4-0.4-0.5-1-0.5-2s0.2-1.7,0.7-2.1
	c0.5-0.4,1.2-0.6,2.4-0.6c2.1,0,4.1-0.8,6-2.5c0.6-0.6,0.9-0.9,0.8-0.9c0,0-0.2,0-0.4,0.1c-0.1,0-0.2,0.1-0.4,0.1
	c-0.4,0-0.8-0.2-1.1-0.6c-0.3-0.4-0.5-0.9-0.5-1.4c0-0.7,0.3-1.2,0.9-1.5c1-0.6,1.4-1.2,1.4-2c0-0.9-0.8-3.3-2.4-7.3
	c-3.8-9.5-5.7-14.7-5.7-15.6c0-0.2,0.1-0.5,0.4-0.6c0.4-0.1,1.4-0.2,3-0.2c2.4,0,3.7,0.1,4.2,0.3c0.4,0.2,1,1.2,1.6,2.8
	c0.7,1.8,1.1,2.7,1.2,2.7c0,0,0.1-0.1,0.1-0.3c0-1.9-0.3-3.6-0.8-5.2c-0.6-1.6-1.6-3-3.1-4.1c-1.5-1.1-3.2-1.7-5.1-2
	c-1.4-0.1-2.3-0.3-2.5-0.6c-0.3-0.3-0.5-1.1-0.5-2.2C353.1,202.1,353.2,201.5,353.5,201.1z M39.4,265c0.7-0.1,1.7-0.2,2.9-0.2
	c2.8,0,5,0.2,6.7,0.7c2.2,0.6,3.3,1.7,3.3,3.3c0,1.2-0.4,1.9-1.1,1.9c-0.3,0-0.7-0.1-1.4-0.3c-2-0.7-4-1.1-6.1-1.1
	c-2.9,0-5.5,0.7-7.9,2.2s-4.2,3.5-5.5,6.1c-0.9,1.8-1.5,3.5-1.8,5.1c-0.3,1.5-0.4,3.6-0.4,6.2c0,2.6,0.1,4.7,0.4,6.2
	c0.3,1.5,0.9,3.2,1.8,5.1c2.1,4.4,5.6,7.1,10.2,8.1c1.2,0.2,2.3,0.4,3.4,0.4c3,0,5.7-0.8,8-2.5c2.3-1.7,4-4,5.1-7.1
	c0.5-1.6,1.2-2.4,1.9-2.4c0.2,0,0.4,0,0.4,0.1c0.4,0.2,0.6,2.8,0.6,7.8c0,5.1-0.2,7.8-0.6,8.2c-0.3,0.3-0.7,0.5-1.2,0.5
	c-0.5,0-0.9-0.1-1.2-0.4c-0.4-0.3-0.5-0.6-0.5-1c0-0.8-0.3-1.2-0.9-1.2c-0.5,0-1.7,0.3-3.6,0.9c-3.1,1-6.1,1.5-8.9,1.5
	c-3.1,0-6.8-0.7-11.2-2c-0.7-0.2-1.7-0.7-3.1-1.4c-1.3-0.7-2.8-1.8-4.4-3.3c-1.6-1.5-2.8-3.1-3.8-4.6c-0.5-1-1.2-1.9-2-2.7
	c-0.8-0.9-1.4-1.3-1.7-1.3c-0.1,0-0.2,1.1-0.2,3.2c0,2.9,0.1,4.9,0.2,5.9c0.2,1,0.4,1.6,0.7,2c0.3,0.4,0.9,0.6,1.7,0.7
	c1.6,0.2,2.4,0.9,2.4,1.9c0,0.7-0.4,1.1-1.3,1.2c-0.8,0.1-3.5,0.2-8,0.2H4.1v-3.2l1.2-0.2c1-0.2,1.7-0.5,1.9-0.9
	c0.4-0.7,0.6-3.7,0.7-8.7c0-0.3,0-0.8,0-1.5c0.1-6.3,0.3-9.7,0.7-10c0.2-0.3,1-0.6,2.3-0.8c1.3-0.2,2.5-0.4,3.6-0.4
	c0.1,0,0.3,0,0.4,0c0.2,0,0.3,0,0.4,0l1.6,0.1l0.3-1.7c1-5.5,3.4-10.1,7.2-13.8C28.2,268.2,33.1,266,39.4,265z M72.6,9.6
	c0.1-0.2,2.1-0.4,5.8-0.4c2.9,0,5.5,0,7.6,0.1c6,0.1,9.8,0.2,11.4,0.2c1.6,0.1,2.9,0.2,3.8,0.5c2.6,0.7,4.8,2.1,6.6,4.2
	c2.3,2.5,3.8,5.8,4.3,9.9c0.2,2,0.5,3.5,0.7,4.3c0.2,0.5,0.6,0.9,1.4,1.3c0.7,0.4,1.5,0.6,2.4,0.6c0.7,0,1.3,0.2,1.8,0.5
	c0.4,0.4,0.7,0.8,0.7,1.3c0,0.4-0.1,0.8-0.4,1.2c-0.2,0.4-1.5,0.6-3.8,0.6c-1.9,0-3.5,0-4.9-0.1c-5.5,0-8.4-0.2-8.6-0.6
	c-0.3-0.5-0.4-0.8-0.4-1.1c0-0.5,0.2-0.9,0.6-1.3c0.4-0.4,0.9-0.6,1.5-0.6c0.7,0,1.4-0.2,2.2-0.5s1.3-0.7,1.6-1.1
	c0.3-0.5,0.5-1.4,0.5-2.6c0-1.5-0.2-2.9-0.7-4.2c-1.5-4.1-4.3-6.5-8.2-7.2c-1.4-0.2-4.6-0.4-9.9-0.4L81,14.2l-0.1,12.2V31
	c0,6.6,0.2,11,0.6,13.3c0.4,2.3,1.2,4.1,2.6,5.3c1.8,1.7,4.3,2.6,7.5,2.6H92c1.5,0,2.5-0.1,2.9-0.4c0.4-0.2,0.6-0.8,0.6-1.8
	c0-0.5,0.1-0.9,0.4-1.4c0.3-0.5,0.5-0.7,0.8-0.7c0.2,0,0.5,0.2,0.7,0.5c0.2,0.2,0.4,1.4,0.4,3.5c0,2.8-0.2,4.4-0.5,4.8
	c-0.2,0.2-1.4,0.4-3.8,0.4c-4.9,0-8.2-0.3-9.9-0.8c-3-1-5.4-2.5-7.3-4.6c-1.9-2.1-3.1-4.6-3.5-7.4C72.6,42.5,72.4,34,72.4,19
	C72.4,13,72.5,9.9,72.6,9.6z M164,10.7c0.4-0.6,0.7-1,0.9-1.1c0.2-0.2,0.5-0.3,1-0.3c0.6,0,1.1,0.2,1.4,0.7c0.2,0.2,0.2,0.5,0.2,0.7
	c0,0.5-0.6,2.4-1.7,5.7c-1.4,4-2.2,6-2.3,6.1c-0.3,0.3-4,0.4-11.2,0.4c-7.3,0-11.1-0.1-11.3-0.4c-0.2-0.2-0.4-0.9-0.4-1.9
	c0-1.2,0.1-1.9,0.4-2c0.2-0.1,2.9-0.3,8.2-0.4l7.8-0.1l1.6-0.9C160.1,16.2,161.9,14.1,164,10.7z M155.7,25.1
	c0.5-0.4,0.9-0.6,1.2-0.6c0.9,0,1.4,0.8,1.7,2.5c0.1,0.9,0.5,1.6,1,2c0.4,0.4,1,0.6,1.7,0.7c0.7,0.1,3,0.1,6.8,0.1h7.6l-0.1,2.4
	l-0.1,2.4l-1.3,0.1l-1.4,0.1v8.4c0,5.7,0.1,8.8,0.3,9.2c0.5,1,1.7,1.5,3.6,1.5c0.7,0,1.3,0.2,1.8,0.5c0.5,0.3,0.7,0.7,0.7,1.2
	c0,0.4-0.2,0.8-0.6,1.2c-0.2,0.3-1.2,0.5-3,0.5c-1.7,0-7,0.1-15.7,0.1c-12.1,0-18.2-0.1-18.5-0.4c-0.2-0.2-0.3-1.3-0.5-3.5
	c-0.2-2.2-0.2-4.1-0.2-5.6c0-0.9,0-1.5,0.1-1.8c0.2-0.5,0.7-0.7,1.5-0.7c0.7,0,1.2,0.1,1.4,0.4c0.2,0.3,0.5,1.2,1,2.8
	c0.6,2.3,2,3.6,4.1,4c0.7,0.1,2.5,0.1,5.1,0.1h2.9l6.8-0.1c0-1.9,0-4.9,0.1-8.8c0-3.9,0.1-6.9,0.1-8.9l-0.7-0.1
	c-0.3-0.1-1.8-0.2-4.4-0.2l-3.7-0.1L155,30c0-0.7-0.1-1.5-0.1-2.5C155,26.4,155.2,25.6,155.7,25.1z M199.9,9.2
	c0.5-0.3,3.9-0.5,10.2-0.5c4.6,0,7.4,0,8.3,0.1c0.9,0.1,1.5,0.2,1.8,0.5c0.4,0.4,0.6,0.8,0.6,1.2c0,0.5-0.3,1-0.9,1.4
	c-0.6,0.4-1.4,0.6-2.3,0.6c-1.2,0-2,0.3-2.5,0.9c-0.5,0.6-0.8,1.6-0.8,3c0,0.3,0,1,0.1,2.1c0.5,4.2,1.7,7,3.6,8.5c1.7,1.3,4,2,6.9,2
	c2.2,0,4.3-0.4,6.1-1.2c1-0.4,1.9-1.1,2.9-2.1c1-1,1.7-2,2.1-2.9c0.8-1.8,1.2-3.9,1.2-6.5c0-0.5,0-0.9-0.1-1.1
	c-0.2-1-0.4-1.6-0.8-1.9c-0.4-0.3-1.2-0.6-2.3-0.7c-1.2-0.1-2-0.3-2.4-0.6c-0.4-0.2-0.6-0.7-0.6-1.4c0-0.9,0.4-1.4,1.3-1.6
	c0.9-0.2,3.5-0.3,7.7-0.3c4.2,0,6.7,0.1,7.5,0.3c0.8,0.2,1.3,0.7,1.3,1.6c0,1.3-0.9,1.9-2.6,1.9c-2.1,0-3.3,1.1-3.6,3.4
	c-0.6,4.7-1.4,7.9-2.2,9.5c-0.6,1.2-1.5,2.5-2.8,3.9c-1.3,1.4-2.3,2.3-3.2,2.6l-0.9,0.4v9.4c0,6.3,0.1,9.7,0.3,10.2
	c0.4,1.2,1.6,1.7,3.5,1.7c1.7,0,2.5,0.6,2.5,1.8c0,0.8-0.7,1.3-2.1,1.5c-1.4,0.2-5.9,0.2-13.5,0.2c-9.4,0-14.2-0.1-14.3-0.3
	c-0.2-0.3-0.9-2.4-2.1-6.4c-1.2-4-1.9-6.1-1.9-6.4c0-0.4,0.2-0.8,0.5-1.1c0.4-0.3,0.8-0.5,1.2-0.5c0.3,0,0.6,0.2,0.9,0.5
	c0.2,0.3,0.6,1,1.1,2c0.8,1.6,1.8,3,2.9,4.2c1.2,1.2,2.2,2,3.2,2.3c1.2,0.3,2.7,0.4,4.8,0.4c2.1,0,3.4-0.1,3.7-0.4
	c0.3-0.3,0.5-3.2,0.5-8.8l0.1-8.4l-3-0.2c-3.9-0.3-7-1.2-9.2-2.7c-2.1-1.4-3.7-3.4-5-5.9c-1.2-2.5-1.9-5.2-1.9-8
	c0-2-0.5-3.4-1.4-4.3c-0.4-0.4-1.2-0.6-2.3-0.6c-1.1,0-1.9-0.2-2.4-0.5c-0.5-0.3-0.7-0.7-0.7-1.4C199.2,9.9,199.4,9.4,199.9,9.2z
	 M287.6,9.3c1.5-0.2,2.9-0.3,4-0.3c2.7,0,5.9,0.6,9.5,1.8c2.1,0.7,3.4,1,3.8,1h0.1c0,0,0.1-0.5,0.3-1.5l0.2-1.3h1.5
	c0.7,0,1.1,0,1.3,0.1c0.2,0.1,0.3,0.3,0.3,0.6c0.1,0.4,0.4,3,0.7,7.8c0.2,3.7,0.4,5.7,0.4,5.8c0,1-0.1,1.7-0.3,1.9
	c-0.2,0.2-0.7,0.4-1.4,0.4c-0.7,0-1.2-0.3-1.4-0.9c-1.4-3.6-3-6.1-4.8-7.8c-1.8-1.6-4.2-2.7-7.1-3.1c-0.9-0.1-1.7-0.2-2.5-0.2
	c-2.8,0-5.4,0.7-7.6,2.1c-2.3,1.4-4.1,3.4-5.5,6c-1,1.8-1.6,3.6-2,5.4c-0.4,1.8-0.6,4.2-0.7,7.2l-0.2,5.3l3.3,0.4
	c4,0.5,7.7,1.6,11,3.3l1.9,1l0.2,3.9c0.1,2.3,0.3,3.7,0.6,4.3c0.3,0.6,1,1,2.2,1.1c1.6,0.2,2.4,0.8,2.4,1.8c0,0.4-0.2,0.8-0.6,1.2
	c-0.2,0.3-0.8,0.5-1.7,0.5c-0.9,0-3.5,0.1-7.7,0.1c-4.5,0-7.1,0-7.9-0.1c-0.8-0.1-1.4-0.3-1.6-0.7c-0.4-0.5-0.6-0.9-0.6-1.2
	c0-0.9,0.9-1.4,2.8-1.7c1.4-0.2,2.2-0.5,2.5-1c0.3-0.5,0.5-1.6,0.6-3.4l0.1-3l-1.3-0.6c-2.2-0.9-5.7-1.4-10.6-1.7l-5.4-0.2v-5.5
	c0-4.8,0.5-8.6,1.4-11.3c1.5-4.7,4-8.6,7.7-11.7C278.9,11.9,283,10,287.6,9.3z M364,9.5c0.4-0.7,0.8-0.8,1.4-0.2
	c0.3,0.4,1,2.4,2.1,6c1,3.2,1.5,5.2,1.5,5.8c0,0.2,0,0.3-0.1,0.4c-0.2,0.3-0.4,0.5-0.7,0.5c-0.5,0-0.9-0.4-1.2-1.1
	c-0.4-0.7-0.8-1.1-1.2-1.1c-0.5,0-1.2,0.5-2.3,1.4c-1.1,0.9-3.1,2.8-6,5.6l-5.5,5.3l8.2-0.2c5.4-0.1,8.3-0.2,8.7-0.4
	c0.3-0.1,0.5-0.8,0.5-2.2c0-1.3,0.2-2,0.7-2c0.1,0,0.3,0.1,0.6,0.2c0.3,0.2,0.9,1.6,1.8,4.2c0.9,2.6,1.3,4.3,1.3,5.1
	c0,0.1,0,0.2-0.1,0.2c-0.2,0.4-0.5,0.6-0.8,0.6c-0.4,0-0.7-0.3-1-0.8c-0.3-0.6-0.8-1-1.4-1.2c-0.6-0.2-1.8-0.3-3.5-0.3
	c-0.5,0-2.1,0-4.8,0.1l-6.7,0.2l4.1,7.2c2.4,4.2,4.2,7.1,5.3,8.9c1.1,1.8,2,2.8,2.6,3.3c0.7,0.5,1.7,0.8,3,1.1
	c0.4,0.1,0.6,0.2,0.7,0.4c0.1,0.2,0.2,0.5,0.2,1c0,0.8-0.1,1.4-0.4,1.6s-3.1,0.4-8.4,0.4c-4,0-6.4,0-7.1-0.1
	c-0.7-0.1-1.2-0.3-1.5-0.6c-0.3-0.4-0.4-0.8-0.4-1.2c0-0.5,0.2-0.8,0.5-1.1c0.3-0.3,0.8-0.4,1.4-0.4c0.5,0,0.9-0.2,1.3-0.5
	c0.4-0.3,0.6-0.7,0.6-1.1c0-0.3-1.2-2.5-3.5-6.8c-2.3-4.2-3.6-6.3-3.8-6.3c-0.3,0-1.8,2.1-4.5,6.3c-2.7,4.2-4.1,6.5-4.1,6.9
	c0,0.5,0.2,0.8,0.6,1.1c0.4,0.3,0.8,0.4,1.4,0.4c0.5,0,0.9,0.1,1.1,0.4s0.4,0.6,0.4,1.1c0,0.5-0.2,1-0.5,1.4
	c-0.2,0.2-0.8,0.4-1.5,0.5c-0.8,0.1-2.7,0.1-5.6,0.1c-3.1,0-5,0-5.7-0.1c-0.7-0.1-1.1-0.2-1.3-0.5c-0.2-0.4-0.3-0.8-0.3-1.2
	c0-1.1,0.5-1.6,1.4-1.6c0.5,0,1.4-0.4,2.5-1.1c1.1-0.7,2.1-1.6,2.9-2.4c0.6-0.7,2.5-3.3,5.7-7.8c3.2-4.5,5-7.2,5.4-8.1
	c0.1-0.2,0.2-0.3,0.2-0.4c0-0.2-0.7-0.2-2.2-0.2c-1.6,0-2.5-0.1-2.7-0.4c-0.3-0.4-0.4-0.7-0.4-0.9c0-0.4,0.3-0.9,0.9-1.6
	c0.6-0.7,1.9-2,3.9-3.9c7.5-7.2,12.1-11.7,13.8-13.5c1.7-1.8,2.5-3,2.5-3.8c0-0.2,0-0.5-0.1-0.6C363.8,10.4,363.8,9.9,364,9.5z
	 M86.8,265.5l0.6-0.8h9.1c4,0,6.6,0,7.7,0.1c1.1,0.1,1.8,0.2,2,0.5c0.4,0.3,0.6,0.7,0.6,1.2s-0.2,0.8-0.6,1.2
	c-0.4,0.3-1.1,0.6-2.1,0.7c-1.1,0.2-1.8,0.3-2.2,0.5c-0.8,0.4-1.2,1.8-1.2,4.2v0.7l0.1,2l1.9,0.7c2.1,0.9,5.5,1.4,10,1.4h2.5
	c1.3,0,2.1,0.2,2.4,0.5c0.3,0.4,0.4,1.3,0.4,2.9v3.2c0,3.6-0.2,6.3-0.5,8.1c-0.3,1.8-1.1,3.8-2.2,6.1c-2.3,4.6-5.3,8.2-9.2,10.7
	c-3.9,2.5-8.2,3.7-13,3.7c-3.1,0-6.2-0.5-9.4-1.5c-2.4-0.8-3.8-1.2-4-1.2c-0.2,0-0.5,0.4-0.7,1.3s-0.5,1.3-0.7,1.4
	c-0.3,0.1-0.7,0.2-1.2,0.2c-0.7,0-1.2-0.1-1.3-0.3s-0.4-2.9-0.9-7.9l-0.6-7.6l0.7-0.6c0.5-0.4,1-0.6,1.4-0.6c0.5,0,0.9,0.3,1.2,0.9
	c1.5,3.8,3.1,6.4,4.8,7.9c1.4,1.3,2.8,2.2,4,2.6c1.2,0.4,3.1,0.7,5.6,0.7c2.4,0,4.2-0.2,5.4-0.6c1.3-0.4,2.6-1.1,4-2.3
	c4.4-3.6,6.6-9.5,6.6-17.5v-1l-0.1-4.7l-2.7-0.2c-3.4-0.3-6.9-1.2-10.4-2.9l-2.9-1.3v-2.5c-0.1-3.6-0.4-5.7-1-6.3
	c-0.3-0.3-1-0.5-2-0.7c-1-0.2-1.7-0.5-2-1.1C86.4,266.6,86.5,266,86.8,265.5z M156.9,280.3c1-1.5,1.8-2.3,2.4-2.3
	c0.2,0,0.5,0.1,0.7,0.4c0,0,0.1,0.2,0.1,0.4c0,0.5-0.3,1.8-1,3.8c-0.7,2.3-1.3,3.7-1.7,4.2c-0.2,0.3-2,0.4-5.1,0.4h-2.6l-7.4-0.1
	v-2.9l5.5-0.2c3.3-0.1,5.3-0.3,6.2-0.7C154.7,283.1,155.7,282.1,156.9,280.3z M163,301v-37.7h8.6l-0.1,18c0,1.4,0,3.4,0,5.9
	c0,2.5,0,4.2,0,5.2c0,4.8,0,7.5,0.1,7.9c0.1,0.7,0.5,1.2,1.2,1.6c0.7,0.4,1.5,0.7,2.4,0.7c0.8,0,1.4,0.2,1.9,0.5
	c0.5,0.3,0.7,0.7,0.7,1.2c0,0.4-0.2,0.8-0.6,1.2c-0.2,0.3-0.9,0.5-1.9,0.5c-1,0.1-3.7,0.1-8,0.1c-4.2,0-6.8,0-8-0.1
	c-1.1-0.1-1.8-0.2-2.1-0.5c-0.4-0.3-0.6-0.7-0.6-1.2s0.2-0.9,0.6-1.2c0.3-0.3,1.1-0.5,2.4-0.6c1.3-0.1,2.1-0.4,2.6-0.9L163,301z
	 M230.3,271.3c0.2-0.2,0.4-0.2,0.7-0.2c0.5,0,0.9,0.2,1.3,0.6c0.3,0.3,0.5,1.2,0.5,2.7c0,1.5,0,2.8-0.1,4l-0.2,6.6
	c-0.1,0.3-0.6,0.4-1.4,0.4c-0.9,0-1.4-0.3-1.6-0.8c-0.2-0.5-0.6-1-1-1.2c-0.3-0.2-0.5-0.4-0.7-0.4c-0.2,0-0.5,0.1-1.1,0.4
	c-2.8,1.2-5.4,2-7.8,2.4c-0.8,0.1-1.4,0.2-1.9,0.2c-0.6,0-1-0.1-1.2-0.3c-0.2-0.2-0.3-0.6-0.3-1.1V284c0-0.7,0.1-1.1,0.3-1.2
	c0.1-0.1,0.6-0.2,1.5-0.4c3.3-0.6,5.9-1.5,7.6-2.8c1.7-1.3,3.1-3.2,4.2-5.9C229.7,272.3,230.1,271.5,230.3,271.3z M281,270.5
	c0.1-0.2,0.2-0.4,0.4-0.5c0.1-0.1,0.4-0.1,0.7-0.2c0.3,0,0.9-0.1,1.7-0.1h2.5c3.8,0.1,6,0.2,6.6,0.2l1.9,0.2l0.1,1.4
	c0,0.6,0,1,0,1.1c-0.1,0.2-0.3,0.3-0.6,0.5c-0.5,0.2-1,0.6-1.3,0.9c-0.2,0.2-0.4,0.5-0.4,0.7c0,0.3,0.3,1.2,0.9,2.6
	c0.5,1.3,1,2.9,1.5,4.6c0.4,1.7,0.7,3,0.7,3.8c0,1-0.6,1.5-1.7,1.5h-0.4l-1.2-0.1l-0.6-2.8c-0.5-2.4-1.1-4.3-1.9-5.6
	c-0.8-1.4-2-2.6-3.6-3.6c-1.1-0.8-2.3-1.4-3.6-1.8c-1.3-0.5-2-1-2-1.7C280.6,271.4,280.7,271,281,270.5z M358.8,297.8
	c0.1-0.3,0.5-0.5,1.1-0.5c0.7,0,1.1,0.2,1.1,0.6c0,0.6-0.4,2.1-1.2,4.5l-1.4,4h-15.3v-2.9l5.5-0.2c2.6-0.1,4.2-0.2,4.8-0.2
	c0.6-0.1,1.2-0.3,1.7-0.6c0.5-0.3,1.2-1,2-2.1C358,299.3,358.5,298.4,358.8,297.8z M30.7,362.6c0-0.8,0-1.3,0.1-1.7
	c0-0.3,0.2-0.6,0.4-0.9c0.2-0.2,0.5-0.4,1-0.4c0.6,0,1,0.2,1.1,0.6c0.2,0.4,0.3,1.2,0.3,2.3c0,1.5,0.2,2.5,0.7,3
	c0.5,0.5,1.4,0.9,2.9,1.1c1.1,0.1,1.8,0.3,2.2,0.6c0.4,0.3,0.6,0.7,0.6,1.3c0,0.6-0.5,1-1.4,1.2c-0.9,0.2-3.1,0.3-6.5,0.5
	c-2.5,0.1-3.9,0.1-4.2,0.1c-1.5,0-2.5-0.1-2.9-0.4c-0.5-0.4-0.7-0.8-0.7-1.2c0-1,0.9-1.5,2.6-1.7c1.2-0.2,2.2-0.6,2.9-1.2
	c0.5-0.5,0.7-0.9,0.8-1.2C30.6,364.3,30.7,363.6,30.7,362.6z M90.5,361.2c1.1-0.2,3.2-0.2,6.4-0.2h1.7c2.1,0,3.4,0.2,3.8,0.5
	c0.4,0.3,0.6,0.8,0.6,1.4c0,0.4-0.1,0.7-0.2,0.9c-0.1,0.3-1.1,0.6-3,0.9c-1.8,0.3-3,0.7-3.7,1.1c-0.7,0.4-1.3,1.2-1.9,2.4l-1,1.9
	l-1.7,0.1h-0.7c-0.8,0-1.3-0.2-1.6-0.6c-0.3-0.4-0.4-1.1-0.4-2.2c0-0.4,0.1-1.6,0.2-3.8l0.2-2.2L90.5,361.2z M98.5,330.3
	c0.2-0.2,0.8-0.4,1.7-0.4c1.3,0,2.2,0.2,2.5,0.6c0.3,0.2,0.4,0.8,0.4,1.5c0,0.1,0,1-0.1,2.7c-0.2,2.5-0.3,3.8-0.5,4
	c-0.2,0.2-2.4,0.4-6.4,0.5c-1,0-2.2,0.1-3.6,0.1c-1.7,0-2.8-0.2-3.1-0.5c-0.4-0.4-0.6-0.8-0.6-1.3s0.2-0.9,0.6-1.2
	c0.4-0.3,1.4-0.6,2.9-0.8c1.7-0.3,2.7-0.6,3.3-0.9c1.1-0.6,1.9-1.6,2.4-3C98.1,331,98.3,330.6,98.5,330.3z M153.2,330.1
	c0.3-0.3,0.8-0.4,1.6-0.4h0.7c0.9,0,1.5,0.2,1.7,0.4s0.6,0.8,1.1,1.9c0.7,1.6,2.5,2.7,5.5,3.2c1.9,0.3,2.9,0.6,3,0.9
	c0.2,0.2,0.2,0.5,0.2,0.9c0,0.5-0.2,1-0.6,1.4c-0.4,0.4-1.9,0.6-4.6,0.6c-5.6,0-8.5-0.3-8.7-0.8c0-0.1-0.1-1.4-0.3-3.9
	c-0.1-1.6-0.1-2.4-0.1-2.5C152.7,330.9,152.9,330.4,153.2,330.1z M154.9,360.8c0.5,0,2.5-0.1,6.3-0.2h1.7c2.1,0,3.3,0.2,3.7,0.5
	c0.4,0.3,0.6,0.7,0.6,1.3c0,0.4-0.1,0.7-0.2,0.9c-0.2,0.3-1.1,0.6-2.9,0.9c-1.7,0.3-2.8,0.6-3.5,0.9c-0.5,0.2-1,0.7-1.5,1.2
	c-0.5,0.6-0.8,1.2-1,1.8c-0.2,0.7-0.5,1.1-0.8,1.3c-0.3,0.2-0.9,0.3-1.8,0.3c-1.1,0-1.8-0.1-2.1-0.4c-0.3-0.3-0.5-0.9-0.5-2
	c0-0.3,0-1.1,0.1-2.3c0.2-2.4,0.3-3.7,0.4-3.9C153.4,361.1,153.9,360.9,154.9,360.8z M153.9,342.7c0.3-0.5,0.7-0.7,1.1-0.7
	c0.2,0,0.6,0.1,1,0.3c0.4,0.2,0.6,1,0.8,2.3c0.2,1.4,0.5,2.3,1.1,2.9c0.4,0.4,0.8,0.7,1.1,0.7c0.3,0.1,1,0.1,2,0.1
	c1.2,0,1.9,0.1,2.4,0.3c0.4,0.2,0.6,0.6,0.6,1.1c0,0.6-0.2,1-0.6,1.2c-0.4,0.2-1.2,0.3-2.3,0.3c-1.5,0-2.5,0.2-3.1,0.7
	c-0.6,0.5-1,1.5-1.2,2.9c-0.2,1-0.3,1.6-0.4,1.9s-0.4,0.5-0.8,0.7c-0.6,0.2-1.1,0.1-1.6-0.4c-0.3-0.3-0.5-0.9-0.5-1.6
	c0-0.7-0.1-2.6-0.1-5.6C153.4,345.6,153.5,343.2,153.9,342.7z M212.7,340.7c0.1-0.2,1.1-0.2,2.9-0.2c3.3,0,5,0.1,5.1,0.4
	c0,0.2,0.1,5.1,0.3,14.8c0,0.7,0,1.8,0.1,3c0,6.8,0.2,10.7,0.6,11.5c0.2,0.7,0.8,1,1.6,1.1c0.1,0,0.2,0,0.5,0c0.2,0,0.4,0.1,0.6,0.1
	c2,0.1,3,0.7,3,1.8c0,0.4-0.2,0.8-0.6,1.2c-0.2,0.3-0.8,0.5-1.8,0.5c-1,0-3.7,0.1-8.1,0.1c-4.2,0-6.8,0-8-0.1
	c-1.1-0.1-1.8-0.2-2.1-0.5c-0.4-0.4-0.6-0.8-0.6-1.2c0-0.5,0.2-0.9,0.7-1.2c0.5-0.3,1.1-0.5,1.8-0.5c1.1,0,1.9-0.2,2.5-0.6
	c0.6-0.3,0.9-0.9,1.1-1.7c0.2-1.3,0.3-6.3,0.4-15.1C212.6,345.4,212.6,340.9,212.7,340.7z M206.7,328.2c0.2-0.2,0.7-0.4,1.5-0.5
	c0.7-0.1,2.6-0.1,5.6-0.1c4.4,0,6.8,0.1,7,0.4s0.4,0.8,0.4,1.5c0,0.8-0.1,1.3-0.4,1.5s-2.6,0.4-6.9,0.4c-4.4,0-6.8-0.2-7.1-0.6
	c-0.3-0.3-0.5-0.7-0.5-1.3C206.2,329,206.4,328.6,206.7,328.2z M224.1,347.3c0.3-0.3,0.5-0.4,0.7-0.4c0.5,0,1.3,0.7,2.2,2.2
	c1.2,1.7,2.2,2.8,3.1,3.2c0.9,0.4,3,0.6,6.2,0.7l5.4,0.2l0.1,1.1c0,0.1,0,0.2,0,0.3c0,0.1,0,0.2,0,0.3c0,0.6-0.4,1-1.3,1.1
	c-0.8,0.1-3,0.2-6.5,0.2c-4.8,0-7.3-0.1-7.5-0.4c-0.3-0.4-0.8-1.8-1.6-4.2c-0.7-2-1-3.3-1-3.8C224,347.4,224.1,347.3,224.1,347.3z"
	/>
</svg>
