<?xml version="1.0" encoding="utf-8"?>
<!-- Generator: Adobe Illustrator 25.4.1, SVG Export Plug-In . SVG Version: 6.00 Build 0)  -->
<svg version="1.1" id="Layer_1" xmlns="http://www.w3.org/2000/svg" xmlns:xlink="http://www.w3.org/1999/xlink" x="0px" y="0px"
	 viewBox="0 0 384 384" style="enable-background:new 0 0 384 384;" xml:space="preserve">
<path d="M14.8,10.9c0.3-0.3,0.7-0.4,1.2-0.5c0.5-0.1,1.9-0.1,4.1-0.1c2.3,0,3.6,0,4.1,0.1c0.5,0.1,0.9,0.3,1.3,0.6
	c0.5,0.5,1.4,2.9,2.9,7.1c1.4,4.2,2.3,6.3,2.6,6.5c0,0,0.1,0.1,0.3,0.1c0.4,0,0.8-0.4,1.2-1.3c0.4-0.9,1.1-2.7,2-5.5
	c1.4-4.1,2.3-6.4,2.8-6.9c0.3-0.3,0.8-0.5,1.4-0.6c0.6-0.1,2-0.1,4.3-0.1c2.5,0,4,0.1,4.7,0.2c0.7,0.1,1,0.5,1,1
	c0,0.3-1.6,4.7-4.7,13.2c-0.2,0.6-0.5,1.4-0.8,2.3c-0.3,0.9-0.6,1.6-0.8,2.1c-0.2,0.5-0.4,1.1-0.7,1.8c-0.3,0.7-0.5,1.2-0.6,1.6
	c-0.1,0.4-0.3,0.8-0.5,1.3c-0.2,0.5-0.3,0.9-0.4,1.2c-0.1,0.3-0.2,0.6-0.3,0.9c-0.1,0.3-0.1,0.6-0.2,0.8c0,0.2,0,0.4,0,0.6
	c0,0.6,0.2,1,0.6,1.2c0.4,0.2,1.1,0.3,2,0.3h2.5c2.1,0,3.4,0,3.9,0.1c0.5,0.1,0.9,0.3,1.2,0.6c0.3,0.3,1.5,2.9,3.3,7.8
	c1.9,4.9,2.8,7.5,2.8,8c0,0.4-0.2,0.8-0.5,1c-0.3,0.3-2.1,0.5-5.4,0.5c-2.4,0-3.9,0-4.4-0.1c-0.5-0.1-1-0.3-1.4-0.8
	c-0.6-0.6-1.2-1.9-2-4.2c-0.7-2.1-1.2-3.3-1.6-3.7c-0.6-0.6-2.2-0.9-4.8-0.9c-0.4,0-0.9,0-1.4,0h-2.4h-2.7c-2.9,0-4.7,0.2-5.3,0.6
	c-0.7,0.4-1.3,1.5-2,3.5c-0.1,0.3-0.2,0.6-0.3,0.8c-0.8,2.4-1.6,3.8-2.2,4.2c-0.7,0.4-2.5,0.6-5.4,0.6c-2.1,0-3.4,0-4-0.1
	c-0.6-0.1-1-0.2-1.3-0.6c-0.3-0.3-0.5-0.6-0.5-0.8c0-0.2,0.3-1,0.8-2.5c3.2-8.5,5-12.9,5.5-13.4c0.3-0.3,0.7-0.6,1.2-0.6
	c0.5-0.1,1.6-0.1,3.4-0.1c2,0,3.3-0.1,3.8-0.3c0.6-0.2,0.8-0.6,0.8-1.2c0-0.4-1.6-4.8-4.7-13.2c-2.9-7.8-4.4-12-4.4-12.7
	C14.6,11.2,14.7,11,14.8,10.9z M44.7,76.4c1.2-0.7,2.2-1,2.9-1c0.4,0,0.7,0.1,1,0.3c0.4,0.2,1.2,1.4,2.5,3.5
	c1.3,2.1,1.9,3.4,1.9,3.8c0,0.9-1,1.6-2.9,2.3c-2.2,0.7-4.1,2-5.7,3.8c-0.7,0.9-1.1,2-1.1,3.4c0,0.9,0.2,1.6,0.5,2.3
	c0.3,0.7,0.7,1.1,1.3,1.1c0.3,0.1,1.8,0.2,4.6,0.3c2.2,0.1,3.4,0.2,3.8,0.3c0.7,0.4,1.1,1.7,1.2,4c0,0.4,0,0.8,0,1.3
	c0,0.6,0,3.4-0.1,8.3c-0.1,5.9-0.2,9.4-0.3,10.5c-0.1,1.1-0.3,1.9-0.6,2.2c-0.3,0.3-1.1,0.5-2.5,0.6c-1.4,0.1-5.7,0.1-13,0.2H32
	c-6.3,0-10-0.1-11-0.3c-4.5-0.7-7.7-2.8-9.6-6.3c-1.3-2.4-1.9-6.3-1.9-11.6c0-2,0.1-3.8,0.3-5.4c0.2-1.7,0.6-2.9,1.2-3.4
	c0.6-0.6,1.8-1,3.5-1c0.2,0,0.5,0,0.8,0c0.3,0,0.5,0,0.6,0c0.9,0,1.6,0.3,2.1,0.8l1,0.8l-0.6,3.2c-0.3,1.5-0.4,2.9-0.4,4.1
	c0,3.2,0.9,5.6,2.7,7c0.8,0.6,1.3,0.8,1.7,0.8c0.7,0,1.5-1,2.3-3.1c0.9-2.6,2.7-4.9,5.3-6.9c1.3-1,2-1.4,2.1-1.4
	c0.1,0,0.3-0.2,0.6-0.7c0.1-0.2,0.2-0.4,0.2-0.6c0-0.5-0.2-1.3-0.6-2.6c-0.6-1.8-0.9-3.4-0.9-4.9c0-3.3,1.5-6.3,4.5-9.2
	c0.8-0.8,2.2-1.9,4.1-3.2C41.6,78.2,43.3,77.2,44.7,76.4z M45.7,107c-0.4-0.3-0.9-0.5-1.4-0.5c-0.7,0-1.7,0.2-3,0.6
	c-1.5,0.5-2.8,1.3-3.9,2.4c-1.1,1.1-1.7,2.2-1.7,3.2c0,0.4,0.2,0.8,0.5,1.1c0.3,0.3,1.2,0.6,2.8,0.8c1.5,0.3,3,0.4,4.3,0.4
	c1,0,1.6-0.1,1.9-0.3c0.6-0.3,1-0.7,1.1-1.1c0.1-0.4,0.2-1.5,0.2-3.1C46.3,108.6,46.1,107.4,45.7,107z M88.7,93.4
	c6.9-0.2,11.9-0.3,14.8-0.3c2.3,0,3.8,0.2,4.4,0.5c0.6,0.3,1.5,0.8,2.6,1.7c1.1,0.9,2,1.6,2.6,2.3c0.4,0.5,0.6,0.8,0.6,1.1
	c0,0.6-0.5,1.6-1.6,3c-1,1.4-3.5,4.6-7.4,9.5c-5.8,7.4-9.1,11.2-9.7,11.5c-0.3,0.1-0.5,0.2-0.8,0.2c-0.7,0-2-0.7-3.8-2.1
	c-0.6-0.5-1-0.9-1.3-1.1c-0.2-0.2-0.5-0.5-0.7-0.8c-0.2-0.3-0.3-0.6-0.3-0.9c0-0.6,0.3-1.3,1-2.3c0.6-1,1.9-2.6,3.7-4.8l4.7-5.9
	l-8.8-0.1l-8.9-0.2l-0.8-0.9c-0.4-0.4-0.6-0.9-0.7-1.4c-0.1-0.5-0.1-1.6-0.1-3.3v-1.8c0-1.8,0.4-2.8,1.2-3.1
	c0.8-0.3,3.3-0.5,7.5-0.6C87.6,93.4,88.2,93.4,88.7,93.4z M86.1,74.3c0.5-0.4,1-0.6,1.6-0.6c0.8,0,2,0.6,3.6,2
	c2.2,1.7,3.3,3,3.3,3.9c0,0.2,0,0.4-0.1,0.5c-0.1,0.5-1.4,2.2-3.7,5.1c-2.3,2.9-3.8,4.6-4.3,5c-0.5,0.3-1.7,0.5-3.6,0.5
	c-1.3,0-2.2,0-2.6-0.1c-0.4-0.1-0.7-0.3-1-0.6c-0.5-0.5-0.7-1.3-0.7-2.5v-0.9c0.1-1.9,0.2-3,0.5-3.3c0.3-0.6,1.5-2.2,3.4-4.6
	C84.4,76.1,85.6,74.7,86.1,74.3z M136.9,75.6c0.3-0.3,1.5-0.5,3.5-0.6c2-0.1,8.6-0.1,19.7-0.1h22.4l0.7,0.7c0.4,0.5,0.6,1.8,0.6,4
	v1.5c0,1.5-0.3,2.4-0.9,2.7c-0.6,0.3-2.5,0.5-5.5,0.5h-3.1c-5.7,0-8.7,0.1-9,0.2c-0.3,0.1-0.5,0.3-0.5,0.5c0,0.3,0.6,0.9,1.8,1.6
	c1.2,0.7,3.6,2,7.1,3.9c6,3.2,9.2,5,9.6,5.5c0.4,0.5,0.6,1.8,0.6,3.8c0,2-0.2,3.2-0.7,3.7c-0.3,0.3-0.5,0.5-0.7,0.5
	c-0.2,0-0.4-0.1-0.9-0.4c-1.8-1.2-7.5-4.6-17.3-10.2c-9.8-5.6-14.9-8.5-15.5-8.6c-1-0.3-3.1-0.4-6.3-0.4h-1.4
	c-2.4,0-3.8-0.2-4.2-0.6c-0.4-0.4-0.6-1.5-0.6-3.5v-0.5C136.2,77.5,136.5,76.1,136.9,75.6z M136.8,95c0.2-0.2,0.4-0.3,0.8-0.3
	c0.1,0,1.8,1,5.2,3c3.4,2,7.1,4.2,11.1,6.6c4,2.4,7.7,4.6,11.1,6.6l5.1,3c0.9,0.4,3.2,0.6,6.9,0.6h0.6c3,0,4.8,0.2,5.4,0.5
	c0.6,0.3,0.8,1.3,0.8,3.1v0.6c0,2-0.2,3.2-0.6,3.6c-0.3,0.3-1.4,0.5-3.5,0.5c-2.1,0-8.6,0.1-19.4,0.1c-14.9,0-22.6-0.1-23.1-0.3
	c-0.3-0.2-0.5-0.5-0.6-0.9c-0.1-0.4-0.1-1.4-0.1-3s0-2.6,0.1-3c0.1-0.4,0.2-0.7,0.6-0.9c0.4-0.2,3.5-0.3,9.2-0.3
	c5.7,0,8.7-0.2,9-0.5c0.1-0.2,0.1-0.3,0.1-0.3c0-0.3-0.6-0.7-1.8-1.4c-1.2-0.7-3.9-2.2-8.3-4.5c-5.2-2.8-7.9-4.4-8.3-4.7
	c-0.4-0.4-0.6-1.8-0.6-4.2C136.6,96.5,136.7,95.2,136.8,95z M199.6,91.2c0.1-0.3,1-0.4,2.7-0.4h1.9l4.4,0.1l0.2,2.5
	c0.2,2,0.6,3.8,1.2,5.3c0.6,1.6,1.7,3.3,3.2,5.2c1.1,1.5,1.7,2.4,1.7,2.7c0,0.5-1,0.8-2.9,0.8c-0.2,0-0.6,0-1.2,0
	c-0.6,0-1.1,0-1.5,0l-5.7-0.1l-0.9-2c-0.6-1.3-1.3-2.9-1.8-4.8c-0.9-3.2-1.3-6.1-1.3-8.6C199.5,91.5,199.5,91.3,199.6,91.2z
	 M218,75.4c0.1-0.2,1.2-0.3,3.4-0.3h2.5l5.8,0.1V122H218l-0.1-23.1v-9.6C217.8,80.3,217.9,75.6,218,75.4z M239.5,93.2l0.2-2.5
	l4.4,0.1l4.4,0.1l0.1,1.8v0.5c0,3.2-0.6,6.5-2,9.9c-0.8,2.1-1.3,3.3-1.6,3.6c-0.6,0.5-1.9,0.7-3.9,0.7H239c-3.7,0-5.6-0.2-5.7-0.5
	c-0.1-0.3,0-0.8,0.5-1.4C237.3,101.2,239.2,97.1,239.5,93.2z M286.1,75.8l0.7-0.8h21.6l0.6,0.8c0.3,0.4,0.5,0.9,0.6,1.5
	s0.1,1.9,0.1,3.8c0,2.1-0.1,3.6-0.2,4.4c-0.2,0.8-0.4,1.3-0.9,1.6c-0.3,0.2-2.5,0.3-6.6,0.3c-3,0-4.8,0-5.4,0.1
	c-0.6,0.1-1.1,0.2-1.4,0.6c-0.3,0.3-0.5,1.5-0.5,3.4c0,0.2,0,2.5,0.1,7c0.1,3.9,0.1,6.1,0.1,6.7c0,2-0.2,3.2-0.6,3.7
	c-0.4,0.5-1.2,0.7-2.5,0.7h-1.4c-1.4,0-2.3,0-2.8-0.1c-0.5-0.1-0.9-0.3-1.2-0.6c-0.3-0.3-0.6-0.7-0.7-1.1c-0.1-0.4-0.1-1.4-0.1-2.8
	c0-2.1-0.2-3.4-0.7-3.7c-0.5-0.4-2-0.6-4.5-0.6h-2.1c-1.5,0-2.4,0.3-2.7,1c-0.3,0.6-0.5,2.5-0.5,5.6v4.2c0,6.5-0.2,10.1-0.5,10.5
	c-0.2,0.3-0.6,0.6-1,0.6c-0.5,0.1-1.5,0.1-3.2,0.1c-1.6,0-2.7,0-3.2-0.1c-0.5-0.1-0.8-0.3-1-0.6c-0.3-0.5-0.5-5.9-0.5-16.3
	c0-10.4,0.2-15.9,0.5-16.4c0.3-0.3,0.8-0.6,1.6-0.6c0.8-0.1,3.3-0.1,7.6-0.1c5.7,0,8.8-0.2,9.2-0.5c0.3-0.3,0.5-1.4,0.5-3.4v-2.5
	v-2.4c0-1.4,0-2.4,0.1-2.8C285.6,76.4,285.8,76.1,286.1,75.8z M351,76.1l0.7-0.8h10.7h5c3.4,0,5.4,0.2,6.2,0.6
	c0.7,0.4,1.1,1.5,1.1,3.2v2.5v1.9c0,2-0.3,3.2-0.8,3.6c-0.5,0.4-2,0.6-4.5,0.6h-2.3c-2.9,0-4.7,0-5.4,0.1c-0.7,0-1.2,0.2-1.5,0.5
	c-0.3,0.3-0.4,0.8-0.5,1.7c-0.1,0.8-0.1,2.9-0.1,6.2c0,4.9-0.2,7.5-0.5,7.8c-0.3,0.3-3.2,0.5-8.6,0.5h-3.3c-2.9,0-4.7,0.2-5.4,0.6
	c-0.6,0.4-0.9,1.5-0.9,3.4v2.1v2.1c0,1.8,0.3,2.9,0.9,3.3c0.6,0.4,2.5,0.6,5.6,0.6h3.5c4.2,0,6.8,0,7.6,0.1s1.4,0.3,1.8,0.6
	c0.5,0.5,0.8,1.3,0.8,2.4c0,0.9-0.2,1.6-0.6,2.1l-0.5,0.8h-14.8c-7.2,0-11.5,0-12.9-0.1c-1.4-0.1-2.2-0.2-2.5-0.6
	c-0.3-0.3-0.5-1-0.6-2.2s-0.1-4.7-0.1-10.7c0-5.9,0-9.5,0.1-10.7c0.1-1.2,0.2-1.9,0.6-2.2c0.3-0.3,1-0.6,2.1-0.6s3.9-0.1,8.5-0.1
	h9.9v-9.2c0-4.5,0-7.3,0.1-8.2C350.4,77.1,350.6,76.5,351,76.1z M13,138.9c0.5-0.1,2-0.1,4.5-0.1c0.3,0,0.6,0,1.1,0
	c1.7,0,2.7,0.3,3.1,0.7c0.6,0.6,0.9,2.9,0.9,6.7c0,0.5,0,1,0,1.6v4.8v12.2l0.9,2.2c0.5,1.3,1.3,2.5,2.3,3.7c1,1.2,2,2,3,2.5
	c1,0.5,2.3,0.8,4,0.8c1.8,0,3.1-0.3,4-0.8c1.6-0.9,3-2.3,4.3-4.4c1.2-2,1.9-3.9,1.9-5.6v-0.5c0-0.8-0.3-1.2-0.7-1.2
	c-0.4,0-1,0.5-1.8,1.6c-0.8,1.1-1.4,1.7-1.8,1.7c-0.6,0-2-0.9-4.3-2.8c-2.3-1.9-3.4-3.1-3.4-3.5c0-0.3,1.2-2.5,3.7-6.4
	c2.5-3.9,4-6.2,4.6-6.8l0.8-0.9h5.7c2.6,0,4.2,0,4.9,0.1c0.7,0.1,1.2,0.2,1.4,0.6c0.3,0.3,0.5,2,0.5,5c0,2.4,0,4.6-0.1,6.4
	c0,5.2-0.1,8.5-0.2,9.7c-0.1,1.2-0.4,2.5-0.8,3.9c-1.5,4.5-3.8,7.8-6.8,9.9c-3,2.1-7,3.1-12.1,3.1H32c-2,0-3.7-0.2-4.9-0.5
	c-1.3-0.3-2.8-0.9-4.7-1.7c-4.7-2.3-8-6.2-10.1-11.8l-0.9-2.5l-0.1-13.2c0-2.2-0.1-4.8-0.1-7.7c0-3.7,0.2-5.7,0.5-6
	C12.1,139.3,12.5,139,13,138.9z M89.1,139.5c1.5-0.3,5.2-0.5,11-0.5h3.2l12.2,0.1v31.5h-12.2c-6.7,0-10.9-0.1-12.4-0.3
	c-1.6-0.2-3.4-0.8-5.4-1.9c-4.1-2.1-6.8-5.4-8.3-9.9c-0.3-1.2-0.5-2.7-0.5-4.5c0-2.2,0.2-3.9,0.6-5.1
	C78.8,144.1,82.7,140.9,89.1,139.5z M87.9,178.3c0.3-0.3,4.8-0.5,13.5-0.5c8.7,0,13.2,0.1,13.5,0.3c0.3,0.1,0.4,1.1,0.4,2.8v1.3
	l-0.1,3.8H87.7l-0.1-3.6v-1.6C87.6,179.4,87.7,178.5,87.9,178.3z M103.3,148.1c-0.3-0.3-1.2-0.5-2.9-0.5c-3.7,0-6.3,0.4-7.7,1.2
	c-1,0.5-1.8,1.3-2.4,2.3c-0.6,1-0.9,2.1-0.9,3.3c0,0.4,0,0.8,0.1,1c0.3,2,1.1,3.5,2.3,4.5c1.2,1.1,3.5,1.6,6.8,1.6h1.5l3.5-0.1
	l0.1-6.5v-2.8C103.6,149.8,103.5,148.4,103.3,148.1z M140,147c0.3-0.3,0.8-0.4,1.7-0.5c0.8-0.1,2.8-0.1,5.8-0.1
	c4.6,0,7.1,0.2,7.5,0.6c0.3,0.3,0.5,2.3,0.5,5.8c0,3.6-0.1,5.4-0.4,5.7c-0.3,0.2-1.5,0.4-3.4,0.5l-3,0.1v4.8c0,3.3,0.3,5.4,0.6,6
	c0.6,1,1.3,1.9,2.1,2.6c0.8,0.7,1.6,1.1,2.3,1.1c0.4,0,0.8,0.2,1.2,0.6c0.3,0.2,0.4,0.7,0.5,1.3c0.1,0.7,0.1,2.2,0.1,4.6
	c0,2.7-0.1,4.5-0.2,5.2c-0.1,0.7-0.5,1.1-1.1,1.1c-0.2,0-0.7-0.1-1.6-0.3c-3.1-0.6-5.8-2.2-8.1-4.6c-2.3-2.4-3.8-5.3-4.5-8.7
	c-0.3-1.6-0.5-6.1-0.5-13.7c0-5.1,0-8.3,0.1-9.6C139.6,148.1,139.7,147.3,140,147z M165.5,146.7c0.4-0.3,3-0.4,7.9-0.4
	c3.9,0,6.1,0.1,6.6,0.3c0.3,0.2,0.5,0.9,0.6,2.1c0.1,1.3,0.1,4.8,0.1,10.7c0,8.3-0.2,13.2-0.5,14.7c-0.5,2.5-1.5,4.7-2.8,6.6
	c-1.4,1.9-3,3.3-4.9,4.2c-1.3,0.6-2.9,1-4.6,1H165l-0.1-5.7v-2.3c0-2.3,0.1-3.6,0.3-3.8c0.2-0.2,0.8-0.5,1.8-0.8
	c1.9-0.5,3.2-1.8,4.1-3.8c0.5-1.3,0.8-3.7,0.8-7.5c0-1.7-0.1-2.7-0.3-2.9c-0.3-0.3-1.4-0.5-3.2-0.5c-1.8,0-2.9-0.1-3.1-0.4
	c-0.3-0.3-0.4-2.2-0.4-5.9c0-2.4,0-4,0.1-4.6C165,147.3,165.2,146.9,165.5,146.7z M204.7,137.4c0.5-0.3,2-0.5,4.5-0.5h0.4
	c2.3,0,3.7,0.2,4.1,0.6c0.4,0.4,0.6,1.8,0.6,4.3c0,2.4-0.2,3.8-0.7,4.2c-0.4,0.4-1.9,0.6-4.5,0.6c-1.9,0-3.1,0-3.4-0.1
	c-0.4-0.1-0.8-0.3-1.1-0.8c-0.4-0.6-0.7-1.4-0.7-2.4c0-0.7,0-1.4,0.1-1.9C204,139,204.3,137.7,204.7,137.4z M204.4,149.1
	c0.3-0.3,0.7-0.6,1.3-0.6c0.6-0.1,2.3-0.1,5.1-0.1c3.3,0,5.8,0.1,7.5,0.4c1.7,0.3,3.3,0.7,4.7,1.4c2.6,1.2,4.4,3.1,5.7,5.5
	c0.3,0.7,0.6,1.3,0.7,1.6c0.1,0.3,0.2,0.7,0.3,1.3c0.1,0.5,0.1,1.3,0.1,2.2v1.6v4.5h6.2c4.2,0,6.6,0.1,7.1,0.4
	c0.4,0.2,0.6,0.5,0.7,1c0.1,0.4,0.2,1.7,0.2,3.7v1.4c0,1.9-0.1,2.9-0.4,3.1c-0.3,0.2-3,0.4-8,0.5l-7.5,0.1l-0.1,4.7
	c0,2.1-0.1,3.4-0.2,4c-0.1,0.6-0.2,0.9-0.5,1.1c-0.3,0.3-2,0.5-4.8,0.5c-2.8,0-4.4-0.2-4.8-0.6c-0.3-0.3-0.5-0.9-0.5-1.8
	c0-0.9-0.1-3.6-0.1-8s0-7.1,0.1-8.2c0.1-1,0.3-1.9,0.7-2.6c0.5-0.9,0.7-2,0.7-3.2c0-1.3-0.3-2.3-0.8-2.9c-0.4-0.4-0.9-0.7-1.4-0.7
	c-0.5-0.1-2.3-0.1-5.2-0.1c-2.9,0-4.6,0-5.2-0.1s-1.1-0.3-1.5-0.7c-0.4-0.4-0.6-0.8-0.7-1.2c-0.1-0.4-0.1-1.5-0.1-3.3
	C203.9,151.2,204.1,149.6,204.4,149.1z M282.7,139.2c0.5,0,1.4-0.1,2.5-0.1c2.6,0,4.2,0.1,4.9,0.3c0.3,0.1,0.4,2.7,0.4,7.8
	c0,5.1,0.1,7.7,0.3,7.9c0.2,0.1,0.8,0,1.8-0.4c1-0.4,2.9-0.6,5.7-0.6c1.9,0,3.2,0.1,3.8,0.2c0.6,0.1,1.4,0.4,2.3,0.8
	c1.7,0.9,3.3,2.3,4.7,4.2c1.4,1.9,2.4,4.1,3.1,6.4c0.3,1.1,0.6,3.4,0.8,6.8c0.2,3.4,0.4,6.4,0.4,9.2c0,2.4-0.1,3.7-0.3,4
	c-0.1,0.1-1.8,0.2-4.9,0.3l-4.7,0.1l-0.2-5.8c-0.1-3.3-0.3-5.7-0.6-7.1s-0.9-2.5-1.7-3.3c-1-1.1-2.5-1.7-4.4-1.7
	c-1.2,0-2.4,0.3-3.6,0.9c-0.8,0.4-1.5,1.2-2.2,2.2c-0.7,1.1-1.2,2.1-1.3,3.1c-0.3,1.9-1,3-2.2,3.2c-0.4,0.1-0.8,0.1-1,0.1
	c-0.9,0-2-0.5-3.3-1.4c-1.4-0.9-4-2.9-7.8-6c-5.7-4.6-9.2-7.5-10.3-8.6l-1.9-1.8v-6.5c0-4.3,0.1-6.4,0.3-6.4c0.2,0,2.9,2.2,8,6.5
	c5.1,4.3,7.7,6.4,8,6.4c0.2,0,0.4-3.4,0.5-10.3l0.1-10.1L282.7,139.2z M340.7,161.6c7.8-5.9,11.9-8.9,12.2-8.9s0.9,0.4,2,1.2
	c1,0.8,1.5,1.2,1.7,1.2c0.1,0,3.3,2.4,9.6,7.4l9.4,7.4l0.1,7v2.9c0,2.7-0.1,4.1-0.2,4.1c-0.2,0-2.3-1.7-6.2-5c-3.6-3.1-5.9-5-7-5.7
	c-1.1-0.8-2.6-2-4.7-3.8c-2.3-1.9-3.5-2.8-3.8-2.8h-0.1c-0.2,0.1-3.9,2.9-11.2,8.5c-7.3,5.5-11.7,8.9-13,9.9
	c-0.3,0.3-0.6,0.2-0.8-0.1c-0.2-0.3-0.3-2.6-0.3-6.8c0-4.2,0.1-6.5,0.3-7C328.9,170.7,332.9,167.5,340.7,161.6z M362.8,139.4
	c0.2-0.3,2.8-0.5,7.7-0.5c3.2,0,4.7,0.1,4.7,0.4c0,0.5-0.8,2.9-2.3,7c-1.5,4.1-2.4,6.3-2.7,6.5c-0.3,0.2-2.4,0.3-6,0.3
	c-3.9,0-5.8-0.2-5.8-0.5c0-0.5,0.6-2.7,2-6.6C361.7,141.9,362.5,139.8,362.8,139.4z M38,201c1.7-0.2,3.4-0.3,5-0.3
	c2.5,0,4.9,0.2,7.1,0.6c2.2,0.4,3.6,0.9,4.2,1.4c0.4,0.4,0.6,0.8,0.6,1.4c0,0.7-0.4,1.7-1.2,2.9c-0.8,1.2-1.4,2-1.9,2.4
	c-0.5,0.4-1.1,0.6-1.9,0.6c-0.6,0-1.4-0.1-2.3-0.2c-1-0.1-2.1-0.2-3.1-0.2c-4.2,0-7.8,1.5-10.5,4.4c-2.6,2.7-3.9,6.1-3.9,10.2
	c0,0.8,0.1,1.7,0.2,2.5c0.3,2.1,0.7,3.8,1.3,5.1c0.6,1.3,1.5,2.6,2.7,3.8c2.7,2.7,6.4,4,11,4c2,0,3.3,0.3,4,0.8c1.2,1,2,2.6,2.5,4.8
	c0,0.1,0.1,0.2,0.1,0.4c0,0.4-0.3,0.9-0.9,1.5l-1,1l-5.3,0.1c-0.3,0-0.8,0-1.4,0c-0.6,0-1,0-1.2,0c-1.9,0-3.9-0.2-6-0.6
	c-4.4-0.9-8.2-2.7-11.2-5.5c-3.1-2.8-5.2-6.2-6.4-10.3c-0.6-2.2-0.9-4.7-0.9-7.6c0-1.7,0.1-3.2,0.4-4.4c0.2-1.1,0.3-2,0.3-2.9
	c0-1.8-0.3-2.9-1-3.4c-0.5-0.3-1.7-0.5-3.6-0.5c-1.4,0-2.3,0-2.7-0.1c-0.4-0.1-0.7-0.3-1.1-0.7c-0.3-0.3-0.6-0.7-0.7-1.1
	c-0.1-0.4-0.2-1.2-0.2-2.4v-0.6c0-2,0.5-3.2,1.4-3.6c0.9-0.4,3.9-0.6,8.8-0.6h0.8c4.4,0,7,0,7.9-0.1c0.9-0.1,1.7-0.3,2.5-0.7
	C32.5,202.2,35,201.4,38,201z M72.3,233.5c0-0.1,0.9-2.2,2.8-6.5c1.9-4.2,3.8-8.5,5.7-12.8c1.9-4.3,2.9-6.6,3-6.9
	c0-0.2,0.6-1.6,1.8-4.3l1.6-3.8l7.2,0.1l7.2,0.1l0.2,15.5l0.1,15.6l0.7-1.5c1.3-2.7,2.7-6.1,4.4-10l3.6-8.4h8.6l0.3,1
	c0.1,0.2,0.1,0.3,0.1,0.5c0,0.8-2,5.6-6,14.4c-4.2,9.3-6.3,14.2-6.4,14.6c-0.1,0.5-0.5,1.6-1.3,3.3l-1.1,2.5h-7
	c-4.7,0-7.1-0.1-7.4-0.4c-0.3-0.3-0.4-5.4-0.4-15.5c0-10-0.1-14.9-0.2-14.8c0,0-1.5,3.3-4.3,9.7l-4,9.4l-4.2,0.1l-4.2,0.1l-0.4-0.8
	C72.5,234.2,72.3,233.8,72.3,233.5z M159,199.3c0.1-0.2,0.4-0.3,0.7-0.3c0.5,0,4.1,1.1,10.8,3.3c6.7,2.2,10.2,3.4,10.3,3.6
	c0.1,0.1,0.1,0.8,0.1,2c0,1.4,0,2.6-0.1,3.4c-0.1,2.3-0.2,3.7-0.3,4.3c-0.1,0.6-0.3,1.1-0.5,1.3c-0.3,0.3-4.8,1.3-13.3,3
	c-8.3,1.6-12.4,2.6-12.4,2.7c0,0.1,2,0.8,6.1,2.1c4.1,1.3,8.2,2.7,12.4,4.1c4.2,1.4,6.3,2.1,6.5,2.2c0.2,0.2,0.3,1.3,0.3,3.4
	c0,4.7-0.2,7.3-0.7,7.9c-0.2,0.2-3.7,0.9-10.5,2.3c-6.8,1.4-10.6,2-11.2,2h-0.1c-0.2,0-0.3-0.9-0.3-2.7c0-3.8,0.2-5.9,0.7-6.5
	c0.3-0.3,1.7-0.6,4.3-1.1c2.7-0.5,4-0.8,4-0.9c0,0-0.1-0.1-0.3-0.2c-3.8-1.3-9.6-3.1-17.4-5.5c-5.5-1.6-8.5-2.7-8.8-3.1
	c-0.2-0.2-0.3-1-0.3-2.4c0-1.5,0.1-3.1,0.3-4.7c0.2-1.6,0.4-2.5,0.6-2.7c0.3-0.2,4.9-1.2,13.6-3c8.8-1.8,13.2-2.7,13.3-2.8
	c0,0,0-0.1-0.1-0.1c-0.1,0-0.3-0.1-0.5-0.2c-0.2-0.1-0.4-0.2-0.7-0.3c-0.3-0.1-0.6-0.2-0.9-0.3c-0.4-0.1-0.7-0.2-1.1-0.3
	c-2.6-0.7-4.2-1.2-4.6-1.6c-0.4-0.4-0.6-1.1-0.6-2.1c0-0.3,0-1.1,0.1-2.5C158.7,200.9,158.9,199.4,159,199.3z M218.3,204.2
	c1.3-0.3,3-0.5,4.9-0.5c3.7,0,7.1,0.7,10.1,2c1.6,0.7,2.3,1.5,2.3,2.4c0,0.9-0.7,2.6-2,5c-1,1.7-1.7,2.9-2.2,3.5s-1.1,0.9-1.8,0.9
	c-0.5,0-1-0.1-1.5-0.3c-1.6-0.5-2.6-0.8-3.1-1c-1.1-0.3-2.4-0.5-4.1-0.5c-1.8,0-3.2,0.2-4.2,0.5c-1.5,0.5-2.9,1.6-4.2,3.1
	c-1.3,1.6-3.1,4.5-5.6,9c-2,3.6-3.3,5.8-3.8,6.6c-0.5,0.8-1,1.2-1.5,1.3h-0.2c-0.6,0-1.1-0.4-1.4-1.1c-0.3-0.8-0.4-2.2-0.5-4.4v-1.3
	c0-3.7,0.9-7.4,2.8-11.1c1.8-3.7,4.1-6.8,6.9-9.3C212,206.6,215,205,218.3,204.2z M247.2,218.8c0.2-0.2,0.4-0.3,0.6-0.3
	c0.3,0,0.5,0.5,0.6,1.5c0.1,1,0.1,3.1,0.1,6.4v7.9l-1.5,2.8c-1.9,3.6-4.1,6.6-6.9,8.9c-2.7,2.3-5.7,3.9-8.9,4.6
	c-1.6,0.3-3.2,0.5-4.7,0.5c-4,0-7.5-0.8-10.4-2.3c-1.3-0.7-2-1.4-2-2.1c0-0.7,0.7-2.3,2-4.8c1.3-2.4,2.2-3.8,2.6-4.2
	c0.3-0.3,0.8-0.4,1.3-0.4c0.7,0,1.9,0.3,3.5,0.8c1.8,0.6,3.6,0.9,5.5,0.9c1.5,0,2.8-0.2,4-0.6c1.6-0.5,3-1.5,4.3-3.1
	c1.3-1.5,3.1-4.5,5.5-8.9C245.4,221.6,246.9,219,247.2,218.8z M267.8,203c0.4-0.3,1.9-0.4,4.5-0.4c2.6,0,4.2,0.2,4.6,0.6
	c0.5,0.4,0.7,1.9,0.7,4.5v3.8l8,5.3c5.3,3.5,8.3,5.4,9.2,5.7c0.7,0.2,3.1,0.3,7,0.3c3.9,0,6,0.2,6.3,0.5c0.3,0.3,0.5,1.8,0.5,4.4
	v1.2c0,1.7-0.3,2.8-0.8,3.1c-0.5,0.3-2.2,0.5-4.9,0.5h-2h-6.3c-6.3,4.1-11.9,7.7-16.8,10.7l-0.1,3.2c-0.1,2-0.3,3.2-0.5,3.6
	c-0.3,0.3-2,0.5-5.1,0.5c-2.7,0-4.2-0.1-4.5-0.4c-0.3-0.3-0.4-2.3-0.4-6.2c0-2.6,0-4.2,0.1-4.9c0.1-0.7,0.2-1.2,0.5-1.5
	c0.5-0.5,3.3-2,8.3-4.4c3.6-1.7,5.9-3,7.1-3.7c1.2-0.7,1.8-1.3,1.8-1.7c0-0.1,0-0.2-0.1-0.4c-0.2-0.4-2.8-2-7.7-4.9
	c-4.3-2.6-7.2-4.4-8.6-5.3l-1.4-0.9v-6.4c0-2.9,0-4.6,0.1-5.4C267.4,203.7,267.5,203.2,267.8,203z M323.4,222.7v-20h3.1
	c1.4,0,2.3,0,2.6,0.1c0.4,0.1,0.7,0.3,0.9,0.6c0.2,0.3,0.3,0.6,0.3,0.9c0,0.5-0.1,1-0.3,1.7c-0.3,1.3-0.5,2.7-0.5,4.2
	c0,1.1,0.1,2.1,0.3,2.9c0.3,0.9,0.9,1.7,1.7,2.5c0.8,0.7,1.6,1.1,2.3,1.1c0.3,0,0.5,0,0.7-0.1c0.5-0.3,1.2-1.3,2.1-3.2
	c1.1-2,2.6-3.9,4.5-5.8c1.9-1.8,3.4-2.8,4.4-2.8c0.1,0,0.3,0,0.5,0.1c0.3,0.2,0.4,0.6,0.5,1.2c0,0.6,0.1,2.3,0.2,5c0,0.6,0,1.2,0,2
	c0,0.8,0,1.3,0,1.5c0,0.4,0,0.8,0,1c0,0.3,0,0.5-0.1,0.8c-0.1,0.3-0.1,0.5-0.2,0.6c0,0.1-0.1,0.4-0.3,0.7c-0.2,0.3-0.3,0.5-0.4,0.7
	c-0.1,0.1-0.3,0.4-0.6,0.9c-0.3,0.5-0.6,0.8-0.7,1c-0.6,0.7-1.1,1.9-1.5,3.4c-0.3,1-0.4,2-0.4,2.9c0,2.5,1,5.2,3.1,8l1.2,1.6v5.8
	c0,2.6-0.1,4.3-0.2,5.2c-0.2,0.9-0.5,1.4-0.9,1.4c-0.4,0-1.4-0.5-2.8-1.5c-3.4-2.4-5.8-5.7-7.4-10.1c-0.3-1.1-0.7-2.6-1.1-4.6
	c-0.4-2.1-0.7-3.3-1-3.6c-0.3-0.3-0.9-0.6-2-0.8c-3-0.7-5.3-2.1-6.9-4.4L323.4,222.7z M355.9,204.3c0.2-0.1,0.3-0.1,0.5-0.1
	c1,0,2.8,1.2,5.3,3.7c2.9,3,4.9,6.8,5.8,11.5c0.4,2.2,0.8,3.6,1,4.1c0.3,0.5,0.8,0.9,1.7,1.1c3.3,0.8,5.8,2.4,7.5,4.7
	c1.6,2.3,2.6,5.5,2.8,9.6c0,0.2,0,0.4,0,0.8c0,0.3,0,0.6,0,0.8c0,4.8-0.4,7.7-1.2,8.9c-0.2,0.3-0.5,0.6-0.9,0.6
	c-0.4,0.1-1.4,0.1-2.9,0.1c-1.6,0-2.6,0-2.9-0.1c-0.3-0.1-0.6-0.3-0.8-0.7c-0.3-0.5-0.3-1.1,0-1.9c0.4-1.2,0.7-2.5,0.7-4
	c0-2.6-0.6-4.4-1.7-5.7c-0.9-1-1.7-1.4-2.4-1.4c-0.9,0-1.9,1-3,3.1c-1.1,2.1-2.6,4.1-4.5,5.9c-1.9,1.9-3.4,2.8-4.4,2.8
	c-0.2,0-0.4,0-0.5-0.1c-0.3-0.2-0.6-0.6-0.6-1.2c-0.1-0.6-0.1-2.3-0.1-5.1c0-3.1,0.1-5.1,0.3-5.9c0.2-0.8,0.7-1.7,1.6-2.8
	c1.4-1.7,2.1-3.9,2.1-6.6c0-0.1,0-0.3,0-0.6c0-0.2,0-0.4,0-0.6c-0.1-1.5-0.3-2.7-0.6-3.5c-0.3-0.8-1-1.9-2-3.3l-1.3-1.8v-6.1
	c0-2.7,0-4.4,0.1-5.1C355.5,205,355.7,204.5,355.9,204.3z M36,267.3c1.6-0.3,3.6-0.5,6-0.5h2.3c2.6,0,4.2,0.1,4.8,0.2
	c0.6,0.1,1.2,0.2,1.6,0.6c0.6,0.4,1,0.8,1.3,1.2c0,0,0.1,0.2,0.1,0.4c0,0.6-0.3,1.5-0.8,2.6c-0.5,1.1-1.1,2-1.6,2.6
	c-0.5,0.6-1,0.9-1.3,1c-0.4,0.1-1.3,0.1-2.8,0.1c-4.8,0-8.5,1.3-11.2,4c-2.8,2.8-4.2,6.5-4.2,11.1c0,2.2,0.4,4.4,1.2,6.6
	c0.5,1.3,1.4,2.6,2.7,4c1.3,1.4,2.7,2.4,4,3c2.1,1,4.4,1.4,6.8,1.4c0.9,0,1.7-0.1,2.5-0.2c1.6-0.2,2.7-0.3,3.2-0.3
	c0.8,0,1.8,0.8,2.9,2.3c1.2,1.5,1.8,2.8,1.8,3.8c0,0,0,0.1,0,0.2c0,0.1,0,0.2,0,0.2c-0.4,1.8-4.2,2.7-11.3,2.7
	c-5.3,0-9.6-0.7-12.8-2.2l-2.1-1H20h-1.6c-1.5,0-2.7,0-3.4,0c-0.8,0-1.6,0-2.4-0.1c-0.8,0-1.4-0.1-1.7-0.3c-0.3-0.2-0.6-0.3-1-0.5
	c-0.3-0.2-0.6-0.4-0.6-0.8c-0.1-0.4-0.1-0.7-0.2-1c0-0.3-0.1-0.8-0.1-1.5v-0.6c0-1.2,0.1-2,0.2-2.4c0.1-0.4,0.3-0.8,0.7-1.1
	c0.3-0.4,0.7-0.6,1.1-0.7c0.4-0.1,1.3-0.1,2.7-0.1c1.9,0,3-0.2,3.5-0.5c0.6-0.4,1-1.6,1-3.4c0-0.8-0.1-1.8-0.3-3.1
	c-0.3-1.3-0.4-2.8-0.4-4.6c0-2.7,0.3-5,0.8-6.8c1-3.6,2.7-6.8,5.2-9.4c1.9-2,3.7-3.5,5.6-4.5C30.9,268.7,33.2,267.9,36,267.3z
	 M72.2,25.9L72.1,9h16c10.6,0,16.7,0.2,18.4,0.5c8,1.7,12.4,7.4,13.1,17.2c0,0.5,0.1,1.1,0.1,1.8c0,1.1-0.3,1.7-0.8,2
	c-0.5,0.2-1.8,0.4-3.7,0.4c-2,0-3.2-0.2-3.6-0.5c-0.4-0.3-0.8-1.2-1-2.7c-0.3-2.3-1.1-4-2.5-4.9c-0.9-0.6-2-1.1-3.3-1.3
	c-1.4-0.2-3.7-0.3-7.1-0.3h-3.9l-9.3,0.1l-0.1,8.2v3.2c0,5.3,0.3,8.9,1,10.8c0.6,1.9,2,3.2,3.9,3.8c1.2,0.4,2,0.9,2.3,1.4
	c0.3,0.6,0.5,1.7,0.5,3.4c0,2-0.2,3.2-0.6,3.8c-0.3,0.4-0.8,0.6-1.3,0.6c-0.6,0-1.1,0-1.5-0.1c-1.4-0.1-3.1-0.5-4.9-1
	c-1.8-0.6-3.2-1.1-4.2-1.8c-3-1.9-5.2-4.8-6.4-8.4c-0.3-1-0.6-2.4-0.6-4.1C72.4,39.3,72.3,34.3,72.2,25.9z M152.1,10.2
	c9.7-0.1,15.2-0.2,16.4-0.2h0.9c1.9,0,2.9,0.1,3.2,0.4c0.3,0.3,0.5,1.7,0.5,4.1c0,1.7,0,2.8-0.1,3.2c-0.1,0.5-0.3,0.9-0.6,1.2
	c-0.3,0.3-1.2,0.5-2.8,0.5c-1.5,0-6.2,0.1-13.9,0.2c-2.6,0-5.7,0.1-9.3,0.1c-4.5,0-6.8-0.2-7.1-0.5c-0.3-0.4-0.5-2.3-0.5-5.6
	c0-1.9,0.1-2.9,0.3-3.1C139.3,10.4,143.6,10.3,152.1,10.2z M161.7,30.1c2.2,0,4.5-0.1,6.8-0.1c2.3,0,4.1-0.1,5.4-0.1
	c1.3,0,2.2,0,2.9,0c1.6,0,2.8,0.1,3.4,0.3l0.9,0.3l-0.1,4.1l-0.1,4.1l-3.5,0.1c-2.3,0-3.6,0.3-3.9,0.6c-0.3,0.3-0.4,3.4-0.5,9.1
	c0,5.7-0.2,8.7-0.5,9c-0.3,0.3-6.9,0.4-20,0.4c-8.6,0-13-0.1-13.3-0.3c-0.3-0.2-0.5-1.8-0.5-4.8c0-2.2,0.1-3.5,0.4-3.8
	c0.3-0.3,4.4-0.5,12.4-0.6l12-0.1l0.1-4.2v-1.8c0-1.7-0.1-2.6-0.3-2.9c-0.3-0.3-2.1-0.5-5.7-0.5c-3.6,0-5.4-0.2-5.5-0.5
	c-0.1-0.4-0.2-1.5-0.2-3.3c0-2.7,0.1-4.2,0.3-4.5C152.5,30.4,155.6,30.2,161.7,30.1z M203.2,10.8c0.1-0.3,1-0.4,2.8-0.4h3.3l6,0.1
	l0.1,6.7c0.1,3.2,0.2,5.2,0.3,6c0.1,0.8,0.4,1.6,0.7,2.4c0.5,1.1,1.3,2,2.5,2.7c0.8,0.5,1.5,0.8,2,0.9c0.5,0.1,1.6,0.2,3.2,0.2
	c1.6,0,2.7,0,3.2-0.1c0.5-0.1,1.1-0.3,1.8-0.8c1-0.6,1.8-1.5,2.3-2.9c0.4-0.9,0.6-1.7,0.7-2.6c0.1-0.9,0.2-2.8,0.3-5.8l0.2-6.6
	l5.9-0.1h2.6c2.2,0,3.3,0.1,3.5,0.3c0.2,0.2,0.3,1.9,0.3,5c0,3.7-0.1,6.4-0.3,8.1c-0.5,3.4-1.7,6.2-3.6,8.5
	c-1.9,2.3-4.5,3.9-7.6,4.9l-2.9,0.9c0,2.2,0,5.4-0.1,9.8c0,4.4-0.1,7.6-0.1,9.8L218,57.8h-5.4c-4.7,0-7.2-0.1-7.4-0.3
	c-0.3-0.3-0.5-1.6-0.5-4.2c0-2.4,0.1-3.8,0.3-4.1c0.2-0.3,2.4-0.5,6.6-0.5l6.4-0.1l0.1-5.3l0.1-5.3l-0.9-0.3
	C210.4,36.4,206,32.8,204,27c-0.5-1.5-0.8-4.4-0.9-8.9c0-0.6,0-1.3,0-2.3c0-1,0-1.6,0-2C203.1,12,203.1,11,203.2,10.8z M287.9,10.9
	c1.7-0.3,3.9-0.5,6.4-0.5c2.3,0,4.3,0.2,5.9,0.5c1.2,0.3,2.8,0.8,4.7,1.7c1.9,0.8,3.1,1.5,3.6,2c0.3,0.3,0.4,0.7,0.5,1.4
	c0,0.7,0.1,2.3,0.1,4.9c0,2.3,0,3.9-0.1,4.7c-0.1,0.8-0.3,1.2-0.6,1.2c-0.3,0-0.9-0.4-1.7-1.2c-2.5-2.4-4.8-4-6.8-4.8
	c-1.2-0.5-2.6-0.7-4.2-0.7c-2.1,0-4.2,0.4-6.2,1.3c-2.1,0.9-3.7,2.1-5,3.6c-2.5,2.9-3.7,6.8-3.8,11.7v0.7c0,1.2,0.2,1.9,0.5,2.2
	c0.3,0.2,1.3,0.4,2.9,0.4h1.4c2.8,0,4.3,0.1,4.7,0.3c0.2,0.2,0.3,1.9,0.3,5.1V49l-0.1,8.7h-13.1l-0.1-3.8c0-2.5-0.2-3.9-0.5-4.1
	c-0.3-0.2-2-0.3-5-0.3h-4.6v-8c0-4.4,0.2-7.5,0.4-9.5c0.2-1.9,0.7-3.9,1.4-5.7c1.5-4.1,3.9-7.4,7.2-10.1
	C279.2,13.6,283.2,11.8,287.9,10.9z M347.5,21.8c7.1-7.2,10.7-10.9,11-10.9c0.3,0,0.6,0.1,0.8,0.3c0.2,0.1,0.7,1.4,1.3,3.9
	c0.7,2.5,1,4.1,1.1,4.8c0,0.6-1.6,2.4-4.9,5.6c-3,2.9-4.5,4.6-4.5,4.9c0,0.1,0,0.2,0.1,0.3c0.3,0.3,1.8,0.9,4.4,1.7
	c5.8,2,8.9,3.2,9.3,3.8c0.3,0.7,0.7,2.1,1.2,4.4c0.5,2,0.7,3.2,0.7,3.6c0,0.3-0.1,0.5-0.2,0.6c-0.1,0.1-0.2,0.1-0.4,0.1
	c-0.8,0-3.1-0.7-7-2.1h-0.1c0,0,0,0.1,0.1,0.3c0.1,0.2,0.3,0.5,0.6,0.9c0.3,0.4,0.6,0.8,0.9,1.3c1.2,1.4,3.1,3.9,5.8,7.3
	c2.4,3.1,3.6,4.9,3.6,5.2c0,0.3-1.7,0.5-5.2,0.6h-1.5c-2.4,0-3.8-0.1-4.2-0.3c-0.5-0.3-1.9-2.1-4.3-5.4c-2.4-3.3-3.9-5-4.4-5
	c-0.5,0-1.9,1.6-4.2,4.7c-2,2.8-3.4,4.6-4.2,5.4c-0.4,0.3-1.5,0.5-3.4,0.5h-2.2c-3.4-0.1-5.1-0.3-5.1-0.6c0-0.3,1.7-2.6,5-7
	c3.4-4.4,6.3-8.2,8.9-11.4c0.6-0.8,0.8-1.2,0.6-1.4c-0.3-0.2-2-0.8-4.9-1.9c-2.4-0.9-3.9-1.5-4.5-1.9c-0.6-0.3-0.9-0.7-0.9-1.1
	C336.9,32.9,340.4,29.1,347.5,21.8z M94.1,267.5c0.1-0.1,1.4-0.1,4-0.1h2.7l6.4,0.1l0.1,3.9c0,2.5,0.2,3.9,0.5,4.1
	c0.3,0.2,2,0.3,5,0.3h4.7l-0.1,9.2c0,5-0.2,8.3-0.5,10c-0.3,1.7-0.9,3.7-2,5.9c-3,6.5-8.3,10.9-15.9,13.1c-2.1,0.6-4.7,1-7.9,1.1
	c-0.3,0-0.6,0-1.1,0c-0.5,0-0.8,0-1,0c-2.3,0-4.2-0.2-5.8-0.6c-1.5-0.4-3.3-1-5.2-2l-3.2-1.6l-0.1-6v-2.7c0-2.3,0.2-3.4,0.5-3.5h0.1
	c0.4,0,1.4,0.7,2.9,2c3.5,3.2,6.9,4.8,10.3,4.8c1,0,2.3-0.2,3.6-0.5c6.1-1.6,9.8-5.5,11.2-11.8c0.3-1.7,0.5-3.5,0.5-5.2
	c0-1-0.1-1.7-0.2-2.1c-0.1-0.3-1.6-0.5-4.4-0.5c-2.8,0-4.3-0.1-4.7-0.2c-0.2-0.1-0.4-0.6-0.4-1.6s-0.1-3.4-0.1-7.2
	C93.9,270.6,94,267.6,94.1,267.5z M162.2,263.7c0.4-0.3,0.9-0.5,1.6-0.6c0.6-0.1,2.2-0.1,4.6-0.1c2.6,0,4.2,0,4.7,0.1
	c0.5,0.1,1,0.3,1.5,0.8l0.9,0.9v45.8l-0.8,0.8c-0.4,0.4-0.9,0.6-1.5,0.7c-0.6,0.1-2.2,0.1-4.8,0.1h-2.7c-2,0-3.2-0.3-3.6-0.9
	c-0.4-0.6-0.6-2.3-0.6-5v-4c0-5.6-0.1-8.5-0.3-8.6c0,0-0.1-0.1-0.1-0.1c-0.3,0-1.1,0.2-2.3,0.7c-3.6,1.4-6.9,2.1-9.9,2.1
	c-1.6,0-2.6-0.2-3.1-0.7c-0.3-0.3-0.6-0.8-0.6-1.2c-0.1-0.5-0.1-1.7-0.1-3.6c0-2.5,0.2-4,0.6-4.6c0.4-0.5,1.5-0.9,3.4-1
	c2.8-0.2,5.6-1.3,8.6-3.3c1.2-0.8,1.9-1.3,2.2-1.5c0.3-0.2,0.6-0.7,1-1.4c0.4-0.7,0.6-1.5,0.6-2.2c0-0.7,0-2.1,0-4v-1.4v-7.1
	L162.2,263.7z M228.9,263.8c0.4-0.3,0.9-0.5,1.3-0.5c0.7,0,2,0.7,3.9,2.1c2,1.6,3,2.8,3,3.7c0,0.3-0.1,0.7-0.3,1
	c-0.2,0.5-1.4,2.1-3.4,4.6c-2.1,2.6-3.5,4.2-4.3,5l-1,1l-6-0.1c-3.5,0-5.7-0.2-6.6-0.5c-0.9-0.3-2-1.1-3.1-2.5
	c-0.9-1.1-1.4-2.1-1.4-2.9c0-0.6,0.1-1,0.3-1.3c0.2-0.3,0.6-0.8,1.3-1.5c1-0.9,2-1.5,3-1.9c1-0.3,2.4-0.5,4.3-0.5h0.6
	c0.3,0,0.6,0,1.1,0s0.8,0,0.9,0c0.8,0,1.3,0,1.4-0.1c0.8-1.1,1.8-2.3,2.9-3.6C227.9,264.8,228.6,264,228.9,263.8z M280.2,264.1
	l0.8-1.1h9.8l2.1,1.6c1.6,1.3,2.6,2.2,3.1,2.7l1,1l-0.1,6c-0.1,3.5-0.3,5.7-0.5,6.6c-0.3,0.9-1.1,1.9-2.4,3c-1.1,0.9-2.1,1.4-3,1.4
	c-0.6,0-1-0.1-1.3-0.3c-0.3-0.2-0.8-0.6-1.3-1.2c-1-1-1.6-2-1.9-2.9c-0.3-0.9-0.4-2.4-0.5-4.6c-0.1-2.6-0.2-3.9-0.2-3.9
	c-0.1-0.1-1-0.8-2.5-2c-2.6-2-3.8-3.5-3.8-4.6C279.3,265.5,279.6,264.8,280.2,264.1z M338.1,287.9c0.3-0.4,0.7-0.6,1.2-0.7
	s1.5-0.1,3.1-0.1c1.6,0,2.6,0,3.1,0.1s0.9,0.3,1.2,0.7c0.6,0.6,0.8,1.2,0.8,2c0,1,0.3,2,0.8,2.9c0.5,0.9,1.2,1.6,2,2
	c0.7,0.3,1.4,0.5,2.3,0.6c0.9,0.1,2.8,0.2,5.8,0.3c4.1,0.1,6.5,0.3,7.1,0.7c0.7,0.4,1,1.8,1,4.3v1.6c0,2.2,0,3.6-0.1,4.1
	c-0.1,0.5-0.3,1-0.7,1.4c-0.4,0.4-0.9,0.7-1.5,0.7c-0.6,0.1-2.4,0.1-5.5,0.1c-3.6,0-6.3-0.1-7.9-0.4c-1.6-0.2-3.2-0.7-4.7-1.4
	c-5.2-2.5-8.1-7.5-8.6-14.9c-0.1-1.3-0.1-2-0.1-2.2C337.4,289,337.7,288.4,338.1,287.9z M29.8,350.7c0.7-0.1,1.6-0.1,2.7-0.1h1.2
	c1.6,0.1,2.7,0.3,3.2,0.7c0.5,0.4,0.9,1.4,1.2,3c0.5,2.2,1.1,3.5,2,4c0.8,0.5,3,0.9,6.3,1c3.2,0.1,5.1,0.3,5.5,0.6
	c0.4,0.3,0.6,2.1,0.7,5.5c0,0.4,0,1,0,1.6c0,0.6,0,1.1,0,1.2c0,1-0.1,1.7-0.2,2c-0.1,0.3-0.3,0.7-0.7,1c-0.4,0.4-0.8,0.6-1.4,0.7
	s-1.9,0.1-4.1,0.1c-3.3,0-5.9-0.3-7.7-0.8c-1.8-0.5-3.4-1.5-4.9-3l-1.2-1.2l-1.4,1.5c-1,1-2.2,1.9-3.7,2.6c-1.1,0.5-2.1,0.8-2.8,0.9
	c-0.7,0.1-2.6,0.2-5.5,0.2l-6.1,0.1l-0.9-0.8l-0.8-0.9l0.1-5c0-3.3,0.2-5.2,0.5-5.5c0.2-0.2,2.4-0.5,6.4-0.7
	c2.9-0.2,4.7-0.3,5.3-0.5c0.6-0.1,1.2-0.4,1.7-0.8c1-0.9,1.6-2.4,1.9-4.6c0.2-1,0.4-1.8,0.7-2.2C28.4,351.1,29,350.9,29.8,350.7z
	 M96.5,328.4l0.8-1.5h10l-0.2,1.9c-0.8,6.8-3.7,11.4-8.6,13.8c-2.4,1.2-5.5,1.8-9.3,1.8c-1.3,0-2.1,0-2.5-0.1
	c-0.4-0.1-0.8-0.3-1.1-0.7c-0.4-0.4-0.6-0.8-0.7-1.4c-0.1-0.5-0.1-1.8-0.1-4c0-3.9,0.4-6.1,1.2-6.4c0.2-0.1,1.4-0.2,3.7-0.4
	c2.1-0.1,3.7-0.4,4.6-0.8C95.3,330.2,96,329.4,96.5,328.4z M97.5,351.5c0.6-0.1,2.2-0.2,4.9-0.3h1.3c1.3,0,2.2,0.3,2.7,0.8
	c0.4,0.4,0.6,0.8,0.7,1.3c0.1,0.5,0.1,1.8,0.1,4c0,3.9-0.4,6.1-1.2,6.4c-0.2,0.1-1.5,0.2-3.7,0.4c-2.1,0.1-3.6,0.4-4.5,0.8
	c-1,0.4-1.7,1.1-2.1,2.1c-0.5,1-0.7,1.9-0.7,2.7c0,0.8-0.3,1.5-0.8,2c-0.3,0.4-0.7,0.6-1.2,0.7c-0.5,0.1-1.5,0.1-3.1,0.1
	c-1.6,0-2.6,0-3.1-0.1c-0.5-0.1-0.9-0.3-1.2-0.7c-0.4-0.5-0.6-1-0.6-1.7c0-0.2,0-0.9,0.1-2.2c0.3-4.5,1.6-8.1,3.7-10.9
	C90.7,354,93.7,352.2,97.5,351.5z M149.5,329.2c0.3-0.4,0.7-0.6,1.2-0.7s1.5-0.1,3.1-0.1c1.7,0,2.7,0,3.1,0.1
	c0.4,0.1,0.8,0.3,1.2,0.7c0.6,0.6,0.8,1.3,0.8,2.1c0,0.8,0.2,1.6,0.7,2.6c0.5,1,1.2,1.7,2.2,2.1c1,0.4,2.5,0.7,4.6,0.8
	c1.6,0.1,2.5,0.2,3,0.3c0.4,0.1,0.8,0.4,1.1,0.7c0.3,0.4,0.6,0.8,0.6,1.4c0.1,0.5,0.1,1.9,0.1,4.2c0,2.3,0,3.7-0.1,4.2
	s-0.3,0.9-0.7,1.3c-0.3,0.4-0.7,0.6-1.1,0.7c-0.4,0.1-1.2,0.1-2.5,0.1c-3.6,0-6.7-0.6-9.2-1.8c-5.3-2.6-8.2-7.5-8.7-14.9
	c-0.1-1.3-0.1-2-0.1-2.2C148.8,330.2,149,329.6,149.5,329.2z M161.6,356.8c0.6-0.1,2.2-0.2,4.9-0.3h1.3c1.3,0,2.2,0.3,2.7,0.8
	c0.4,0.4,0.6,0.8,0.7,1.3c0.1,0.5,0.1,1.8,0.1,4c0,3.9-0.4,6.1-1.2,6.4c-0.3,0.1-1.5,0.3-3.7,0.5c-2.1,0.1-3.6,0.4-4.6,0.8
	c-1,0.4-1.7,1.1-2.1,2.1c-0.4,1-0.6,1.9-0.6,2.6c0,0.8-0.3,1.5-0.8,2.1c-0.4,0.4-0.8,0.7-1.2,0.8c-0.4,0.1-1.4,0.1-3,0.1
	c-1.5,0-2.5,0-3-0.1c-0.5-0.1-0.9-0.3-1.3-0.7c-0.5-0.5-0.8-1.5-0.8-2.9c0-2.5,0.5-5,1.4-7.5c0.9-2.5,2.1-4.5,3.5-5.9
	c1-1,2.2-1.8,3.6-2.6C158.9,357.5,160.3,357,161.6,356.8z M209.5,328.8c0.4-0.4,0.9-0.6,1.5-0.7s2.2-0.1,4.8-0.1h2.5
	c2,0,3.3,0.3,3.7,0.9s0.7,2.3,0.7,5v4c0,5.6,0.1,8.5,0.3,8.6h0.1c0.3,0,1.1-0.2,2.3-0.7c3.6-1.4,6.9-2.1,9.9-2.1
	c1.6,0,2.6,0.2,3.1,0.7c0.3,0.3,0.6,0.8,0.6,1.2c0.1,0.5,0.1,1.7,0.1,3.6c0,2.5-0.2,4-0.6,4.6s-1.5,0.9-3.4,1
	c-2.8,0.2-5.6,1.3-8.6,3.3c-1.2,0.8-1.9,1.3-2.2,1.5c-0.3,0.2-0.6,0.7-1,1.4c-0.4,0.7-0.6,1.5-0.6,2.2c0,0.7,0,2.1,0,4v1.4v7.1
	l-0.8,0.7c-0.4,0.3-0.9,0.6-1.6,0.6c-0.6,0.1-2.2,0.1-4.5,0.1h-5.3c-0.4-0.4-1-1-1.8-1.9v-45.7L209.5,328.8z"/>
</svg>
