<?xml version="1.0" encoding="utf-8"?>
<!-- Generator: Adobe Illustrator 22.1.0, SVG Export Plug-In . SVG Version: 6.00 Build 0)  -->
<svg version="1.1" id="Layer_1" xmlns="http://www.w3.org/2000/svg" xmlns:xlink="http://www.w3.org/1999/xlink" x="0px" y="0px"
	 viewBox="0 0 25 30" style="enable-background:new 0 0 25 30;" xml:space="preserve">
<style type="text/css">
	.st0{fill:none;}
	.st1{fill:#FF8600;}
</style>
<g id="Output">
	<text transform="matrix(1 0 0 1 -700.1174 -130.4224)" style="font-family:'Matrix-Code'; font-size:65.9923px;">ホア3ウ</text>
	<text transform="matrix(1 0 0 1 -480.2174 -128)" style="font-family:'MyriadPro-Regular'; font-size:65.9923px;"> </text>
	<text transform="matrix(1 0 0 1 -466.2174 -130.4224)" style="font-family:'Matrix-Code'; font-size:65.9923px;">セ¦:&quot;꞊ミラリ╌ツテニハソ▪—&lt;&gt;0|+*コシマムメモエヤキオカ7ケサスZ152ヨタワ4ネヌナ98ヒ0</text>
</g>
<g id="Cleaned_up_glyphs">
	<g id="_xA6_">
		<path d="M14.3,16.2h-3.7v10.1h3.7V16.2z M14.3,12.5V3.7h-3.7v8.8H14.3z"/>
		<rect class="st0" width="25" height="30"/>
	</g>
	<g id=":">
		<path d="M16.1,18.7H8.9V24h7.3v-5.3H16.1z M16.1,11.2V6H8.9v5.2H16.1z"/>
		<rect class="st0" width="25" height="30"/>
	</g>
	<g id="_x7C_">
		<path d="M14.4,3.3h-3.8v23.4h3.8V3.3z"/>
		<rect class="st0" width="25" height="30"/>
	</g>
	<g id="_x2014_">
		<path d="M22.5,16.8v-3.6h-20v3.6H22.5z"/>
		<rect class="st0" width="25" height="30"/>
	</g>
	<g id="_x254C_">
		<path d="M24.5,13.2h-9.7v3.6h9.7V13.2z M10.3,16.8v-3.6H0.5v3.6H10.3z"/>
		<rect class="st0" width="25" height="30"/>
	</g>
	<g id="_x3D__1_">
		<path d="M18.1,16.7H6.9v3.6h11.2V16.7z M18.1,13.3V9.7H6.9v3.6C6.9,13.3,18.1,13.3,18.1,13.3z"/>
		<rect class="st0" width="25" height="30"/>
	</g>
	<g id="ハ">
		<path d="M2.6,26.1L5.8,3.9h5.1L7.7,26.1H2.6z M13.3,3.9c0,11.8,4.2,19.6,7.5,21.2l1.7-2.6c-1.4-1.3-2.5-4.4-3.1-9.3
			c-0.3-2.6-0.5-5.8-0.5-9.3L13.3,3.9z"/>
		<rect class="st0" width="25" height="30"/>
	</g>
	<g id="_x25AA_">
		<path d="M16,17.4v-4.8H9v4.8H16z"/>
		<rect class="st0" width="25" height="30"/>
	</g>
	<g id="_xA78A_">
		<path d="M7.5,13.7h9.9V8.6H7.5V13.7z M7.5,16.3v5.1h9.9v-5.1H7.5z"/>
		<rect class="st0" width="25" height="30"/>
	</g>
	<g id="シ">
		<path d="M12.1,3.1v3h11.2v-3H12.1z M12.1,10v3h11.2v-3H12.1z M1.1,10V8.8h2.6c-0.4,9.9,10.1,12.7,20.1,12.4v5.6
			C8.6,28.4,1.1,20.6,1.1,10z"/>
		<rect class="st0" width="25" height="30"/>
	</g>
	<g id="ワ">
		<path d="M6.8,8v3.5c0,5.6,1.9,9.2,5.7,11c1.5,0.8,3.4,1.1,5.6,1.1v2.3c-6.8,0-11.5-2.2-14.2-6.6c-1.2-1.8-1.8-4.1-2-6.6V4.1h21.3
			v9.4h-4.9V8H6.8z"/>
		<rect class="st0" width="25" height="30"/>
	</g>
	<g id="_x2B_">
		<polygon points="20.6,13.3 14.2,13.3 14.2,6.9 10.8,6.9 10.8,13.3 4.4,13.3 4.4,16.7 10.8,16.7 10.8,23.1 14.2,23.1 14.2,16.7 
			20.6,16.7 		"/>
		<rect class="st0" width="25" height="30"/>
	</g>
	<g id="ヤ">
		<path d="M1,5.3h13.9l0.2-1.8h5.8l-0.2,1.8H24v4h-3.8l-1.8,14.9H24v2.3H3.2v-2.3h9.7l1.5-14.9h-7c0,3.7,1.5,6.6,4.4,8.5v1.9
			C4.9,20,1,14,1,5.3z"/>
		<rect class="st0" width="25" height="30"/>
	</g>
	<g id="リ">
		<path d="M2.5,3.7h5.9c-0.4,6.5,1.3,20.8,13.2,20v2.6C5,26.7,1.5,15,2.5,3.7z M22.6,14.9h-6.2L16.2,3.7h6.5L22.6,14.9z"/>
		<rect class="st0" width="25" height="30"/>
	</g>
	<g id="_x35_">
		<path d="M23,13.7H12.5c-1,0-1.8,0.2-2.5,0.7s-1,1.1-1,1.8v5.1c0,0.7,0.3,1.3,1,1.8s1.5,0.7,2.5,0.7H16c2.2,0,3.3-0.8,3.5-2.5H23
			c-0.5,3.4-2.9,5.1-7,5.1H9c-1.9,0-3.6-0.5-4.9-1.5S2,22.8,2,21.4v-5.1c0-1.4,0.7-2.6,2.1-3.6s3-1.5,5-1.5h7V6.1H2V3.6h21V13.7z"/>
		<rect class="st0" width="25" height="30"/>
	</g>
	<g id="_x38_">
		<path d="M8.4,3.5h8.3c4.4,0.9,6.5,2.9,6.5,6c0,2.1-1.1,3.7-3.2,4.6c-1.1,0.5-2.2,0.8-3.3,0.8l1.6,0.3l1.7,0.6
			c2.1,0.9,3.2,2.5,3.2,4.6c0,3.1-2.2,5.1-6.5,6H8.4c-4.4-0.9-6.6-2.9-6.6-6c0-2.1,1.1-3.6,3.2-4.6C6.1,15.3,7.2,15,8.3,15
			c-1,0-2.1-0.3-3.3-0.8c-2.1-1-3.2-2.5-3.2-4.6C1.8,6.4,4,4.4,8.4,3.5 M12.6,16.4h-0.3C10.1,16.5,9,17.6,9,20s1.1,3.7,3.4,3.9h0.1
			c2.3-0.2,3.4-1.5,3.4-3.9S14.8,16.4,12.6,16.4 M12.6,6.3h-0.3C10.1,6.4,9,7.5,9,9.9s1.1,3.6,3.4,3.9h0.1c2.3-0.3,3.4-1.6,3.4-3.9
			C15.9,7.5,14.8,6.3,12.6,6.3z"/>
		<rect class="st0" width="25" height="30"/>
	</g>
	<g id="_x33_">
		<path d="M1.9,23.9H16L5.3,18.8V16h7.2c1.1,0,1.8-0.3,2.4-0.9c0.5-0.6,0.8-1,0.8-1.4V8.6c0-0.6-0.1-1.2-0.7-1.7
			c-0.6-0.4-1.5-0.6-2.4-0.6h-3c-2.9,0-3.4,1.6-4.1,2.2H1.9C2.4,5.1,4.8,3.4,9,3.4h7c1.9,0,3.6,0.5,5,1.5s2.1,2.2,2.1,3.6v5.1
			c0,1.2-0.7,2.3-2,3.4s-3,1.7-5.1,1.7h-3.5l10.6,5.1v2.5H1.9V23.9z"/>
		<rect class="st0" width="25" height="30"/>
	</g>
	<g id="_x34_">
		<path d="M2,17.7V15L15.6,2.5h7.5v24.9H1.9v-2.3h13.9v-7.4H2 M5.6,15h10.2V5.7L5.6,15z"/>
		<rect class="st0" width="25" height="30"/>
	</g>
	<g id="キ">
		<path d="M10.9,3.6h5.9L16.3,7h6.8v3.8h-7.3L15,16.7h8v3.8h-8.5l-0.7,5.9H8l0.7-5.9H1.9v-3.8h7.3l0.8-5.9H1.9V7h8.6L10.9,3.6z"/>
		<rect class="st0" width="25" height="30"/>
	</g>
	<g id="ミ">
		<path d="M23.1,24.1L1.9,26v-4.3L23,19.5v4.6H23.1z M23.1,8.6L1.9,10.5V6.3L23.1,4V8.6z M21.4,16.2L3.6,17.9v-4l17.8-2.1V16.2z"/>
		<rect class="st0" width="25" height="30"/>
	</g>
	<g id="ア_1_">
		<path d="M9.1,19.6C3.2,19.6,2,13.4,2,12V4.4h21v4H7.6C7.4,13.9,7.8,17,11.1,17v-5.7h6.2v5.9c0,3.5,1.9,5.6,5.8,6.3v2
			c-5,0-8.8-2-11.5-6H9.1V19.6z"/>
		<rect class="st0" width="25" height="30"/>
	</g>
	<g id="ナ">
		<path d="M6.9,3.6H13v5.3h10V13H13c-0.1,2.3,0.3,10.7,8.8,11.2v2.1c-8,0.6-14.4-3.9-15-13.3H2V8.9h4.9V3.6z"/>
		<rect class="st0" width="25" height="30"/>
	</g>
	<g id="_x39_">
		<path d="M8.3,3.6h8.3c4.4,0.9,6.5,2.9,6.5,6v3.6c0,2.1-1.1,3.7-3.2,4.7c-1.2,0.5-2.3,0.8-3.3,0.8h-2.3h-3.1
			c-0.6,0-1.3-0.5-2.1-1.5c-0.2,2.6,0.8,4.5,2.9,5.6c1.4,0.8,3.2,1.1,5.5,1.1h1h0.9v2.5H13c-4,0-7.1-1.4-9.3-4.1
			c-0.9-1.2-1.5-2.5-1.9-4.1V9.6C1.8,6.5,4,4.5,8.3,3.6 M12.6,6.3h-0.3C10.1,6.4,9,7.6,9,9.9v2.6c0,1.6,0.6,2.7,1.7,3.3
			c0.5,0.3,1.1,0.5,1.7,0.5h0.1c2.3-0.2,3.4-1.5,3.3-3.9V9.9c0-1.6-0.5-2.6-1.6-3.2L12.6,6.3z"/>
		<rect class="st0" width="25" height="30"/>
	</g>
	<g id="カ">
		<path d="M18.4,10.8C18.1,18.4,19.9,24,23,24.3v2.2h-1.3c-3.6-0.8-9.3-4.2-9.3-15.6H8.3c-0.6,0-1.1,0.6-1.1,1.4v9.3
			c0,0.8,0.5,1.2,1.1,1.2h3.2v3.7H6.1c-2.3,0-4.1-1.6-4.1-4.3v-15h10.5V3.6h6v3.5h3.6v3.7H18.4z"/>
		<rect class="st0" width="25" height="30"/>
	</g>
	<g id="_x3C_">
		<path d="M10.5,15L21,22.2h-6.2L4,15l10.8-7.3H21L10.5,15z"/>
		<rect class="st0" width="25" height="30"/>
	</g>
	<g id="ニ">
		<path d="M23,20.7H2v4.4h21V20.7z M22.2,9.2V4.8h-19v4.4C3.2,9.2,22.2,9.2,22.2,9.2z"/>
		<rect class="st0" width="25" height="30"/>
	</g>
	<g id="ソ">
		<path d="M1.8,3.7h5.9c-0.2,4.3,0,20.6,13.2,20v2.6c-8.4,0.5-19.4-3.4-19.3-19L1.8,3.7 M14.3,14.9l2.6-11.2h6.5l-2.9,11.2H14.3z"/>
		<rect class="st0" width="25" height="30"/>
	</g>
	<g id="ム">
		<path d="M11.2,4.7h6.1l6.9,20.7h-8.7l-8.7-1.7l-0.6,1.6H0.8v-1.5l4.7-12.1h5.8l-3,8l8.6,1.6L11.2,4.7z"/>
		<rect class="st0" width="25" height="30"/>
	</g>
	<g id="_x2A_">
		<path d="M21,12.5l-5.2,2.4l5.2,2.4l-1.1,2.5l-5.6-2.6v5h-3.7v-4.9l-5.4,2.6L4,17.4L9.2,15L4,12.6l1-2.7l5.5,2.5V7.8h3.7v4.7
			l5.6-2.6L21,12.5z"/>
		<rect class="st0" width="25" height="30"/>
	</g>
	<g id="コ">
		<path d="M20.5,8.6H5.8v12.8h17.4v4.2H1.8V4.4h18.7V8.6z"/>
		<rect class="st0" width="25" height="30"/>
	</g>
	<g id="_x3E_">
		<path d="M14.5,15L4,7.8h6.2L21,15l-10.8,7.2H4L14.5,15z"/>
		<rect class="st0" width="25" height="30"/>
	</g>
	<g id="モ">
		<path d="M12.4,7.2c0.3,0,0.7,0.2,0.7,0.7v2.4c0,0.5-0.2,0.7-0.7,0.8H2v3.8h10.4c0.3,0,0.6,0.2,0.7,0.8v4c0,1.1-1.1,2.4-2.2,2.4H2
			v4h12.7c2.7,0,4-3.3,4-5.7V15H23v-3.9h-4.3v-4h4v-3H2v3.1H12.4z"/>
		<rect class="st0" width="25" height="30"/>
	</g>
	<g id="_x31_">
		<path d="M10.6,27.5V7.7H7.1V5.1l7.2-2.7H18v25.1H10.6z"/>
		<rect class="st0" width="25" height="30"/>
	</g>
	<g id="_x30_">
		<path d="M8.3,3.6h8.3c4.4,0.9,6.5,2.9,6.5,6v10.9c0,3.2-2.2,5.2-6.5,6H8.3c-4.4-0.8-6.5-2.8-6.5-6V9.6C1.8,6.5,4,4.5,8.3,3.6
			 M12,23.9l0.5,0.1h0.1c2.3-0.2,3.4-1.5,3.4-3.8v-8.4L9.8,22.7c0.4,0.5,0.9,0.9,1.7,1.1L12,23.9 M12.6,6.4h-0.3
			C10.1,6.5,9,7.6,9,9.9v8.3l5.8-11.1C14.3,6.6,13.5,6.3,12.6,6.4z"/>
		<rect class="st0" width="25" height="30"/>
	</g>
	<g id="ネ">
		<path d="M15.3,4.4c0,0.5,0.1,0.9,0.7,1.2h7v4H9.5c0.2,1.6,1.1,3.1,2.5,4.4c2.4,2.5,6.1,4.1,11.1,4.9v2.5c-3.8-0.3-6.4-0.8-7.7-1.4
			v5.4h7.7v2.3H1.9v-2.3h7.8v-6.7L2,22.3v-4.4l4.9-2.3c-2.2-1.8-3.7-4.1-4.4-6.7C2.2,7.8,2,6.8,1.9,5.6h7c0.6,0,0.8-0.4,0.8-1.3V2.1
			h5.6C15.3,2.1,15.3,4.4,15.3,4.4z"/>
		<rect class="st0" width="25" height="30"/>
	</g>
	<g id="ス">
		<path d="M11.8,8.8C12,15,14,19.3,17.6,21.7c1.5,1,3.3,1.5,5.4,1.7v2.2c-5.4,0-9.6-1.6-12.8-4.8L7,25.7H2v-1.1l5-8.7
			c-1-1.2-2.2-8-2.2-11.3H23V9H11.8V8.8z"/>
		<rect class="st0" width="25" height="30"/>
	</g>
	<g id="_x22_">
		<path d="M10.4,20.3H5.5L7.1,9.7H12L10.4,20.3z M17.9,20.3H13l1.6-10.6h4.8L17.9,20.3z"/>
		<rect class="st0" width="25" height="30"/>
	</g>
	<g id="テ">
		<path d="M6.2,14.6H1.9v-3.8H23v3.8h-9c-0.6,6.5,3.2,9.1,7.7,9v2.2C12.4,26.6,9,20.7,8.3,18.4C7.2,14.8,7.2,14.6,6.2,14.6z M2,4.2
			v3.7h20.9V4.2H2z"/>
		<rect class="st0" width="25" height="30"/>
	</g>
	<g id="タ">
		<path d="M19.5,4.1H2V10c-0.1,12.7,9.5,16.8,19.6,15.8v-2.3c-5.8,0.4-9.2-1.9-10.3-3.5c-0.4-0.6-0.4-1.6,0.1-1.8l5.7-2v-3.4
			l-7.3,1.8C8.4,14.9,8.2,15,8.2,8H15c1.7,4,5.2,7.3,8,7.3v-2.6C21.5,11.7,19.5,8.2,19.5,4.1z"/>
		<rect class="st0" width="25" height="30"/>
	</g>
	<g id="ツ">
		<path d="M1.9,4.1h5.4v7.4c0,5.6,2.4,9.2,7.2,11c1.9,0.8,4.3,1.1,7.2,1.1v2.3c-8.3,0-14.1-2.2-17.3-6.6c-1.4-1.8-2.2-4.1-2.5-6.6
			C1.9,12.7,1.9,4.1,1.9,4.1z M11.1,4.1H16l-1.4,10.6H9.8L11.1,4.1 M21.7,14.6h-4.9L18.2,4h4.9L21.7,14.6z"/>
		<rect class="st0" width="25" height="30"/>
	</g>
	<g id="ケ">
		<path d="M23.1,4.5V2.1H2v2.3h10.9v4h-11v4.1h3.9C4.1,30.1,19.3,27.9,21.2,27.7v-2.2c-8.7,1.6-9.8-7.1-9.4-13h2.6
			c2.5,3.4,5.8,5.7,8.7,5v-2.1c-2.2-0.4-4.3-4.2-4.7-6.8V4.5H23.1z"/>
		<rect class="st0" width="25" height="30"/>
	</g>
	<g id="_x32_">
		<path d="M16,6.1h-3.5c-0.9,0-1.8,0.2-2.5,0.7S9,7.9,9,8.6v1.3c0,1.8,2.3,4,6.8,6.8l0.5,0.3c3.7,2.3,6.8,5.6,6.8,6.8v2.5H2v-2.5h14
			v-0.2c0-1.6-2.3-3.8-6.8-6.6l-0.5-0.3c-4.5-2.7-6.6-5-6.6-6.8V9.4c0-1.6,0.7-3,2.1-4.1S7.1,3.6,9,3.6h7c4.1,0,6.5,1.7,7,5.1h-3.5
			C19.4,6.9,18.2,6.1,16,6.1z"/>
		<rect class="st0" width="25" height="30"/>
	</g>
	<g id="セ">
		<path d="M23.1,2.1v2.2h-2.5v3.9h2.5v4.4h-2.5v10.1c0,3.1-1.3,5.2-4,5.2H1.9v-4.2h10.6c1.9,0,2.8-1.4,2.8-4.1v-7H7.9
			c0,0-0.1,0.5-0.1,1.2c-0.1,3,1.2,5,3.6,5.4V21C4.9,21.5,2,17.8,2,12.3V8.2h13.3V4.3H2V2.1H23.1z"/>
		<rect class="st0" width="25" height="30"/>
	</g>
	<g id="ホ">
		<path d="M10.4,2.4H16v3.3h7.7v3.8H16v15.7h7.6v2.3H1.2v-2.3l3-13h4.5v1.4L6.2,25.2h4.2V9.6H2.7V5.7h7.7V2.4z M23.7,24.2h-2
			c-2.9-2.4-4.4-6.4-4.4-12h4.6c0,5.4,0.6,8.6,1.8,9.6V24.2z"/>
		<rect class="st0" width="25" height="30"/>
	</g>
	<g id="ヒ">
		<path d="M2.3,25.9H15c4.3,0,7.7-2.4,7.7-8.2V4.1h-6.2V9H2.3v4h14v4.5c0,2.2-1.9,4.5-4.1,4.5H2.3V25.9z"/>
		<rect class="st0" width="25" height="30"/>
	</g>
	<g id="サ">
		<path d="M19.1,24v2.3c0,0-0.9,0.1-2,0.1c-5.4,0-8.7-1.5-10.8-4.6c-1.4-2-2.1-4.2-2.1-7.3c0-1,0.1-1.7,0.1-1.7H1.9v-4h2.5V3.6H10
			v5.2h4.4V3.7h5.5v5.1h3.2v4.1h-3.3v4.7h-5.7v-4.7H9.7c0,0-0.1,0.6-0.1,1.9c0,3.6,0.9,6.2,2.9,7.8S17.7,24.3,19.1,24z"/>
		<rect class="st0" width="25" height="30"/>
	</g>
	<g id="オ">
		<path d="M23.2,2.1v2.4H11.4v4h11v3.9h-8.7c0.1,2.3,0.6,4.5,1.5,6.6c1.6,3.5,4.1,5.7,7.7,6.5v2.1c-1.5,0-2.9-0.2-4.3-0.6
			c-3.3-1.1-5.8-3.4-7.6-6.7l-0.7,7.6H4.8v-6.7c0.4-1.1,0.7-4,0.8-8.8H1.8V8.5h3.9v-4H1.8V2.1H23.2z"/>
		<rect class="st0" width="25" height="30"/>
	</g>
	<g id="メ">
		<path d="M12.8,14.7l7.6-3.1V7.4l-8.7,3.3c-0.4-2-0.6-4.1-0.6-6.1H4.7C4.6,7.7,5,10.5,5.8,13l-4,1.5v4.7l5.7-2.3
			c3.2,5.3,8.9,8.3,15.5,8.6V23C17.9,23.1,14.6,19.6,12.8,14.7z"/>
		<rect class="st0" width="25" height="30"/>
	</g>
	<g id="ラ">
		<path d="M16.7,25.4c-5.2,0-9.2-1.5-12.1-4.5c-1.2-1.2-2-2.7-2.6-4.5v-5.6h21v3.9H8c0.3,3.4,2,5.9,5.1,7.3c2,0.9,6.4,1.4,8.7,1.4
			v2.1h-5.1V25.4z M2.9,4.6V8h18.9V4.6H2.9z"/>
		<rect class="st0" width="25" height="30"/>
	</g>
	<g id="マ">
		<path d="M2.3,4.9c0,7.1,1.6,12,4.9,14.7c1.4,1.1,3,1.8,4.9,2l-1.5,3.6h6.2l4.8-11h-6.2l-2.2,4.6c-3.4-0.9-5.1-3.7-5.1-8.3
			c0,0,0.1-1.5,0.2-1.9h14.2V5L2.3,4.9z"/>
		<rect class="st0" width="25" height="30"/>
	</g>
	<g id="Z">
		<path d="M1.8,3.6h21.3v2.5L8.9,23.9h14.2v2.5H1.8v-2.5L16.1,6.1H1.8V3.6z"/>
		<rect class="st0" width="25" height="30"/>
	</g>
	<g id="ヌ">
		<path d="M17.8,11.2V16l-5.1,2.2c2.5,3.1,6,4.8,10.5,5.1v2.5c-6.3-0.1-11.4-1.9-15.2-5.5L2,23v-4.8l3-1.4C3,13.4,2,9.2,2,4.1h20.2
			v4.1H8.7c0.2,2.2,0.7,4.3,1.7,6.3L17.8,11.2z"/>
		<rect class="st0" width="25" height="30"/>
	</g>
	<g id="_x37_">
		<path d="M18,16.7l-1,1.9l-0.9,1.9v5.8H8.8v-5.9c0-1.4,2.3-5.2,7-11.5V6.2H1.9V3.6H23V9C21.3,11.1,19.6,13.7,18,16.7z"/>
		<rect class="st0" width="25" height="30"/>
	</g>
	<g id="ウ">
		<path d="M23,2.1v2.5h-7.8v3.9h8v9.4h-5.5v-5.4H7.8v5.3c0,3.7,2,6.2,6,7.3c0,0,2.4,0.6,6,0.6v2.2C12.3,27.9,7,26.2,4,22.6
			c-1.2-1.5-1.9-3.3-2.2-5.4V8.4h8V4.5h-8V2.1H23z"/>
		<rect class="st0" width="25" height="30"/>
	</g>
	<g id="ヨ">
		<path d="M1.8,3.6v22.8h21.4V3.6H1.8z M19.2,7v6.7H5.8V7H19.2z M5.8,23v-6.7h13.5V23H5.8z"/>
		<rect class="st0" width="25" height="30"/>
	</g>
	<g id="エ">
		<rect class="st0" width="25" height="30"/>
		<path d="M15.3,8.9v11.6h7.8v4.2H1.9v-4.2h7.8V8.9H2.9V5.3H22v3.6H15.3z"/>
	</g>
</g>
<g id="Collected_glyphs">
	<g id="Recovered">
		<path class="st1" d="M263.7,437.6v2.5h-7.8v3.9h8v9.4h-5.5V448h-9.8v5.3c0,3.7,2,6.2,6,7.3l2.8,0.5l3.3,0.1v2.2
			c-7.5,0-12.8-1.8-15.8-5.3c-1.2-1.5-1.9-3.3-2.2-5.4V444h8v-4h-8v-2.4H263.7z"/>
		<path class="st1" d="M404.4,600.8v5.1h9.9v-5.1H404.4 M404.4,608.5v5.1h9.9v-5.1H404.4z"/>
		<path class="st1" d="M418.6,559.1v-3.6h-11.2v3.6H418.6 M418.6,552.1v-3.6h-11.2v3.6H418.6z"/>
		<path class="st1" d="M201.4,395.3l0.5,3.1l8.6-3.3v4.2l-7.6,3.1c2,5.5,5.4,8.2,10.2,8.2v2.5c-2.1-0.1-4-0.5-5.8-1.1
			c-4.3-1.4-7.6-3.9-9.7-7.5l-5.7,2.3v-4.7l4-1.5c-0.8-2.4-1.2-5.2-1.1-8.4l6.4-0.1L201.4,395.3z"/>
		<path class="st1" d="M460.9,441.2c0,7.1,1.6,12,4.9,14.7c1.4,1.1,3,1.8,4.9,2l-1.5,3.6h6.2l4.8-11H474l-2.2,4.6
			c-3.4-0.9-5.1-3.7-5.1-8.3l0.2-1.9h14.2v-3.6L460.9,441.2z"/>
		<path class="st1" d="M317.5,334.7v2.4h-11.7v4h11v3.9h-8.7c0.1,2.3,0.6,4.5,1.5,6.6c1.6,3.5,4.1,5.7,7.7,6.5v2.1
			c-1.5,0-2.9-0.2-4.3-0.6c-3.3-1.1-5.8-3.4-7.6-6.7l-0.7,7.6h-5.4v-6.7c0.4-1.1,0.7-4,0.8-8.8h-3.8v-4h3.9v-4h-3.9v-2.4h21.2V334.7
			z"/>
		<path class="st1" d="M429.1,442.4h-17.6v5.9c0,6.2,2.1,10.7,6.4,13.3c2.8,1.8,6.3,2.6,10.4,2.6h1.5l1.3-0.1v-2.3h-0.7h-0.7
			c-2.6,0-4.8-0.5-6.6-1.6c-0.3-0.1-0.7-0.4-1-0.7l-1.3-1.2c-0.2-0.2-0.3-0.5-0.3-0.8c0-0.4,0.1-0.7,0.4-0.9l3-1.1l2.7-0.9v-3.4
			l-8,1.9c-0.7,0-1-2.2-0.8-6.8h6.8c1.5,3.2,3.3,5.4,5.4,6.5c0.8,0.5,1.7,0.7,2.7,0.8V451c-1.6-1.2-2.6-3-3.1-5.4
			C429.3,444.6,429.1,443.5,429.1,442.4z"/>
		<path class="st1" d="M491.1,659.7l-0.7-0.7h-4.7v-3.8h21.1v3.8h-9.1c-0.3,4,0.9,6.8,3.6,8.2c1.1,0.6,2.5,0.8,4.1,0.8v2.2h-0.9
			h-0.8c-3.4,0-6.2-0.8-8.3-2.5c-1.5-1.2-2.7-2.8-3.5-4.9l-0.4-1.5L491.1,659.7 M485.7,648.5v3.7h20.9v-3.7H485.7z"/>
		<path class="st1" d="M206.6,599v4.8l-5.1,2.2c2.5,3.1,6,4.8,10.5,5.1v2.5c-6.3-0.1-11.4-1.9-15.2-5.5l-6,2.7V606l3.1-1.4
			c-2-3.4-3-7.6-3-12.7h20.2v4.1h-13.6c0.2,2.2,0.7,4.3,1.7,6.3L206.6,599z"/>
		<path class="st1" d="M536.8,597.8v-2.5h-21.1v2.3h10.9v4h-10.9v4.1h3.9v3.8c0.1,4.5,1.7,7.7,4.8,9.6c2.1,1.3,4.7,1.9,7.9,1.9h1.4
			l1.3-0.1v-2.2h-2.8c-2.5,0-4.4-1.4-5.5-4.3c-0.7-1.8-1.1-4.1-1.1-6.9v-1l0.1-0.8h2.6c2.5,3.4,5.1,5.1,7.8,5.1l0.8-0.1v-2.1
			c-1.6-0.5-2.8-1.7-3.7-3.8c-0.2-0.4-0.4-0.9-0.6-1.4l-0.4-1.6v-4.1L536.8,597.8z"/>
		<path class="st1" d="M296.5,443h5.4v7.4c0,5.6,2.4,9.2,7.2,11c1.9,0.8,4.3,1.1,7.2,1.1v2.3c-8.3,0-14.1-2.2-17.3-6.6
			c-1.4-1.8-2.2-4.1-2.5-6.6L296.5,443 M305.7,442.9h4.9l-1.4,10.6h-4.9L305.7,442.9 M316.3,453.5h-4.9l1.4-10.6h4.9L316.3,453.5z"
			/>
		<path class="st1" d="M526.2,406.9v-4.8h-7v4.8H526.2z"/>
		<path class="st1" d="M461.5,592.3h5.7v5.2h4.4v-5.1h5.5v5.1h3.2v4.1H477v4.7h-5.7v-4.7h-4.4v1v0.9c0,3.6,1,6.2,2.9,7.8
			c1.3,1.1,3,1.6,4.9,1.6l1.6-0.1v2.3l-1,0.1h-1c-5.1,0-8.7-1.5-10.8-4.6c-1.4-2-2.1-4.4-2.1-7.3v-0.8l0.1-0.7v-0.1H459v-4.1h2.5
			V592.3z"/>
		<path class="st1" d="M416.3,389.1h5.6v3.3h7.7v3.8h-7.7v15.7h7.6v2.3h-22.4v-2.3l3-13h4.5v1.4l-2.5,11.6h4.2v-15.7h-7.7v-3.8h7.7
			L416.3,389.1 M429.6,410.8h-2c-2.9-2.4-4.4-6.4-4.4-12h4.6c0,5.4,0.6,8.6,1.8,9.6V410.8z"/>
		<path class="st1" d="M531.2,490.7c0,0.5,0.3,0.9,1,1.2h7v4h-13.6c0.2,1.6,1.1,3.1,2.5,4.4c2.4,2.5,6.1,4.1,11.1,4.9v2.5
			c-3.8-0.3-6.4-0.8-7.7-1.4v5.4h7.7v2.3H518v-2.3h7.8V505l-7.7,3.4V504l4.9-2.3c-2.2-1.8-3.7-4.1-4.4-6.7c-0.4-1-0.5-2.1-0.6-3.3
			h4.8h2.2c0.6,0,0.8-0.4,0.8-1.3v-2.2h5.4V490.7z"/>
		<path class="st1" d="M332.3,646.8c0.3,0,0.5,0.2,0.7,0.6v2.5c0,0.5-0.2,0.7-0.7,0.8H322v3.8h10.4c0.3,0,0.5,0.3,0.5,0.9v3.9
			c0,0.6-0.5,1.4-1.5,2.4H322v4h12.7c2.2,0,3.5-1.9,4-5.7v-5.2h4.3v-3.9h-4.2v-4.1h3.9v-3h-20.6v3.1L332.3,646.8L332.3,646.8z"/>
		<path class="st1" d="M475.3,495.9v11.6h7.8v4.2h-21.3v-4.2h7.8v-11.6h-6.8v-3.6H482v3.6H475.3z"/>
		<path class="st1" d="M261.4,545.9v2.2h-2.5v3.9h2.5v4.4h-2.5v10.1c0,3.1-1.2,4.9-3.6,5.2h-15.1v-4.2h10.6c1.9,0,2.8-1.4,2.8-4.1
			v-7h-7.4l-0.1,0.6v0.7c0,3.2,1.2,5,3.6,5.4v1.7h-0.6h-0.7c-2,0-3.7-0.5-5.1-1.5c-2-1.4-3-3.9-3-7.3v-4h13.3v-3.9h-13.3v-2.2
			L261.4,545.9L261.4,545.9z"/>
		<path class="st1" d="M260.4,616c-5.2,0-9.2-1.5-12.1-4.5c-1.2-1.2-2-2.7-2.6-4.5v-5.6h20.9v3.9h-15c0.3,3.4,2,5.9,5.1,7.3
			c2,0.9,4.4,1.4,7.2,1.4h0.7h0.7v2.1h-4.9 M246.6,595.3v3.3h18.9v-3.3H246.6z"/>
		<path class="st1" d="M523,550.3l-1.6,10.6h-4.8l1.6-10.6H523 M528.9,561H524l1.6-10.6h4.8L528.9,561z"/>
		<path class="st1" d="M463.6,362.8h12.7c3.4,0,5.7-1.4,6.9-4.1c0.5-1.1,0.7-2.5,0.8-4.1V341h-6.2v4.9h-14.2v4.1h14v4.5
			c0,2-1.1,3.5-3.4,4.5h-10.6L463.6,362.8L463.6,362.8z"/>
		<path class="st1" d="M373,337.6h-14.7v12.8h17.4v4.2h-21.4v-21.1H373V337.6z"/>
		<path class="st1" d="M428.6,352.7v-4.4h-21v4.4H428.6 M427.8,336.8v-4.4h-19v4.4H427.8z"/>
		<path class="st1" d="M410,493.5h-3.8v23.4h3.8V493.5z"/>
		<path class="st1" d="M374.3,557.1v-3.6h-19.9v3.6H374.3z"/>
		<path class="st1" d="M365.3,504.4l-10.5-7.3h6.2l10.8,7.3l-10.8,7.2h-6.2L365.3,504.4z"/>
		<path class="st1" d="M454.5,660.7l-1,1.9l-0.9,1.9v5.8h-7.3v-5.9c0-1.4,2.3-5.2,7-11.5v-2.8h-13.9v-2.6h21.1v5.4
			C457.8,655.1,456.1,657.7,454.5,660.7z"/>
		<path class="st1" d="M203.4,517.1v-5.2h-7.3v5.2H203.4 M203.4,504.3v-5.2h-7.3v5.2H203.4z"/>
		<path class="st1" d="M198.8,546.1h8.3c4.4,0.9,6.5,2.9,6.5,6v3.6c0,2.1-1.1,3.7-3.2,4.7c-1.2,0.5-2.3,0.8-3.3,0.8h-2.3h-3.1
			c-0.6,0-1.3-0.5-2.1-1.5c-0.2,2.6,0.8,4.5,2.9,5.6c1.4,0.8,3.2,1.1,5.5,1.1h1h0.9v2.5h-6.5c-4,0-7.1-1.4-9.3-4.1
			c-0.9-1.2-1.5-2.5-1.9-4.1v-8.6C192.3,549,194.5,547,198.8,546.1 M203.1,548.8h-0.3c-2.2,0-3.3,1.2-3.3,3.6v2.6
			c0,1.6,0.6,2.7,1.7,3.3c0.5,0.3,1.1,0.5,1.7,0.5h0.1c2.3-0.2,3.4-1.5,3.3-3.9v-2.6c0-1.6-0.5-2.6-1.6-3.2L203.1,548.8z"/>
		<path class="st1" d="M250.2,493.9h6v5.3h9.9v4.1h-10c-0.1,2.1,0.2,4.1,1,5.8c1.4,3.3,4,5.1,7.8,5.3v2.1l-0.7,0.1h-0.7
			c-2.9,0-5.5-0.7-7.7-2.1c-3.5-2.2-5.4-5.9-5.8-11.2h-4.9v-4.1h5L250.2,493.9z"/>
		<path class="st1" d="M305.3,607.2c-2.7,0-4.7-1.3-6-3.8c-0.6-1-0.9-2.3-1.1-3.8v-7.5h21v4h-15.4l-0.1,1.9v1.7
			c0,3.4,1.2,5.1,3.6,4.9V599h6.2v5.9c0,3.5,1.9,5.6,5.8,6.3v2c-5,0-8.8-2-11.5-6H305.3z"/>
		<path class="st1" d="M469.2,544.8h6v3.5h3.6v3.7h-3.6v0.1c-0.1,2.4,0,4.5,0.3,6.3c0.6,4.3,2.1,6.6,4.4,7v1.9h-1.3
			c-1.8-0.4-3.3-1.1-4.7-2.2c-3.1-2.7-4.6-7-4.6-13.1l0,0h-4.6c-0.4,0.1-0.7,0.6-0.7,1.4v8.7c0,0.8,0.4,1.5,1.1,1.8h3.2v3.7h-5.4
			c-2.3,0-3.6-1.4-4.1-4.3v-15h10.5L469.2,544.8L469.2,544.8z"/>
		<path class="st1" d="M351.9,596.2h5.9c-0.1,4,0.2,7.4,1.1,10.2c2,6.8,6,10,12.1,9.8v2.6h-0.6h-0.7c-4.1,0-7.6-0.9-10.6-2.8
			c-5-3.2-7.4-8.6-7.4-16.3v-1.8L351.9,596.2 M364.4,607.5l2.6-11.2h6.5l-2.9,11.2H364.4z"/>
		<path class="st1" d="M309.7,493.8h5.9l-0.4,3.4h6.8v3.8h-7.3l-0.8,5.9h8v3.8h-8.5l-0.7,5.9h-5.9l0.7-5.9h-6.8v-3.8h7.3l0.8-5.9
			h-8.1v-3.8h8.6L309.7,493.8z"/>
		<path class="st1" d="M275.9,650.8c0.2,6.2,2.1,10.5,5.8,12.8c1.5,1,3.3,1.5,5.4,1.7v2.2c-5.4,0-9.6-1.6-12.8-4.8l-3.2,4.9H266
			v-1.1l5-8.7c-0.7-1.2-1.3-3.4-1.7-6.7l-0.3-2.2l-0.2-2.5H287v4.4L275.9,650.8L275.9,650.8z"/>
		<path class="st1" d="M200,341.4h6.1l6.9,20.7h-8.7l-8.7-1.7L195,362h-5.4v-1.5l4.7-12.1h5.8l-3,8l8.6,1.6L200,341.4z"/>
		<path class="st1" d="M542.2,352.5v-3.6h-9.7v3.6H542.2 M528,352.5v-3.6h-9.7v3.6H528z"/>
		<path class="st1" d="M303.4,554.4l10.5,7.2h-6.2l-10.8-7.2l10.8-7.3h6.2L303.4,554.4z"/>
		<path class="st1" d="M370.7,446.4l-5.2,2.4l5.2,2.4l-1.1,2.5l-5.6-2.6v5h-3.7v-4.9l-5.4,2.6l-1.2-2.5l5.2-2.4l-5.2-2.4l1.1-2.6
			l5.5,2.5v-4.7h3.7v4.7l5.6-2.6L370.7,446.4z"/>
		<path class="st1" d="M263.8,354v4.6l-21.1,1.8v-4.3L263.8,354 M263.8,338.5v4.6l-21.1,1.9v-4.3L263.8,338.5 M262.2,350.7
			l-17.8,1.7v-4l17.8-2.1V350.7z"/>
		<path class="st1" d="M305.9,408.8v-10.1h-3.7v10.1H305.9 M305.9,395v-8.8h-3.7v8.8H305.9z"/>
		<path class="st1" d="M356.6,397.2v-2.8l13.7-12.4h7.5v25h-21.2v-2.3h13.9v-7.4h-13.9 M360.2,394.5h10.2v-9.3L360.2,394.5z"/>
		<path class="st1" d="M471.2,392.5h8.3c4.4,0.9,6.5,2.9,6.5,6c0,2.1-1.1,3.7-3.2,4.6c-1.1,0.5-2.2,0.8-3.3,0.8l1.6,0.3l1.7,0.6
			c2.1,0.9,3.2,2.5,3.2,4.6c0,3.1-2.2,5.1-6.5,6h-8.3c-4.4-0.9-6.6-2.9-6.6-6c0-2.1,1.1-3.6,3.2-4.6c1.1-0.5,2.2-0.8,3.3-0.8
			c-1,0-2.1-0.3-3.3-0.8c-2.1-1-3.2-2.5-3.2-4.6C464.6,395.4,466.8,393.4,471.2,392.5 M475.4,405.4h-0.3c-2.2,0.1-3.3,1.2-3.3,3.6
			s1.1,3.7,3.4,3.9h0.1c2.3-0.2,3.4-1.5,3.4-3.9S477.6,405.4,475.4,405.4 M475.4,395.3h-0.3c-2.2,0.1-3.3,1.2-3.3,3.6
			s1.1,3.6,3.4,3.9h0.1c2.3-0.3,3.4-1.6,3.4-3.9C478.7,396.5,477.6,395.3,475.4,395.3z"/>
		<path class="st1" d="M384.6,644.8h8.3c4.4,0.9,6.5,2.9,6.5,6v10.9c0,3.2-2.2,5.2-6.5,6h-8.3c-4.4-0.8-6.5-2.8-6.5-6v-10.9
			C378,647.7,380.2,645.7,384.6,644.8 M388.2,665.1l0.5,0.1h0.1c2.3-0.2,3.4-1.5,3.4-3.8V653l-6.1,10.9c0.4,0.5,0.9,0.9,1.7,1.1
			L388.2,665.1 M388.8,647.6h-0.3c-2.2,0.1-3.3,1.2-3.3,3.5v8.3l5.8-11.1C390.5,647.8,389.8,647.6,388.8,647.6z"/>
		<path class="st1" d="M249.2,415v-19.8h-3.5v-2.6l7.2-2.7h3.7V415H249.2z"/>
		<path class="st1" d="M225.2,644.8h-3.5c-0.9,0-1.8,0.2-2.5,0.7s-1.1,1.1-1.1,1.8v1.3c0,1.8,2.3,4,6.8,6.8l0.5,0.3
			c3.7,2.3,6.8,5.6,6.8,6.8v2.5h-21.1v-2.5h14.1v-0.2c0-1.6-2.3-3.8-6.8-6.6l-0.5-0.3c-4.5-2.8-6.6-5.1-6.6-6.8v-0.5
			c0-1.6,0.7-3,2.1-4.1c1.4-1.2,2.9-1.7,4.8-1.7h7c4.1,0,6.5,1.7,7,5.1h-3.5C228.5,645.6,227.4,644.8,225.2,644.8z"/>
		<path class="st1" d="M193.6,453h14.2l-10.7-5.1v-2.7h7.2c1.1,0,1.8-0.3,2.4-0.9c0.5-0.6,0.8-1,0.8-1.4v-5.2c0-0.6-0.1-1.2-0.7-1.7
			s-1.5-0.6-2.4-0.6h-3c-2.9,0-3.4,1.6-4.1,2.2h-3.5c0.5-3.4,2.9-5.1,7.1-5.1h7.1c1.9,0,3.6,0.5,5,1.5s2.1,2.2,2.1,3.6v5.1
			c0,1.2-0.7,2.3-2,3.4s-3,1.7-5.1,1.7h-3.5l10.6,5.1v2.5h-21.3V453H193.6z"/>
		<path class="st1" d="M512.5,439.3h13.9l0.2-1.8h5.8l-0.2,1.8h3.3v4h-3.8l-1.8,14.9h5.6v2.3h-20.8v-2.3h9.7l1.5-14.9h-7
			c0,3.7,1.5,6.6,4.4,8.5v1.9c-4.7,0-8-2.4-9.7-7.3C513,444.5,512.6,442.1,512.5,439.3z"/>
	</g>
	<g id="Reconstructed">
		<path class="st1" d="M306.8,229.6v22.8h21.4v-22.8H306.8z M324.3,233v6.7h-13.5V233H324.3z M310.8,249v-6.7h13.5v6.7H310.8z"/>
		<path class="st1" d="M269.9,230.9h21.3v2.5L277,251.1h14.2v2.5h-21.3v-2.5l14.2-17.7h-14.2L269.9,230.9L269.9,230.9z"/>
		<path class="st1" d="M210.5,239.8H200c-1,0-1.8,0.2-2.5,0.7s-1,1.1-1,1.8v5.1c0,0.7,0.3,1.3,1,1.8s1.5,0.7,2.5,0.7h3.5
			c2.2,0,3.3-0.8,3.5-2.5h3.5c-0.5,3.4-2.9,5.1-7,5.1h-7c-1.9,0-3.6-0.5-4.9-1.5s-2.1-2.2-2.1-3.6v-5.1c0-1.4,0.7-2.6,2.1-3.6
			s3-1.5,5-1.5h7v-5.1h-14v-2.5h21.1v10.2H210.5z"/>
		<path class="st1" d="M234.4,229.7h5.9c-0.1,4,0.2,7.4,1.1,10.2c2,6.8,6,10,12.1,9.8v2.6h-0.6h-0.7c-4.1,0-7.6-0.9-10.6-2.8
			c-5-3.2-7.4-8.6-7.4-16.3v-1.8L234.4,229.7 M254.5,241h-6.2l-0.1-11.2h6.5L254.5,241z"/>
		<polygon class="st1" points="364.6,238 358.2,238 358.2,231.7 354.8,231.7 354.8,238 348.4,238 348.4,241.4 354.8,241.4 
			354.8,247.8 358.2,247.8 358.2,241.4 364.6,241.4 		"/>
		<path class="st1" d="M379.6,235.3v3.5c0,5.6,1.9,9.2,5.7,11c1.5,0.8,3.4,1.1,5.6,1.1v2.3c-6.8,0-11.5-2.2-14.2-6.6
			c-1.2-1.8-1.8-4.1-2-6.6v-8.5H396v9.4h-5v-5.4h-11.4V235.3z"/>
		<path class="st1" d="M417.7,230.3v3H429v-3H417.7z M417.7,237.3v3H429v-3H417.7z M429.5,254l-1.8,0.1h-1.8c-7.7,0-13.1-2.3-16.3-7
			c-1.9-2.8-2.8-6.1-2.8-10v-0.6v-0.6h2.6c-0.2,5.7,3,9.5,9.9,11.4c2.8,0.8,6.3,1.1,10.3,1v5.7"/>
		<path class="st1" d="M448.7,256.7l3.2-22.2h5.1l-3.2,22.2H448.7z M465.5,243.7c-0.3-2.6-0.5-5.6-0.5-9.1v-0.2h-5.6v0.1
			c0.3,8.6,1.9,14.8,4.8,18.7c0.8,1,1.7,1.8,2.6,2.4l1.7-2.6C467.2,251.7,466.1,248.6,465.5,243.7z"/>
	</g>
</g>
</svg>
