<?xml version="1.0" encoding="UTF-8" standalone="no"?>
<svg version="1.1" width="1109.3333" height="1024" viewBox="0 0 1109.3333 1024" xmlns="http://www.w3.org/2000/svg">
 <path
    d="M -33.332432 571.92379 L -33.332432 571.88278 L -21.814366 566.4233 L -10.75626 566.4233 L -22.360752 571.92379 L -33.332432 571.92379 z M -146.90617 346.00679 C -147.66416 346.00679 -148.27872 345.39224 -148.27872 344.63424 L -148.27872 336.55416 C -148.27872 335.79616 -147.66416 335.18013 -146.90617 335.18013 L -143.4799 335.18013 L -143.4799 346.00679 L -146.90617 346.00679 z M -68.304113 339.15133 L -71.356847 331.40523 C -70.561848 330.73123 -69.784718 329.97539 -69.049718 329.19039 C -67.965719 331.60939 -67.011007 334.24176 -66.246007 337.09176 C -66.906007 337.79575 -67.593114 338.49033 -68.304113 339.15133 z M -7.2186621 338.16549 C -9.7626595 338.16549 -34.414952 313.41534 -34.414952 311.06734 C -34.414952 310.23734 -34.299561 309.65475 -34.139561 309.23775 C -33.743562 308.85775 -33.369604 308.51222 -33.033604 308.21822 C -24.985612 317.21421 -14.87248 329.45054 -4.8924901 336.30953 C -4.8924901 336.30953 -4.8787441 336.43986 -4.902744 336.62886 C -5.0827438 336.94386 -5.5827682 337.45216 -6.2767675 338.05416 C -6.5397672 338.12116 -6.8466624 338.16549 -7.2186621 338.16549 z M 177.69443 337.94722 C 173.04643 337.94722 158.65077 326.17525 151.80478 317.61226 C 151.52478 317.22626 151.58268 316.51624 151.72568 315.86324 C 151.82668 315.39224 151.97303 314.94714 152.08603 314.65914 C 152.39603 313.96814 152.79888 313.23597 153.27988 312.54097 C 156.39487 315.56897 172.50652 331.09431 178.37851 334.13131 C 178.74751 334.32231 179.27574 334.22072 179.91074 333.90572 C 179.97174 333.93972 180.02369 333.96231 180.05869 333.96431 C 180.68369 333.99531 185.40667 329.48603 187.78867 326.95504 C 189.54367 324.94204 191.14006 321.85734 194.16806 321.94234 C 194.60906 322.15634 194.91407 322.43572 195.12607 322.75972 C 192.53307 325.75372 181.72742 337.94722 177.69443 337.94722 z M 37.901456 332.21236 C 31.515396 331.92839 26.968433 323.69923 23.822843 318.9233 C 23.258843 316.9503 24.207863 314.88097 25.467862 313.18697 C 27.36686 316.02397 35.903737 328.52388 38.910734 328.52388 C 40.937732 328.52388 45.575144 321.85951 48.97714 316.49752 C 49.58114 315.68452 50.17011 314.86352 50.770109 314.08052 C 52.291107 311.73953 54.255835 309.19327 57.260832 308.82027 C 57.892831 308.75327 58.486258 308.98081 58.847258 309.56881 C 59.334257 310.3618 59.840512 311.12261 60.357512 311.86861 L 55.737394 317.95797 L 55.731535 317.96968 C 51.516539 323.59768 46.794977 329.72019 39.941984 332.03218 C 39.241484 332.18547 38.562083 332.24174 37.901456 332.21236 z M 505.79014 330.60103 C 505.53892 330.58121 505.30488 330.49088 505.10313 330.30806 C 504.02613 329.33306 504.47934 327.59521 504.99034 327.03121 C 505.50133 326.46721 506.81993 325.49657 506.81993 324.22457 C 506.81993 322.95257 506.47821 322.70805 505.89121 322.12105 C 505.30421 321.53405 496.75438 311.7872 496.00938 310.9692 C 495.26438 310.1502 493.27036 308.16926 492.48936 308.13326 C 491.70736 308.09626 490.95536 308.65413 490.23936 309.30513 C 489.52236 309.95713 487.20536 312.12041 486.48936 312.83541 C 485.77336 313.55141 484.73512 313.37218 484.27012 312.90718 C 483.80512 312.44218 483.0973 311.06682 484.0753 310.08882 C 486.37429 307.78983 490.33512 303.53511 493.27012 303.53511 C 495.12912 303.53511 512.44493 321.33923 512.44493 324.17623 C 512.44493 324.88123 512.0911 325.55528 511.6041 326.17427 C 511.02111 326.76227 510.42743 327.34123 509.84043 327.92623 C 509.46843 328.24923 509.14395 328.52554 508.94395 328.74654 C 508.30289 329.45423 506.87875 330.68694 505.79014 330.60103 z M -149.21769 329.00582 L -149.21769 318.18062 L -143.4799 318.18062 L -143.4799 329.00582 L -149.21769 329.00582 z M 296.57676 324.47213 C 292.3783 324.6971 282.87054 308.96542 281.59726 303.86324 C 282.18326 302.53824 283.54865 300.54749 284.28965 302.74849 C 286.07464 306.80149 290.39335 314.11329 295.03135 317.86129 C 303.87334 305.8153 301.65558 305.06318 305.02158 309.22017 C 303.92558 313.02617 300.74643 319.92529 297.69443 323.86129 C 297.38871 324.2555 297.01108 324.44885 296.57676 324.47213 z M 235.77988 323.37203 C 232.43488 323.37203 225.28704 314.33069 223.00205 311.32369 C 224.50205 310.07869 226.0859 309.23914 226.6539 309.78414 C 228.3309 311.75114 235.29917 321.59451 238.49716 318.53951 C 239.22616 318.01751 246.82919 310.7511 249.14218 308.0981 C 250.37918 306.5941 253.63623 302.50332 255.53623 305.08931 C 255.55923 305.14231 255.57189 305.19645 255.59189 305.25045 C 252.22789 309.09944 239.50388 323.37203 235.77988 323.37203 z M -102.46866 322.57955 C -103.16511 322.5894 -103.79332 322.15615 -104.25138 321.19234 C -101.18638 317.55634 -94.127172 309.64686 -90.218176 309.04586 C -87.182179 308.57886 -80.708795 312.01677 -74.9838 319.29976 C -76.091799 320.05776 -76.906933 320.53024 -77.019933 320.36324 C -79.95393 316.13324 -85.036425 311.17867 -88.520422 311.17867 C -92.376418 311.17867 -97.457237 317.42216 -99.653235 320.53316 C -100.56336 321.82185 -101.57323 322.56689 -102.46866 322.57955 z M 372.59922 321.56148 C 365.91723 321.56148 355.35901 310.51395 352.83701 305.27095 C 353.57701 303.93496 354.44192 302.35701 355.21592 301.47701 C 359.90191 306.149 369.6731 316.74068 373.02109 316.74068 C 376.84809 316.74068 383.12082 309.12481 385.78281 305.65181 C 386.91181 307.39981 386.40009 310.44018 385.39609 312.05318 C 380.4611 318.69017 376.52521 321.51848 372.59922 321.56148 z M 449.24863 318.9731 C 447.75064 316.38711 443.37724 309.24925 439.86924 307.65425 C 437.49424 306.57526 432.82431 316.52388 426.30332 316.52388 C 422.96632 316.52388 415.16761 308.71026 413.37461 305.88326 C 414.86261 304.31926 416.14399 303.16419 416.33799 303.26119 C 417.50499 303.84619 418.40538 305.23022 419.23838 306.07222 C 421.95038 309.10322 424.10004 312.45455 428.35703 312.45455 C 430.68803 312.45455 435.13128 306.89759 436.68027 305.34859 C 438.23027 303.79859 439.70006 300.79732 440.71006 300.79732 C 441.71906 300.79732 450.84092 312.79902 450.84092 314.53902 C 450.84092 315.50602 450.17763 317.6241 449.24863 318.9731 z M 106.629 318.57759 C 103.221 318.57759 95.720616 307.63617 93.540618 304.34517 C 94.529617 303.75217 95.608767 303.39539 96.742766 303.41939 C 97.402766 303.53939 97.858396 303.90974 98.112395 304.52974 C 99.111394 306.06974 100.14754 307.58401 101.21054 309.08101 C 102.41454 310.71501 105.61295 314.63965 107.15195 315.26265 C 107.63995 315.29765 110.35672 313.13873 110.97372 312.57174 C 114.30172 309.51074 117.42844 306.23485 120.63144 303.04586 C 121.85544 301.81286 124.69505 299.91479 126.25204 301.27779 C 123.27205 304.58179 110.42599 318.57759 106.629 318.57759 z M -149.21769 312.00631 L -149.21769 301.18111 L -146.01994 301.18111 C -145.26194 301.18111 -144.64591 301.79567 -144.64591 302.55367 L -144.64591 310.63375 C -144.64591 311.39175 -145.26194 312.00631 -146.01994 312.00631 L -149.21769 312.00631 z M -73.223058 283.84468 L -73.223058 275.63423 C -72.973058 271.68524 -73.448644 267.90279 -73.448644 267.90279 C -73.448644 267.90279 -80.335859 268.40493 -83.564855 265.75093 C -89.755849 260.65994 -87.617128 246.66586 -86.720129 246.52486 C -80.335135 245.51986 -68.857604 246.59528 -68.283605 246.88228 C -67.962605 247.04328 -65.413866 250.18348 -65.126867 250.68648 C -64.839867 251.18848 -64.841 255.27676 -64.912999 262.09175 C -64.936999 264.46475 -64.518616 271.42324 -64.095617 275.63423 L -64.095617 283.84468 L -73.223058 283.84468 z M -12.86124 283.84468 C -11.748241 281.48569 -10.352895 278.3867 -9.3338965 275.6357 C -7.5388983 271.1447 -5.6688573 264.74504 -5.6688573 256.49605 C -5.6688573 247.02706 -8.2499121 237.77242 -8.2499121 237.77242 C -8.9219114 235.16642 -5.9531925 234.76623 -5.2381933 236.05123 C -5.2381933 236.05123 3.3706937 249.17957 3.3706937 260.37056 C 3.3706937 275.36455 1.2906155 283.40377 1.2906155 283.40377 C 0.9966158 283.69777 -2.0229542 283.84568 -5.1649511 283.84468 L -12.86124 283.84468 z M 51.975675 282.9233 C 46.005681 282.9233 37.269629 280.55031 30.685636 274.71431 L 30.688565 274.71431 C 27.528569 271.19132 23.70419 264.21871 23.70419 264.21871 C 22.843191 263.57371 23.273324 255.61043 23.865323 255.06343 C 24.126323 254.82143 24.467866 254.6855 24.821866 254.6855 C 24.852866 254.6855 24.885081 254.68643 24.917081 254.68843 C 29.185077 254.97443 31.67312 254.95996 35.603116 254.95796 L 35.603116 267.6772 C 35.509116 269.2702 36.559977 271.08944 37.858976 272.52144 C 37.895976 272.56344 37.932304 272.60395 37.970304 272.64595 C 38.832303 273.57195 39.783867 274.32231 40.571866 274.71431 L 40.794523 274.71431 C 42.130521 275.35031 43.786998 275.77339 45.878996 275.77339 L 66.75009 275.77339 C 66.87409 276.02539 66.949309 276.30496 66.949309 276.60396 L 66.949309 281.03511 C 66.949309 282.07911 66.105124 282.9233 65.061125 282.9233 L 51.975675 282.9233 z M -164.77287 282.30074 L -164.77287 282.02681 C -165.38686 278.38682 -166.24796 271.5685 -166.24796 261.91451 C -166.24796 250.72352 -157.63908 237.59371 -157.63908 237.59371 C -156.92408 236.30971 -153.95389 236.71036 -154.62589 239.31636 C -157.37889 245.51536 -161.09092 261.32876 -154.06193 282.30074 L -164.72599 282.30074 L -164.77287 282.30074 z M 101.14462 279.40767 C 95.227628 279.40767 89.565032 274.01654 89.565032 270.35054 C 89.565032 267.26955 89.625598 243.94082 89.645598 236.58882 C 89.787598 236.55482 89.933051 236.53169 90.085051 236.53169 L 95.762786 236.53169 C 96.805785 236.53169 97.652434 237.37834 97.652434 238.42134 L 97.652434 255.2275 L 97.652434 266.46871 L 97.652434 271.71138 C 97.652434 273.65038 111.40885 274.22658 121.21884 274.39058 C 122.21284 274.41558 123.17547 274.42867 124.08847 274.42867 L 124.09286 274.42867 C 126.08586 274.44867 127.79084 274.45311 128.98984 274.45211 C 130.03384 274.45111 130.87949 275.29775 130.87949 276.34175 L 130.87949 279.37252 C 125.96949 279.37952 106.30962 279.40767 101.14462 279.40767 z M 510.25645 277.7275 C 505.86145 277.5305 499.52647 275.33576 499.52647 268.77877 L 499.52647 249.94087 C 499.05547 245.85588 494.60946 244.47299 491.44346 244.33199 L 490.12803 244.35542 C 490.12803 244.35542 480.443 244.33199 478.62901 244.33199 C 477.15201 244.33199 476.43843 243.64418 476.09043 242.78218 C 478.39043 239.71719 482.14952 237.9957 486.52451 237.8647 L 490.79893 237.8647 C 496.13592 237.8667 506.95762 239.23734 506.95762 245.06734 L 506.95762 267.82808 C 506.95762 271.53308 509.43989 272.89184 513.17588 273.00484 C 512.72688 274.86984 511.66545 276.4535 510.25645 277.7275 z M -272.76261 272.28414 C -278.43661 272.28414 -286.99636 261.27891 -288.02336 260.25191 C -288.82536 259.44991 -290.81658 258.06421 -292.72258 257.48921 C -292.17358 256.84721 -291.56603 256.15114 -290.91203 255.40914 C -289.48103 255.10914 -287.75879 255.3314 -286.06779 257.02339 C -286.06779 257.02339 -286.05317 257.03841 -286.03117 257.06441 C -286.04217 257.07541 -286.05633 257.09003 -286.06633 257.10103 C -285.91833 257.26003 -285.70291 257.48435 -285.43791 257.75435 C -283.30391 260.21035 -276.26523 268.0952 -273.17424 268.9692 C -272.91124 269.13119 -272.71262 269.22115 -272.59562 269.22115 C -272.47262 269.22115 -272.27731 269.12531 -272.04631 268.98531 C -269.15931 268.36331 -266.55324 263.67525 -265.13224 263.67525 C -263.68324 263.67525 -259.45299 263.62122 -257.35099 263.59322 C -258.31399 264.67022 -259.29068 265.74162 -260.28068 266.80562 L -263.86076 266.80562 C -265.13276 266.80562 -267.87162 272.28414 -272.76261 272.28414 z M 359.06992 267.18794 C 358.11258 267.18602 357.15233 267.14018 356.19883 267.04293 C 355.71083 266.99393 355.23832 266.93175 354.78232 266.86275 C 354.71032 266.85275 354.64385 266.83859 354.57285 266.82759 C 351.41685 266.32659 349.09951 265.39871 348.25351 264.59371 C 344.67852 261.18871 343.33839 246.03445 348.84238 241.70845 C 353.06438 238.39046 367.05181 240.08281 367.40781 251.7148 C 367.40781 256.0508 358.39316 255.79517 358.39316 253.34517 L 358.37998 253.33785 C 358.14798 251.08185 357.45139 249.41037 356.17539 248.79537 C 351.41639 246.50537 350.8914 251.76285 352.3624 254.19185 C 353.1124 255.42885 355.40546 256.34652 358.42246 256.70552 C 361.28146 257.21452 364.39142 256.81745 367.29941 256.22945 C 374.41941 254.78845 382.03963 250.00898 385.93662 246.95699 L 385.93662 253.41402 C 383.99662 255.54402 380.82655 258.60781 375.91855 262.3188 C 373.40156 263.9678 370.80549 265.11477 368.25449 265.88277 C 367.98749 265.95877 367.72183 266.03736 367.44883 266.10836 L 367.3917 266.123 C 364.7922 266.7935 361.94195 267.19371 359.06992 267.18794 z M 294.27549 266.93892 C 291.44649 266.93892 284.05151 266.50548 281.87851 265.95748 C 280.99951 265.33648 281.20244 257.36374 281.77744 256.80074 C 282.03244 256.55074 282.37119 256.40644 282.72519 256.39644 C 282.75619 256.39544 282.78694 256.39544 282.81894 256.39644 C 287.23994 256.56644 289.73535 256.46857 293.90635 256.34957 C 301.18134 256.14257 308.03818 255.37024 312.58017 253.98824 C 313.95817 253.29524 317.31046 251.62229 319.42246 250.56929 C 320.39046 253.23829 321.19153 256.10967 321.56553 258.94966 C 319.46153 260.99066 314.30867 263.58984 312.39267 264.27584 C 307.51868 266.09083 300.41848 266.81592 294.27549 266.93892 z M 244.94687 266.85543 C 238.81288 266.69043 231.66775 265.50174 225.43076 262.15474 C 219.37776 258.55575 215.10068 248.22023 215.10068 243.86324 L 215.10068 238.00679 C 215.10168 237.98079 215.11479 237.96294 215.11679 237.93794 C 215.11179 237.87494 215.10861 237.81098 215.10361 237.74898 C 215.05861 237.19698 215.51902 236.9529 215.89902 237.0649 C 216.41002 236.9859 216.99545 237.28979 217.11045 238.00679 C 217.11045 238.00679 217.11563 238.03836 217.12363 238.08736 L 217.05771 239.05855 C 217.05771 251.48254 225.19793 254.94757 234.29892 257.95357 C 242.12491 260.53857 254.85829 260.44514 259.82529 259.90914 C 259.96029 260.49114 260.01155 261.23322 259.93955 262.19722 C 259.82155 263.78022 259.52219 265.34243 259.10019 266.85543 L 244.94687 266.85543 z M 181.06943 266.40279 C 175.26256 266.43654 168.17827 265.24287 161.72177 261.66988 C 155.64078 258.09888 151.64511 247.50128 151.64511 243.13228 L 151.64511 238.08003 C 151.66811 237.52903 152.00318 237.22793 152.39218 237.14693 C 153.24718 236.70593 154.53232 237.05059 154.53232 238.32759 C 154.53232 239.00659 154.56321 239.67118 154.62021 240.32417 C 154.62821 240.41217 154.6449 240.49206 154.6539 240.57906 C 155.6059 250.11105 162.54864 256.8032 170.99863 259.59419 C 179.40562 262.37119 190.61976 262.05678 194.20175 261.42378 C 193.81675 262.38678 193.33449 263.19154 192.75449 263.76753 C 191.40649 265.10753 186.8763 266.36904 181.06943 266.40279 z M 431.84483 266.32955 C 431.37685 266.32569 430.91399 266.31652 430.45762 266.30464 C 430.45762 266.29564 430.45569 266.28481 430.45469 266.27681 C 423.9547 265.29481 417.11367 262.95232 411.76768 258.15132 C 406.16568 253.11833 407.7739 244.80104 407.1959 237.74605 C 407.1239 236.86405 408.34152 236.76716 408.46152 237.65816 C 408.85152 240.56316 410.35214 247.46776 415.04014 251.32076 L 415.0416 251.32662 C 420.2716 255.91561 428.87921 260.12219 434.16221 259.59419 C 437.6362 259.2462 439.65265 257.18794 440.66465 255.72994 C 443.95965 255.73094 446.34921 255.71741 450.1832 255.46041 C 450.2152 255.45941 450.24642 255.45748 450.27842 255.45748 C 450.63242 255.45748 450.97296 255.59341 451.23496 255.83541 C 451.29696 255.89141 451.35521 256.0451 451.41221 256.2441 C 450.42921 258.81909 447.7076 264.06591 441.49961 265.50191 C 438.62086 266.16778 435.12064 266.35656 431.84483 266.32955 z M -216.44962 264.55269 C -224.54962 259.9037 -229.63364 244.5186 -231.01164 239.86861 C -230.99664 239.82461 -230.98223 239.77931 -230.96623 239.73531 C -230.73523 238.85031 -229.78814 236.91901 -228.94914 236.81001 C -226.80814 241.76401 -224.14488 246.00572 -221.54289 249.42671 C -220.85089 250.37571 -220.12764 251.27731 -219.38664 252.11031 C -216.60764 255.3703 -214.13417 257.57696 -212.73918 258.60396 C -213.94917 260.60396 -215.17463 262.59869 -216.44962 264.55269 z M -76.707922 260.21382 C -74.85763 260.23829 -72.946203 260.01168 -72.946203 260.01168 L -72.804113 253.48287 C -72.804113 253.48287 -74.955384 252.76656 -76.605383 252.76656 C -78.255381 252.76656 -80.334875 253.12544 -80.334875 253.12544 C -80.334875 253.12544 -80.781788 259.22134 -79.546789 259.79634 C -78.90704 260.09447 -77.818096 260.19915 -76.707922 260.21382 z M 296.95762 219.96724 C 283.40263 219.96724 281.07285 213.59845 281.07285 206.18746 L 281.07285 201.63619 C 281.44385 195.48719 287.13167 190.71484 292.95566 189.75484 L 300.07187 189.72701 C 302.71587 189.57901 305.57684 188.59252 307.28183 186.47652 C 308.04283 185.48452 308.48418 184.35678 308.55918 183.31978 L 308.5709 183.31685 L 308.57236 183.17622 C 308.57436 183.13122 308.57383 183.08692 308.57383 183.04292 L 308.68369 171.24214 C 311.02069 171.30814 313.11967 171.71108 314.91367 172.47408 L 314.91367 184.62202 C 314.91367 190.23102 312.34858 193.0128 308.77158 196.5898 C 305.88458 198.6778 300.02371 199.11641 296.55771 198.93941 C 291.96272 199.00141 289.04958 200.57057 288.89658 204.97456 L 288.89658 207.46773 C 288.89558 210.33373 291.21859 212.65621 294.08359 212.65621 L 302.66172 212.65621 C 311.15171 212.65621 321.12157 205.192 321.95957 199.748 L 322.0123 207.16451 C 321.8033 214.2015 313.23596 219.15155 306.96396 219.93355 C 306.63196 219.94655 306.3054 219.96724 305.9664 219.96724 L 296.95762 219.96724 z M 359.66465 219.80318 L 359.66465 202.90474 C 359.66465 202.90474 359.02222 196.45203 364.14121 194.20503 C 365.91821 193.26803 367.94604 192.84184 369.69004 192.75484 L 373.11924 192.78853 C 374.25724 192.79253 375.47206 192.8752 376.68906 193.0522 L 388.39463 193.65425 L 388.39463 199.9062 C 388.39463 199.9062 375.53315 200.06148 372.33115 200.06148 L 371.08164 200.04976 C 369.81264 200.11876 368.03041 200.78805 367.84141 202.76704 L 367.84141 219.80318 L 359.66465 219.80318 z M 183.19638 219.79439 L 179.59287 219.75777 C 174.21087 219.73277 166.97039 217.51684 167.00839 210.21285 L 167.00839 195.61861 L 175.26718 195.61861 L 175.26718 208.4858 C 175.25518 210.98579 177.73329 211.74486 179.57529 211.75386 L 180.80722 211.76705 C 181.81922 211.72205 183.06936 211.42965 183.96835 210.74165 L 183.97714 210.77388 C 186.03114 209.20888 191.69129 211.37223 190.82529 216.44722 C 190.68229 217.28322 190.16659 217.93692 189.45859 218.45992 C 187.41059 219.30492 185.16038 219.70739 183.19638 219.79439 z M 223.93808 219.4648 C 213.48209 219.0738 217.20786 198.2979 219.40586 197.6899 L 257.39365 178.31001 C 257.76465 179.12701 258.03644 180.02469 258.15244 181.03169 L 258.15244 186.33296 C 255.85244 187.40396 251.47287 189.44385 246.92588 191.56685 L 246.92588 191.47163 L 233.04795 198.07076 C 227.58495 200.66875 223.91757 203.43747 223.91757 205.85347 L 223.91757 211.99263 L 223.91757 212.06294 L 223.91904 212.06294 C 223.91904 212.17294 223.9659 212.30373 224.0289 212.44673 C 224.0439 212.48273 224.05778 212.51867 224.07578 212.55367 C 224.40478 213.23467 225.15097 214.33369 225.15097 216.44869 C 225.15097 218.76368 224.74208 219.4658 223.93808 219.4648 z M -284.33927 219.1689 C -289.50627 219.0139 -293.74703 216.06466 -295.41203 211.69966 C -295.90203 210.41666 -296.17961 209.01693 -296.17961 207.52193 L -296.17961 203.99751 L -289.17912 198.36519 L -277.71086 189.13667 L -258.29728 173.51558 C -255.74928 174.80558 -253.64346 176.88812 -252.95646 179.61812 L -263.90617 188.42915 L -289.17179 208.75826 C -289.10679 211.84625 -286.38605 213.0621 -283.93205 213.3271 C -282.58805 215.7221 -275.52384 219.16744 -275.52384 219.16744 L -284.33927 219.1689 z M 479.89024 218.28414 L 479.89024 188.76167 C 479.89024 185.41468 480.90869 182.87407 481.93369 181.84908 C 486.53069 177.25208 493.26956 173.8847 508.73155 173.0937 L 514.61436 173.26949 L 514.61436 178.5649 C 512.17636 178.5699 507.5537 178.60211 505.87071 178.76411 C 499.01171 179.38011 486.57046 180.16373 485.54746 188.88472 L 485.53574 218.28414 L 479.89024 218.28414 z M 409.13682 218.26216 L 409.15586 203.34126 C 409.52686 197.19227 415.21614 192.42138 421.04014 191.46138 L 428.15635 191.43208 C 430.79935 191.28408 433.66131 190.29906 435.36631 188.18306 C 436.34431 186.90806 436.80082 185.40746 436.61582 184.16646 L 436.71983 172.94576 C 439.07682 173.00776 441.19115 173.41115 442.99815 174.17915 L 442.99815 182.78511 C 442.99815 188.39411 440.43305 191.17542 436.85606 194.75142 C 433.96906 196.83942 430.1087 197.27949 426.6417 197.10249 C 422.0467 197.16349 419.13503 200.84157 418.98203 205.24556 L 418.98057 218.26216 L 409.13682 218.26216 z M -201.00871 218.22554 L -204.26505 218.19624 C -209.31905 218.17324 -216.11841 216.09139 -216.08341 209.2314 L -216.08341 183.43843 C -216.08141 183.06343 -216.1429 182.74466 -216.2299 182.44966 C -214.6929 180.16366 -211.06106 178.78408 -208.32707 182.97408 L -208.32707 207.60982 C -208.34007 209.95882 -206.01117 210.67067 -204.28117 210.67867 L -202.64787 210.69038 C -201.06287 210.61939 -198.83504 209.92828 -198.59904 207.88228 C -198.59904 202.67928 -196.93424 199.92623 -188.73624 199.78023 L -188.73624 204.88228 L -189.71915 204.88228 C -191.48015 204.88228 -193.1923 206.88599 -193.1923 209.18599 C -193.1923 210.85299 -193.99771 217.23154 -201.00871 218.22554 z M 126.14365 212.96089 C 123.65934 212.99026 120.71042 212.45931 118.15292 210.44869 L 95.386321 192.13081 L 95.386321 192.13667 L 90.101165 187.8857 L 90.101165 181.40376 C 90.101165 179.36077 91.503925 174.92618 97.423919 173.03218 C 98.070918 172.82618 98.621047 173.54798 98.231048 174.10298 C 97.054049 175.77498 95.386321 178.54215 95.386321 180.72115 L 95.386321 184.1313 C 95.386321 184.1313 95.462653 184.19169 95.601653 184.30269 L 119.68808 203.68404 C 122.94208 206.36803 128.10053 207.51018 130.41952 207.90718 L 130.41952 210.52486 C 130.33453 211.23886 130.1598 211.8924 129.9288 212.5024 C 128.95718 212.7244 127.63423 212.94327 126.14365 212.96089 z M 62.314543 205.79634 C 60.392545 205.79634 58.819426 203.68404 58.819426 203.68404 L 38.447843 181.36128 C 36.820845 179.57928 33.952724 179.4318 32.327726 181.2148 C 31.683726 181.9218 31.277757 182.86082 31.284757 184.08882 L 31.284757 188.19624 C 31.263757 188.32324 31.233487 188.45017 31.233487 188.57417 C 31.233487 193.69717 24.108487 192.19927 24.108487 186.13228 L 24.108487 183.21431 C 24.108487 177.31932 28.88681 172.54146 34.782804 172.54146 C 37.782801 172.54146 40.644595 173.80346 42.666593 176.02046 L 56.108 190.748 L 63.041105 198.34615 C 63.041105 198.34615 65.361418 200.71816 65.361418 202.88716 C 65.361418 205.05616 64.236541 205.79634 62.314543 205.79634 z M -7.6332128 198.63472 L -7.6332128 188.06148 L -7.6332128 183.63472 C -7.9852125 180.58172 -11.309231 179.54834 -13.674229 179.44234 L -25.666905 179.46138 C -27.661903 179.47038 -30.183593 180.112 -31.221592 182.019 L -39.207921 182.019 C -37.802922 176.312 -32.895293 173.04672 -26.796299 172.86372 L -9.2518652 172.86372 C -8.505866 172.90772 -7.7418918 173.02192 -6.9798925 173.18892 C 1.1690993 180.91091 0.35790053 191.62373 0.25790063 198.63472 L -7.6332128 198.63472 z M -64.621496 192.3315 C -66.241494 192.3315 -69.062767 190.69051 -70.672765 189.37251 L -70.672765 185.49654 C -71.115765 181.65954 -75.292054 180.36049 -78.265051 180.22749 L -80.141515 180.23189 C -84.382511 179.58389 -84.822385 173.21289 -79.43839 173.21089 L -79.429601 173.21089 C -72.607608 173.21289 -68.406652 175.83072 -68.406652 182.03072 C -68.406652 187.24471 -61.385656 185.48372 -61.385656 189.05171 C -61.385656 190.66571 -62.567498 192.3315 -64.621496 192.3315 z M -126.39249 191.98872 C -133.98147 192.26135 -134.82812 183.84773 -136.47208 181.74361 C -136.48408 181.72561 -136.4967 181.70887 -136.5087 181.69087 C -136.5107 181.68887 -136.51356 181.68555 -136.51456 181.68355 L -136.51603 181.68355 C -138.06103 179.59355 -141.01004 178.79734 -143.37003 178.69234 L -167.288 178.71577 L -167.288 172.22359 L -137.59122 172.22359 C -136.96022 172.26059 -136.31581 172.34661 -135.67081 172.47261 C -132.43882 173.30161 -130.30656 176.15159 -130.30656 179.07759 L -130.30656 181.7187 C -130.30656 184.5107 -128.0071 186.40188 -125.6381 186.50288 L -125.6381 191.93453 C -125.89719 191.9619 -126.14769 191.97993 -126.39249 191.98872 z M 418.3668 155.04829 C 413.39166 155.13934 413.72065 150.39684 413.70127 146.51118 C 413.70327 145.29119 413.73088 144.16746 413.80088 143.12447 C 414.41888 140.41647 418.05998 139.21187 419.40098 139.21187 C 420.86798 139.21187 428.89024 139.11372 428.89024 139.11372 C 428.89024 139.11372 427.61703 134.61039 427.12803 129.52339 C 426.83503 126.47539 427.56104 124.17201 428.19004 122.81001 C 429.25704 122.86501 430.25278 123.49932 430.70078 124.54732 L 430.83701 124.86519 C 431.17501 125.65619 431.11359 126.54173 430.75059 127.32173 C 430.49559 127.86873 430.29929 128.56124 430.24229 129.32124 C 430.24129 129.32124 430.23789 129.32417 430.23789 129.32417 C 430.23689 129.34117 430.23596 129.35798 430.23496 129.37398 C 430.23196 129.41098 430.23257 129.44877 430.23057 129.48677 C 430.03957 133.01677 430.36443 135.99373 432.21543 139.11372 L 438.00596 138.99214 C 439.09596 138.96914 439.98461 140.0372 440.27061 141.1982 C 438.69361 141.4662 435.60504 141.54808 432.31504 141.55708 C 432.59704 147.60308 432.56906 154.77239 426.93906 155.02339 L 418.86484 155.02339 C 418.69313 155.03658 418.52729 155.04536 418.3668 155.04829 z M 501.47325 154.99556 C 495.86825 154.99556 496.10408 149.52483 496.08408 144.65083 C 496.08908 143.53983 496.08389 142.40027 496.13389 141.29927 L 496.08408 141.29927 L 494.01573 141.29927 C 489.36373 141.27827 484.14268 141.52429 484.14268 135.6523 L 484.14268 130.19868 L 490.50157 130.24556 C 490.47157 130.39856 490.44072 130.54956 490.43272 130.72456 L 490.43272 132.50288 C 490.52572 134.46488 492.02073 134.99458 494.01573 134.99458 L 496.08408 134.99458 C 498.07908 134.99458 499.57409 134.46488 499.66709 132.50288 L 499.66709 130.72456 C 499.59209 129.13556 498.58942 128.49364 497.15342 128.30464 C 494.28142 126.56964 496.85245 120.63348 500.40244 122.06148 C 503.47144 122.38448 505.95567 123.52315 505.95567 127.57515 L 505.95567 134.30757 L 509.18272 134.30757 C 514.78771 134.30757 514.55088 139.77684 514.57188 144.65083 C 514.55088 149.52483 514.78771 154.99556 509.18272 154.99556 L 501.47325 154.99556 z M -268.23625 154.25288 C -269.96924 154.24888 -272.82838 154.24177 -275.52238 154.23677 C -280.47737 154.08077 -286.95842 150.08762 -286.95842 142.51363 C -286.95842 135.11663 -282.56031 119.83607 -268.54533 108.93208 L -258.18595 108.93208 C -260.77195 110.76708 -265.10571 113.88116 -266.9047 115.40816 C -267.3947 115.40816 -268.76992 117.10726 -269.14591 117.46626 C -269.90791 118.19126 -270.6538 118.93229 -271.3798 119.69429 C -272.8068 121.19129 -274.15843 122.76492 -275.37443 124.43892 C -277.73143 127.68191 -279.57665 131.33202 -280.34465 135.28902 C -280.66765 136.95401 -280.79915 138.65212 -280.74015 140.34712 C -280.69715 141.54912 -280.71726 142.86956 -280.27726 144.01656 C -280.19126 144.24055 -280.08732 144.45795 -279.96232 144.66695 C -279.25732 145.84194 -278.05341 146.73592 -276.83341 147.31392 C -274.21342 148.55692 -271.1074 148.66577 -268.2714 148.34077 C -264.70241 148.04077 -261.42079 145.3059 -261.04679 141.6479 L -253.95841 141.63911 C -253.32141 149.28811 -259.34347 154.05988 -266.56047 154.25288 L -268.23625 154.25288 z M 47.354093 150.65962 C 50.34709 150.65962 51.525968 145.73194 51.525968 140.06294 L 51.525968 123.12495 C 51.054969 119.53996 46.608957 118.32708 43.44296 118.20308 L 42.128995 118.22359 C 38.673999 118.23859 34.024917 119.4875 34.048917 123.60249 L 34.048917 126.71236 L 34.048917 138.47359 L 34.048917 146.91841 C 34.048917 148.21341 32.928521 149.08431 31.794523 148.98531 C 30.958523 148.55331 30.184252 148.05105 29.493253 147.47505 C 28.703254 146.68505 28.055897 146.00877 27.528897 145.34077 C 26.608898 144.03278 25.997733 142.53683 25.785733 140.90083 C 25.724733 140.32083 25.693448 139.68345 25.693448 138.95845 L 25.693448 123.60249 C 25.693448 116.7155 31.277557 112.71927 38.52255 112.52827 L 49.171964 112.52827 C 53.42596 112.52827 57.627043 117.48535 57.627043 120.98335 L 57.627043 143.52437 C 57.627043 147.43736 53.808066 150.65962 49.73007 150.65962 L 47.354093 150.65962 z M -7.5043066 150.43697 C -11.956302 150.40397 -17.093677 149.11725 -19.905674 145.48726 C -21.621672 142.76826 -22.690342 138.97592 -22.690342 134.77193 C -22.690342 130.06893 -21.353 125.87627 -19.267002 123.13228 C -16.188005 119.81728 -11.371074 120.94247 -9.2430762 122.87446 C -9.2430762 122.87446 -12.12809 123.16711 -14.055088 125.41011 C -15.386087 127.69411 -16.211338 130.84022 -16.211338 134.32222 C -16.211338 137.76922 -15.404102 140.89034 -14.096104 143.17134 C -12.293105 147.12734 -2.629025 149.0811 1.379971 143.78511 L 1.379971 144.49263 C 1.2399711 146.00563 0.7010131 147.3546 -0.1009861 148.5356 C -2.0969841 149.6856 -4.5043096 150.45997 -7.5043066 150.43697 z M 166.52353 150.32417 C 159.27854 150.10717 153.69443 145.55207 153.69443 137.70308 L 153.69443 125.48482 C 153.69443 118.35682 159.27854 113.08072 166.52353 112.86372 L 181.42685 112.86372 C 186.05185 113.13472 191.3332 115.82636 192.9332 120.33736 L 192.9332 120.37251 C 192.9332 121.48151 191.69394 121.6103 191.69394 121.6103 L 179.4332 121.6103 C 179.4332 121.6103 178.87669 121.72042 178.18369 121.35542 C 177.07269 119.98042 175.39545 119.41947 173.44345 119.33247 L 168.129 119.35445 C 164.673 119.37145 162.02443 120.79482 162.04843 125.48482 L 162.04843 135.7021 C 162.03843 137.8151 162.36139 139.2234 163.80039 140.6064 L 163.80331 140.62544 C 164.59831 140.13944 165.52353 139.84322 166.52353 139.84322 C 169.41753 139.84322 171.76328 142.19043 171.76328 145.08443 C 171.76328 147.97842 169.41753 150.32417 166.52353 150.32417 z M 228.52451 150.32417 C 221.27852 150.10717 215.69394 144.83107 215.69394 137.70308 L 215.69394 125.48482 C 215.69394 117.63582 221.27852 113.08072 228.52451 112.86372 C 231.7495 112.86372 234.2955 115.77814 233.6705 119.11714 C 233.3085 121.05114 231.81025 122.64318 229.91025 123.15718 C 228.38025 123.57118 226.95529 123.26745 225.80429 122.56245 L 225.7999 122.58003 C 224.3609 123.96303 224.03841 125.37133 224.04941 127.48433 L 224.04941 136.70259 C 224.02441 141.39259 226.67252 142.81596 230.12851 142.83296 L 233.25742 142.83736 C 233.88842 141.97836 235.10312 140.01304 235.10312 137.62105 C 235.10312 135.31505 233.91012 133.45399 232.74912 132.41499 C 231.95312 131.70199 231.4498 130.7213 231.4498 129.6523 L 231.4498 129.22456 C 231.4498 127.24256 233.05621 125.63716 235.0372 125.63716 L 235.75644 125.63716 C 239.92944 125.63716 242.42148 130.42889 242.42148 135.50288 C 242.42148 138.90688 241.49376 141.26201 240.43076 142.852 C 239.11576 144.947 236.0405 150.33117 228.52451 150.32417 z M 357.28135 150.32417 C 355.78335 150.27917 354.36309 150.00706 353.04209 149.55806 C 354.62309 148.90706 358.64606 148.21919 368.60605 148.21919 C 376.03405 148.21919 380.08604 145.4807 380.08604 141.69771 L 380.08604 123.82808 C 380.08604 120.04508 378.83498 118.42194 377.40098 117.29195 C 374.60598 115.08995 366.65049 112.52339 366.65049 106.00239 L 366.57578 105.10005 L 366.57578 103.93843 L 386.62363 103.93843 L 386.62363 106.94136 L 382.14707 106.94136 L 382.14707 117.63911 C 383.23507 118.97211 383.96979 120.55703 384.13779 122.37202 L 384.13779 140.81441 C 383.60679 146.5454 377.4662 150.01417 372.1832 150.32417 L 357.28135 150.32417 z M 300.61387 150.32271 C 305.05286 150.31971 315.86728 147.56436 315.86728 140.52437 L 315.86728 123.69771 C 315.86728 120.56671 312.1458 119.42476 309.3458 119.42476 L 303.82041 119.42476 L 303.82041 115.54878 C 303.82041 114.06678 305.021 112.86372 306.504 112.86372 L 309.42637 112.86372 C 314.70936 113.17372 320.84996 116.64149 321.38096 122.37349 L 321.38096 140.81441 C 320.84996 146.5464 314.70936 150.01271 309.42637 150.32271 L 300.61387 150.32271 z M 422.92393 149.873 C 423.97393 149.887 425.19381 149.35336 425.32481 148.19136 L 425.32627 142.45943 C 423.68127 142.62543 420.28334 141.85429 420.17734 144.34029 L 420.11436 147.69771 C 420.05236 149.05871 420.50169 149.79135 421.93369 149.85835 L 422.92393 149.873 z M 504.4791 148.40523 L 506.17686 148.40523 C 508.04886 148.30823 508.5543 146.74083 508.5543 144.65083 C 508.5543 142.56083 508.04886 140.99344 506.17686 140.89644 L 504.4791 140.89644 C 502.60611 140.99344 502.10166 142.56083 502.10166 144.65083 C 502.10166 146.74083 502.60611 148.30823 504.4791 148.40523 z M -95.079992 142.66011 C -95.079992 142.66011 -97.793594 136.44681 -93.950598 131.48482 C -91.7256 129.75682 -88.613532 128.67818 -85.161535 128.67818 C -81.763538 128.67818 -78.691544 129.72132 -76.473547 131.40132 C -72.223551 135.34532 -73.240636 142.31734 -73.240636 142.31734 C -73.240636 142.31734 -73.609549 140.43069 -76.473547 138.17769 C -78.353545 136.34869 -81.373398 135.15718 -84.792394 135.15718 C -88.433391 135.15718 -91.613482 136.51237 -93.455481 138.54536 C -93.68048 138.75436 -93.849598 138.95005 -93.950598 139.12105 C -94.963597 140.82905 -95.079992 142.66011 -95.079992 142.66011 z M 103.00644 141.76216 C 100.40109 141.66654 97.463469 139.94885 97.463469 138.02241 L 97.463469 134.49068 L 97.463469 127.6689 C 97.463469 120.85391 102.31361 116.89987 108.60361 116.71187 C 108.60361 116.71187 111.55185 116.43062 114.94784 116.43062 C 117.25184 116.43062 119.46109 116.56002 120.64609 116.64302 C 120.64609 116.66002 120.64169 116.67582 120.64169 116.69282 C 120.64169 118.58382 119.45657 122.32661 114.89658 122.32661 L 113.04794 122.33833 C 112.98994 122.33533 112.93063 122.32961 112.87363 122.32661 L 111.73398 122.34712 C 108.73298 122.36112 104.69638 123.5979 104.71738 127.6689 L 104.71738 131.3398 C 106.81537 132.0898 108.31796 134.08978 108.31796 136.44478 C 108.31796 138.80078 106.81537 140.80022 104.71738 141.55122 C 104.19181 141.71922 103.60767 141.78423 103.00644 141.76216 z M -193.73283 136.26021 C -193.74083 136.13221 -193.74601 135.99945 -193.74601 135.85445 C -193.74601 130.70645 -199.91518 126.13228 -203.46818 126.13228 L -203.47257 118.99849 C -203.96857 115.14349 -208.64553 113.83754 -211.97453 113.70454 L -213.35587 113.72652 C -216.99087 113.74152 -221.8799 115.08519 -221.8549 119.51118 L -228.57853 119.51118 C -229.30053 112.14419 -223.30713 107.80554 -216.47013 107.60054 L -202.40763 107.60054 C -197.42264 107.89354 -191.62787 111.16618 -191.12687 116.57417 L -191.06535 129.30952 C -191.29435 132.01752 -192.19383 134.41421 -193.73283 136.26021 z M 114.97275 115.62202 C 115.23875 111.21003 117.75884 108.74312 123.53183 108.74312 L 125.37753 108.74312 L 125.37753 114.52925 L 122.4039 114.52925 C 121.6979 114.52925 121.16793 115.00302 120.88193 115.62202 L 114.97275 115.62202 z M 377.33799 114.12056 L 377.33799 106.94136 L 374.73203 106.94136 L 374.73203 113.25337 C 375.61503 113.46437 376.49199 113.75256 377.33799 114.12056 z M -284.52092 91.214796 C -289.45091 91.358796 -290.27926 88.419331 -290.29826 84.567335 C -290.28826 77.035342 -289.47284 72.785878 -281.73185 72.773878 C -281.47085 70.36688 -279.4559 68.487745 -276.9799 68.487745 C -274.4809 68.487745 -272.45162 70.400798 -272.22062 72.839796 L -270.94767 72.845655 C -267.27768 72.849655 -264.44323 72.744215 -264.71623 62.905225 C -264.41123 51.900236 -267.99261 53.074006 -272.28361 52.956006 L -275.74504 52.956006 L -278.19279 46.241162 C -272.2708 46.167162 -263.61178 46.078764 -262.71379 46.882764 C -258.14879 49.307761 -258.61703 55.501651 -258.66203 59.887647 L -258.66203 65.924268 C -258.61703 70.310264 -258.14879 76.504154 -262.71379 78.929151 C -263.30979 79.462151 -267.32296 79.601698 -271.68595 79.614698 C -274.11195 79.614698 -276.69662 80.066042 -278.01261 80.517042 C -279.65761 80.683042 -283.71618 79.911904 -283.82218 82.397901 L -283.88078 90.546827 C -283.88278 90.902827 -284.16492 91.203796 -284.52092 91.214796 z M 111.39413 91.044874 C 109.70414 87.562878 113.24366 82.489626 118.20566 84.763624 C 118.08366 88.070621 117.38466 91.044874 113.16367 91.044874 L 111.39413 91.044874 z M 437.03477 90.521925 C 436.83777 90.518927 436.63471 90.510585 436.42393 90.497023 L 426.51133 90.495558 C 416.56234 90.123558 420.85879 74.984267 420.03379 69.778272 L 423.99912 69.778272 L 423.99912 59.452588 L 428.4918 59.452588 L 428.4918 69.778272 L 435.48936 69.778272 C 441.98935 70.748271 442.75231 74.946685 442.76231 81.719679 C 442.73906 85.725456 443.14171 90.614852 437.03477 90.521925 z M 501.03526 90.521925 C 500.83826 90.518925 500.6352 90.510585 500.42442 90.497023 L 490.51182 90.495558 C 480.56283 90.123558 484.85781 74.984267 484.03282 69.778272 C 484.03282 67.381274 481.91261 65.537549 477.97862 65.537549 L 477.97862 61.062452 L 481.93955 61.062452 C 486.12955 61.062452 489.04258 65.992276 489.04258 69.778272 L 499.48838 69.778272 C 505.98838 70.749271 506.75133 74.946685 506.76133 81.719679 C 506.73808 85.726425 507.1422 90.61491 501.03526 90.521925 z M -11.96915 90.259718 C -12.53115 90.259718 -13.075135 90.018495 -13.428135 89.581495 C -16.882131 85.309499 -19.179035 79.331329 -20.474033 73.317335 C -20.474033 73.317335 -21.569952 68.752287 -21.664951 64.673291 C -21.759951 63.130293 -21.793842 61.640462 -21.752842 60.249463 C -21.397842 48.136475 -6.681063 46.595822 -1.5350682 50.213818 C -0.92606877 50.642818 -0.3810481 51.177061 0.10995141 51.787061 L 0.7017483 52.600049 L 0.7017483 52.601514 C 2.2337468 56.58651 -1.321201 56.609326 -1.321201 56.609326 L -7.7079199 56.609326 L -7.7328222 56.653272 C -8.5628214 56.556272 -9.4978858 56.694448 -10.521885 57.208448 C -12.375883 58.137447 -13.02849 61.361382 -12.76749 65.461377 C -12.76749 65.461377 -12.56761 70.128026 -11.116611 74.372022 C -9.6986128 79.241017 -7.4834132 84.049295 -4.7914159 87.173292 C -3.7504169 88.382291 -4.6568668 90.259718 -6.2518652 90.259718 L -11.96915 90.259718 z M 307.25107 90.258253 L 298.92783 90.255323 C 295.70683 90.166323 293.47629 86.990168 293.47129 83.949171 L 293.46689 77.309034 L 293.46689 69.406202 L 293.4625 56.332471 C 293.6455 52.415475 289.98363 53.086705 287.24863 52.822705 L 287.24863 49.25874 C 288.31463 49.13974 290.09003 48.984815 292.12803 48.984815 C 297.23202 48.984815 300.69004 53.224704 300.69004 56.093701 L 300.69004 69.436963 L 304.80039 69.436963 C 305.22939 69.436963 305.67275 69.443077 306.11875 69.453077 C 311.82674 69.998076 312.61892 75.379246 312.56992 80.571241 L 312.56992 82.852003 C 312.42892 87.079999 312.52207 90.387253 307.25107 90.258253 z M 39.895109 89.95796 C 35.967113 89.95796 32.084562 87.132932 32.084562 82.958936 L 32.084562 65.461377 C 32.084562 57.523385 42.833585 57.784222 42.833585 54.655225 L 42.833585 43.613232 L 48.569914 43.613232 L 48.569914 52.695264 L 48.569914 54.130811 C 48.569914 57.847807 46.00086 59.647254 43.467863 61.383252 C 42.528864 61.741252 41.694264 62.306574 41.055265 63.161573 C 40.818265 63.364572 40.587112 63.571991 40.374113 63.789991 C 38.738114 65.458989 39.209562 72.630323 39.209562 72.630323 L 39.209562 78.831007 C 39.636561 82.529003 43.662924 83.780155 46.527921 83.908155 L 50.469816 83.887647 C 51.751815 83.887647 54.212298 83.624244 55.387297 82.550245 C 55.387297 82.550245 55.185148 82.267198 55.185148 81.677198 C 55.185148 79.4452 56.993189 77.637159 59.225187 77.637159 C 61.458185 77.637159 63.268156 79.4452 63.268156 81.677198 C 63.253156 82.185198 63.200461 82.677085 63.130461 83.161085 C 61.593462 87.104081 58.015249 89.95796 53.868254 89.95796 L 39.895109 89.95796 z M 170.9122 89.688429 C 168.5642 89.688429 167.38925 87.339331 167.38925 83.817335 L 167.38925 77.320753 L 162.17001 77.320753 L 162.17001 77.311964 L 153.98886 77.311964 C 153.99486 74.063967 157.28657 71.785108 163.06357 71.785108 L 167.19443 71.785108 L 167.19443 48.165967 L 173.31015 48.165967 L 173.31015 56.068799 L 173.31015 69.409131 L 173.31015 72.861768 L 179.03037 72.861768 C 182.45436 72.861768 183.45419 77.407937 183.45419 78.458936 L 183.45419 84.013624 C 183.45419 87.143621 181.27999 89.686964 178.14999 89.686964 C 176.063 89.686964 170.9122 89.688429 170.9122 89.688429 z M 431.44053 85.186964 L 432.65635 85.170851 C 434.41535 85.101851 434.96524 84.348287 434.89024 82.944288 L 434.81113 79.482862 C 434.68113 76.919865 430.5118 77.715409 428.4918 77.543409 L 428.49326 83.452589 C 428.65426 84.650588 430.15153 85.200964 431.44053 85.186964 z M 495.44102 85.186964 L 496.65537 85.170851 C 498.41437 85.101851 498.96526 84.348287 498.88926 82.944288 L 498.81162 79.482862 C 498.68162 76.920865 494.51229 77.715409 492.49229 77.543409 L 492.49229 83.452589 C 492.65229 84.650588 494.15202 85.200964 495.44102 85.186964 z M 175.82382 84.956983 C 176.84182 84.938983 178.48832 84.969834 178.63632 83.629835 C 178.65432 78.04684 179.57714 77.131569 173.31015 77.307569 L 173.31162 83.216749 C 173.44562 84.431748 174.73782 84.961983 175.82382 84.956983 z M 303.06601 84.948194 L 304.08701 84.948194 C 306.41701 85.066194 305.95762 82.326376 305.95762 80.836378 C 305.95762 78.66138 305.78162 77.271639 303.16562 77.304639 L 300.71494 77.304639 L 300.71494 83.695753 C 301.09594 84.601752 302.15601 84.940194 303.06601 84.948194 z M -193.31681 82.676222 C -196.05581 82.676222 -199.38126 80.914324 -199.38126 77.984327 L -199.38126 54.208447 L -199.38126 51.816358 C -199.38126 51.767358 -199.38259 51.717873 -199.38859 51.669873 C -199.68059 49.304876 -200.82191 47.51968 -202.39591 46.198682 C -203.07491 45.628682 -202.63445 44.512646 -201.74845 44.512646 L -198.41154 44.512646 C -195.07654 44.512646 -191.44474 48.534934 -191.44474 50.979932 L -191.44474 71.830518 C -191.44474 73.251517 -190.26156 73.717237 -189.55656 73.717237 C -189.18156 73.717237 -188.48283 74.915223 -188.48283 76.676221 L -188.48283 77.984327 C -188.48283 80.629324 -190.57781 82.676222 -193.31681 82.676222 z M -89.608801 78.028272 C -92.228798 75.999274 -96.124644 75.159178 -99.219641 74.782178 C -100.26164 62.375191 -96.537893 52.655769 -83.416906 49.715772 L -80.961828 56.442334 C -82.734826 57.123334 -84.159232 58.050664 -85.29923 59.178662 C -86.03823 59.872662 -86.685219 60.700929 -87.237219 61.750928 C -88.310218 63.686926 -88.891149 65.966466 -89.115148 68.499463 C -89.112148 68.499463 -89.109359 68.499928 -89.106359 68.500928 C -89.437359 71.011926 -89.606801 74.119276 -89.608801 78.028272 z M 363.30332 76.742139 C 359.18032 76.742139 355.41485 74.56395 355.32285 65.207959 L 355.32139 64.8271 L 355.31553 64.8271 L 355.31553 61.011182 L 355.3082 55.860791 C 355.3572 52.452795 351.46052 53.013014 349.10752 52.789014 L 349.10752 44.892041 C 354.97751 44.892041 360.1085 50.13234 360.1085 56.067334 L 360.1085 66.828077 C 360.1085 68.915075 360.75918 69.371045 363.20518 69.371045 L 364.06797 69.371045 L 364.06797 69.390088 C 364.29397 69.377088 364.49257 69.379045 364.70957 69.371045 L 366.34434 69.371045 C 371.90433 69.590045 373.68448 72.180144 374.21348 76.742139 L 363.30332 76.742139 z M -125.43888 76.370069 C -125.43888 76.370069 -130.07774 76.370371 -131.54874 69.961378 C -131.54874 69.961378 -133.73494 69.990366 -135.51993 70.024366 C -136.11193 70.041366 -136.70312 70.058057 -137.30411 70.058057 C -144.81711 70.058057 -151.69524 68.677621 -157.02824 66.388624 L -160.47355 64.660108 C -160.47355 64.660108 -164.6108 62.024969 -167.40079 59.519971 C -167.2448 57.237973 -166.86708 55.234461 -166.36808 53.499463 C -164.65708 54.648462 -162.24012 56.256394 -160.65812 57.252393 C -155.12812 61.276389 -146.00566 63.908643 -135.67667 63.908643 C -135.62367 63.908643 -135.57193 63.905713 -135.51993 63.905713 C -135.51993 63.905713 -125.43888 64.20291 -125.43888 65.730909 L -125.43888 76.370069 z M 222.16709 70.072706 L 222.16709 58.934034 L 229.22763 58.934034 L 229.22763 44.94331 C 231.33663 45.16731 246.55629 44.315777 248.09629 45.694775 C 253.47128 48.548773 252.91982 55.841328 252.86582 61.005323 L 245.73789 61.005323 L 245.73789 58.331983 C 246.10089 51.724989 243.02282 52.985143 237.96982 52.846143 L 237.96982 63.344678 C 237.73082 67.262674 233.70943 70.072706 230.67343 70.072706 L 229.22763 70.072706 L 222.16709 70.072706 z M 105.90976 61.696729 C 100.63576 61.696729 100.85747 57.054381 100.83847 52.919385 C 100.85747 48.784389 100.63576 44.143506 105.90976 44.143506 L 107.58115 44.143506 C 106.96115 46.867503 106.59985 49.566306 106.53085 52.235303 C 106.51185 52.455303 106.50009 52.681385 106.50009 52.919385 C 106.50009 52.922385 106.50156 52.925174 106.50156 52.928174 C 106.48056 55.889171 106.84819 58.812732 107.60019 61.696729 L 105.90976 61.696729 z M 428.4918 52.611768 C 428.2388 52.598768 427.98819 52.583498 427.74619 52.560498 L 423.99912 52.560498 L 423.99912 44.663525 L 427.74619 44.663525 L 428.4918 44.66499 L 428.4918 52.611768 z M -96.861242 28.49165 L -96.861242 23.270947 C -96.917242 21.993948 -95.950327 20.660595 -94.649328 20.660595 C -93.24233 20.660595 -88.52798 20.646009 -88.01798 20.435009 C -86.581982 19.91201 -86.23125 18.19893 -86.19425 16.854931 L -86.19425 14.698681 L -102.38224 14.698681 L -102.38224 4.8842275 L -86.630773 4.8842275 C -82.695777 4.8852275 -79.506703 8.0771613 -79.508703 12.012157 L -79.513097 18.990673 C -79.635097 23.231669 -82.097391 28.25465 -86.834387 28.49165 L -96.861242 28.49165 z M -37.007725 27.467724 L -37.007725 21.782665 L -27.462803 21.782665 C -21.00181 21.782665 -15.001377 21.374611 -15.001377 14.159618 C -15.001377 4.2666282 -8.3708367 -1.1591093 -3.3778416 -1.8101086 C -3.046842 -1.8371086 -2.7187475 -1.8674915 -2.3817479 -1.8774915 L -1.9364354 -1.8774915 C -0.88943641 -1.8774915 -0.031911843 -1.0465607 8.8125002e-05 0.00043828126 L 0.082119377 2.6386219 C 0.11111935 3.568621 -0.54217844 4.3553566 -1.4471775 4.5663564 C -4.6011744 5.3023556 -7.5575331 7.238302 -7.5365332 11.256298 L -7.5365332 18.958447 C -7.5365332 24.045441 -13.566322 27.467724 -20.462315 27.467724 L -37.007725 27.467724 z M -214.82658 26.262158 C -216.71258 26.262158 -218.9005 23.673615 -220.6215 19.784618 L -211.87492 19.784618 C -211.10292 23.551615 -209.96956 26.262158 -208.30656 26.262158 L -214.82658 26.262158 z M -267.75724 26.256298 C -270.31424 26.185298 -272.4202 24.047643 -272.9882 21.637646 C -273.4182 19.606648 -273.03363 17.265335 -273.82463 15.296337 C -275.16462 11.757341 -279.04112 10.332629 -278.78312 5.9506337 L -278.79191 -7.6680189 C -278.60891 -11.585015 -282.27032 -10.91232 -285.00431 -11.17632 L -285.00578 -15.279347 L -279.38078 -15.279347 C -277.32678 -15.279347 -274.4633 -13.3232 -274.4633 -10.681203 L -274.4633 3.5922352 C -274.4633 8.6792302 -267.64738 11.405852 -267.64738 15.045849 L -267.64738 19.181103 C -267.54338 20.396102 -266.25979 20.963704 -265.17179 20.947704 C -264.24479 20.966704 -263.45944 20.920704 -262.93644 20.572704 L -262.91886 20.569775 C -262.00386 19.755776 -257.90945 19.714865 -255.74845 20.336865 C -255.75045 20.448864 -255.75231 20.565244 -255.75431 20.675243 C -256.07731 24.876239 -257.41612 26.358833 -261.70011 26.254833 L -267.75724 26.256298 z M -222.71623 13.308544 C -223.27523 10.795547 -223.60978 8.104174 -223.60978 5.4071767 C -223.62478 2.1741799 -223.74657 -3.1060766 -222.49357 -6.1240736 C -220.11157 -12.404067 -214.3365 -17.227505 -207.80851 -18.689504 L -205.34611 -11.949757 C -208.51011 -10.745759 -211.13656 -8.206047 -212.53556 -5.1250501 C -213.12156 -4.0810512 -213.50675 -2.9767286 -213.50675 -1.8467297 C -213.50675 0.67426775 -213.41956 7.1855502 -212.80656 13.308544 L -222.71623 13.308544 z M -146.62785 7.7377432 C -151.44884 7.7467432 -158.64989 7.3111413 -160.41788 -8.2378432 C -160.47388 -8.7268427 -160.50035 -9.1880937 -160.52335 -9.6440932 C -159.60035 -24.531078 -138.32161 -18.134328 -133.74161 -18.134328 C -132.98362 -18.134328 -132.36906 -17.521233 -132.36906 -16.763234 L -132.36906 -15.44048 C -132.36906 -14.682481 -132.98362 -14.067921 -133.74161 -14.067921 L -145.7841 -13.476125 C -150.21809 -12.693125 -154.35472 -11.279004 -151.65372 -4.085011 C -151.56972 -3.8600113 -151.44949 -3.6501983 -151.30949 -3.4521985 C -151.30549 -3.4381985 -151.3047 -3.4251829 -151.3007 -3.4111829 C -150.6537 -1.341185 -147.615 -1.1152375 -146.288 -1.1172375 C -146.227 -1.1252375 -146.16643 -1.1348157 -146.10343 -1.1348157 L -144.92277 -1.1348157 L -143.58976 -1.1348157 L -140.54142 -1.1348157 L -137.56632 -1.1348157 C -136.80832 -1.1348157 -136.19376 -0.52025627 -136.19376 0.23774297 L -136.65372 6.3505361 C -136.65372 7.1085353 -137.26828 7.7230947 -138.02628 7.7230947 L -146.62785 7.7377432 z "
    transform="matrix(1.3333333,0,0,-1.3333333,408.61707,900.7916)" />
</svg>
