<?xml version="1.0" encoding="UTF-8" standalone="no"?>
<svg version="1.1" width="1109.3333" height="1024" viewBox="0 0 1109.3333 1024" xmlns="http://www.w3.org/2000/svg">
 <path
    d="m -250.40488,738.61479 c -4.57776,-0.0126 -8.74658,-1.10303 -8.74658,-1.10303 l 0.84814,-6.78222 c 0,0 9.55946,1.4168 13.56446,-0.3252 4.00499,-1.742 6.17009,-5.89244 5.87109,-10.04443 0,0 -3.26122,2.47851 -10.59521,2.47851 -9.88399,0 -15.03593,-6.71778 -15.75293,-12.71777 -2.316,-19.36498 7.07498,-20.95166 18.66797,-20.95166 11.78498,0 21.12092,1.71199 19.29492,21.66797 -1.622,17.72898 -5.05691,25.6274 -19.96289,27.5874 -1.05375,0.13856 -2.13256,0.19334 -3.18897,0.19043 z m 195.99903,-0.79101 c -9.65199,0 -18.644532,-6.78273 -18.644532,-22.30372 0,-18.26098 8.602067,-25.75048 19.831056,-25.75048 5.667994,0 11.173828,0.70605 11.173828,0.70605 v 6 c 0,0 -8.654184,-1.00518 -12.65918,0.73682 -4.004996,1.742 -7.109058,7.30015 -6.810059,11.45215 0,0 3.978996,-2.79639 11.312989,-2.79639 8.969991,0 14.969239,6.78142 14.969239,15.04541 0,15.17698 -11.347349,16.91016 -19.173341,16.91016 z m -65.26465,-0.8086 c -3.92988,0.003 -10.13959,-0.20575 -13.20996,-3.70312 -3.51,-3.997 -4.53182,-15.49002 2.80517,-18.68701 0,0 -4.89239,-2.49761 -5.90039,-5.99561 -1.007,-3.497 -2.19424,-13.81311 5.23975,-16.78711 3.073,-1.229 7.00873,-1.6377 12.59473,-1.6377 5.58599,0 9.52173,0.4087 12.59472,1.6377 7.433996,2.974 6.246749,13.29011 5.23975,16.78711 -1.008,3.498 -5.89893,5.99561 -5.89893,5.99561 7.336997,3.19699 6.314177,14.69001 2.80518,18.68701 -3.51,3.99699 -11.12173,3.69726 -14.74072,3.69726 -0.4525,0 -0.96789,0.005 -1.5293,0.006 z m -389.35841,-0.55078 c -5.76399,-0.269 -12.29211,-4.04555 -12.28711,-10.43555 -0.262,-6.44199 2.17469,-8.61421 6.67969,-12.6372 4.122,-3.559 9.4035,-7.33883 13.6875,-10.69483 1.419,-1.277 4.72691,-3.63333 4.83691,-5.09033 H -522.671 v -6.47754 h 41.06104 l -0.003,6.50244 c -4.435,4.793 -10.01027,9.63135 -15.21826,13.54834 -3.59,2.556 -7.57719,5.39204 -10.51319,8.70703 -0.427,0.466 -0.70554,1.01794 -0.85254,1.60694 -0.127,0.507 -0.0789,3.67353 0.14209,4.49853 1.571,3.781 6.3636,4.83083 10.07959,4.69483 4.347,0.082 8.7877,-2.12408 9.2417,-6.85108 l 7.11328,0.001 v 2.02588 c -0.687,7.00099 -6.57717,10.62007 -13.20117,10.60107 z m 140.81397,0 -25.77686,-22.53809 v -6.47753 h 26.61915 v -9.84375 h -26.61915 v -6.47608 h 39.70167 v 45.33545 z m 166.22315,0 v -6.47607 h 26.61914 v -7.05909 l -14.44336,-20.1416 v -11.65869 h 15.67383 v 11.65869 l 11.85205,20.72461 v 12.95215 z m -128.68067,-0.003 v -6.47754 h 27.97998 v -7.51318 l -19.9248,-0.13623 c -4.901,-1.022 -7.63785,-4.80526 -8.04785,-9.65625 l 0.007,-12.03662 c 0.532,-5.731 6.6716,-9.1983 11.95459,-9.5083 h 14.90186 c 7.24499,0.217 13.59656,4.8141 12.83056,12.62109 h -7.12353 c 0.027,-4.69 -5.15387,-6.11437 -9.00586,-6.13037 l -1.46485,-0.0234 c -3.52899,0.141 -8.48425,1.52436 -9.01025,5.61035 l -0.006,9.01172 c 0.256,2.818 3.60423,3.86597 6.03223,3.77197 7.03999,0.023 14.9035,-0.0895 21.9375,-0.0645 v 20.53125 z m -293.92969,-0.003 -12.80127,-0.0205 c -3.912,-0.266 -6.38077,-3.57234 -6.78076,-7.27734 0,0 -0.0428,-29.34499 0.0132,-29.79199 0.507,-4.069 3.29433,-7.77896 6.75732,-8.23096 l 13.13379,-0.003 c 4.289,0.457 7.89727,4.23233 8.19727,8.52832 l -0.0103,29.30713 c -0.404,4.221 -4.33628,7.47028 -8.50927,7.48828 z m 179.31299,-0.0132 c -6.98899,-0.644 -12.71297,-5.06034 -12.02197,-12.59033 h 7.12353 c -0.012,5.10799 5.89339,6.16299 9.92139,6.16699 3.651,-0.051 8.98757,-1.36401 9.55957,-5.625 l -0.019,-9.35889 c -0.46,-2.189 -2.89258,-3.17908 -4.89258,-3.41308 l -16.771,0.063 v -6.22705 l 18.78223,-7.83691 h -25.06494 v -6.47608 h 41.06103 v 6.47608 l -16.83838,7.31836 9.31934,0.84668 c 4.48,1.311 6.88889,4.62188 7.48389,9.15088 l 0.022,12.02636 c -0.49,5.501 -6.25698,8.83901 -11.27197,9.47901 z m -120.52735,-0.79395 -8.09619,-2.78466 v -5.50489 h 4.40332 v -37.0459 h 11.14014 v 45.33545 z m 581.446306,-2.8125 -26.787598,-18.99023 26.787598,-18.87451 H 30.875891 L 4.8500111,713.84868 30.875891,732.83891 Z m -69.774904,-1.82666 c 0.224852,0.009 0.451778,0.005 0.681153,-0.0117 3.668996,-0.265 6.441425,-3.71105 6.086426,-9.60205 -0.355,-5.89099 -3.517992,-8.90758 -7.187989,-8.64258 -3.669996,0.265 -6.442425,3.71253 -6.086426,9.60352 0.332812,5.52187 3.134055,8.51887 6.506836,8.65283 z m -578.882822,-1.04736 h 4.49414 c 0.755,-0.106 1.22757,-0.85245 1.30957,-1.56445 l 0.006,-5.34522 -7.12354,-12.49805 0.003,17.84327 c 0.083,0.712 0.55704,1.45845 1.31104,1.56445 z m 515.24561,-10e-4 c 1.107,0 3.2574,0.0271 4.40039,-1.16894 1.323,-1.385 1.47744,-7.66212 -0.83056,-8.37012 0,0 -1.53983,-0.52295 -3.56983,-0.52295 -2.03099,0 -3.56982,0.52295 -3.56982,0.52295 -2.308,0.708 -2.15357,6.98512 -0.83057,8.37012 1.143,1.196 3.29239,1.16894 4.40039,1.16894 z m -644.72902,-1.53515 v -29.26172 h 8.74073 v 29.26172 z m 64.00049,0 v -10.03565 h -9.38818 v -9.19189 h 9.38818 v -10.03418 h 8.73926 v 10.03418 h 9.38672 v 9.19189 h -9.38672 v 10.03565 z m 331.1382,-1.22461 v -13.27735 h -16.12793 z m -405.43214,-1.75342 -2.78467,-6.21533 9.90527,-4.85449 -10.29199,-4.27295 2.91211,-6.28125 10.35791,4.59814 -2.71875,5.82569 2.78467,6.14941 z m 29.32763,0 -10.16455,-5.05078 2.78321,-6.14941 -2.71875,-5.82569 10.35791,-4.59814 2.91357,6.28125 -10.29346,4.27295 9.90528,4.85449 z m 116.2588,-8.35254 -0.006,-17.90771 c -0.081,-0.756 -0.61783,-1.52611 -1.42383,-1.57911 h -4.26416 c -0.807,0.054 -1.34476,0.82311 -1.42676,1.57911 l -0.003,5.4082 z m 380.79053,-1.96728 c 0.22485,0.009 0.45178,0.005 0.68116,-0.0117 3.66999,-0.263 6.44389,-3.6678 6.08789,-9.4878 -0.355,-5.81999 -3.518,-8.80203 -7.18799,-8.54003 -3.669,0.26199 -6.44289,3.66779 -6.08789,9.48779 0.33281,5.45624 3.13405,8.41871 6.50683,8.55176 z m 128.64551,-3.167 c 1.494,0 4.33609,-0.52397 5.18409,-3.02197 0.835,-2.461 1.37851,-8.58853 -1.27149,-10.39453 -1.486,-1.013 -6.27966,-1.015 -7.82666,0 -2.681,1.76 -2.10502,7.93353 -1.27002,10.39453 0.848,2.498 3.68909,3.02197 5.18408,3.02197 z M -256.4664,676.97417 v -54.3545 h 26.86963 v 2.53125 h -6 v 49.292 h 6 v 2.53125 z m 58.08691,0 v -2.53125 h 6 v -49.292 h -6 v -2.53125 h 26.86963 v 54.3545 z m -49.25537,-1.23487 h 3.49365 v -51.88476 h -3.49365 z m 63.80127,0 h 3.49219 v -51.88476 h -3.49219 z M 3.3104602,674.78129 v -49.96875 h 3.095215 v 49.96875 z m 6.0000002,0 v -49.96875 h 7.0957036 v 49.96875 z M -508.57774,673.27983 c -6.67599,-0.2 -12.52582,-4.43494 -11.81982,-11.62793 h 6.5625 c -0.024,4.321 4.74934,5.63344 8.29834,5.64844 l 1.34912,0.0205 c 3.251,-0.12999 7.81727,-1.40397 8.30127,-5.16796 l 0.006,-10.62452 c -0.236,-2.59599 -3.32208,-3.56207 -5.55908,-3.47607 -6.486,-0.021 -9.0893,0.0831 -15.57129,0.0601 v -6.02637 l 11.60596,-5.50049 14.9707,0.041 -11.60449,5.50195 10.79882,0.085 c 4.515,0.941 7.03558,4.427 7.41358,8.896 l -0.007,13.40918 c -0.489,5.28099 -6.14617,8.47623 -11.01417,8.76123 z m -67.98633,-0.82324 v -15.66797 h 20.8462 v 15.66797 z m -138.16406,-10e-4 v -6.47314 h 25.05469 l -24.92579,-28.54981 v -10.29492 h 41.04493 v 6.47461 h -26.99561 l 23.7583,27.19043 v 11.65283 z m 593.96632,-0.5581 v -7.78272 h -7.12353 v -5.97949 h 7.12353 v -5.34961 h -7.12353 v -5.97656 h 7.12353 v -5.34961 h -7.12353 v -5.97949 h 7.12353 v -7.78272 h 5.23975 v 7.78272 h 7.125 v 5.97949 h -7.125 v 5.34961 h 7.125 v 5.97656 h -7.125 v 5.34961 h 7.125 v 5.97949 h -7.125 v 7.78272 z m -658.34328,-3.22559 26.02735,-18.99023 -26.02735,-18.75879 h 15.2461 l 26.68066,18.75879 -26.68066,18.99023 z m 709.686056,-4.24365 V 653.2935 h 30.556642 v 11.13428 z m -374.311536,-2.63086 -0.94922,-24 h 9.71485 l 3.36182,24 z m 63.04981,0 3.36328,-24 h 9.71485 l -0.94922,24 z m 59.24268,-1.54395 -2.39502,-20.91211 h 9.90527 l 2.39502,20.91211 z m 15.08349,0 -2.45947,-20.91211 h 9.96973 l 2.39648,20.91211 z m -330.34571,-5.70556 v -9.50244 h 13.11768 v 9.50244 z m 567.281266,-8.24707 v -11.13428 h 30.556642 v 11.13428 z m -507.145036,-3.49512 v -15.66797 h 20.8462 v 15.66797 z m 71.39356,-10.46484 v -6.02637 h 13.35205 v 6.02637 z m 302.02296,-20.44922 v -4.89698 h 7.62304 v -8.01709 h -7.62304 v -7.9248 h 7.53515 c -0.346,-9.73799 -0.89502,-15.67597 -1.64502,-17.81397 V 559.7017 h 10.65528 l 1.29931,15.31934 c 3.522,-6.769 8.51883,-11.31145 14.98682,-13.62744 2.714,-0.891 5.54377,-1.30559 8.48877,-1.24659 v 4.27442 c -6.98799,1.663 -12.04167,6.08603 -15.15967,13.27002 -1.733,4.15699 -2.68637,8.61084 -2.85937,13.36084 h 17.23828 v 7.9248 h -21.65625 v 8.01709 h 23.12988 v 4.89698 z m 192.216799,-10e-4 v -4.71973 h 21.396973 v -8.10498 h -21.483399 v -8.28222 h 7.709473 c -3.4239966,-35.55697 26.484876,-31.20257 30.317872,-30.72657 v 4.45313 C 9.858185,561.22232 7.7229964,578.87077 8.5589955,590.78276 H 13.6713 c 4.907995,-6.888 11.381971,-11.57383 17.063966,-10.15284 v 4.18506 c -4.367996,0.727 -8.556068,8.58081 -9.268067,13.7168 v 8.63818 h 9.268067 v 4.71973 z M -763.70811,608.4561 v -22.01221 l 11.13427,9.06445 v 12.94776 z m 498.59767,0 v -8.73926 h 12.43066 v -26.73779 h -14.69531 v -9.84229 h 42.46875 v 9.84229 h -14.69678 v 26.73779 h 12.43066 v 8.73926 z m 145.86767,0 v -7.63916 h -19.48535 l 0.0645,-31.54541 c 0.67599,-3.769 2.83628,-5.7224 6.63427,-6.1084 l 12.78662,-0.0264 v 6.47461 h -9.64599 v 23.30713 h 9.64599 c -0.176,-12.24299 8.53964,-28.06384 21.682622,-29.48584 l 0.0059,5.33789 c -9.572992,2.175 -8.610352,15.94396 -8.610352,24.14795 h 6.60498 v 7.89844 h -6.60498 v 7.63916 z m 62.44776,0 -1.067871,-8.28662 h -17.835938 v -9.84082 h 16.520508 l -0.801269,-6.73243 h -15.719239 v -9.84082 h 14.371582 l -1.359375,-10.61718 h 11.876954 l 1.356445,10.61718 h 16.870606 v 9.84082 h -16.297852 l 0.931641,6.73243 h 15.366211 v 9.84082 h -14.1167 l 1.038575,8.28662 z m -274.14258,-1.19532 v -15.22851 c 0,-2.857 2.34878,-15.49805 13.94677,-15.49805 h 7.03711 c 5.313,-8.13499 12.84988,-12.20215 22.60987,-12.20215 v 4.09717 c -7.565,1.425 -11.34815,5.70118 -11.34815,12.82617 v 11.93262 h -12.12744 v -11.48877 c -7.66299,-0.631 -10.81533,5.6262 -8.94434,17.36719 h 30.31934 v 8.19433 z m -373.62599,-6.89794 v -15.66651 h 20.84473 v 15.66651 z m 63.52881,-3.13624 v -15.69287 h 21.78662 v 15.69287 z m 243.09376,-0.42626 v -7.32715 h 47.60009 v 7.32715 z m -44.46827,-5.58985 c -0.759,0 -1.37256,-0.61602 -1.37256,-1.37402 v -8.08008 c 0,-0.758 0.61356,-1.37256 1.37256,-1.37256 h 8.53565 c 0.758,0 1.37402,0.61456 1.37402,1.37256 v 8.08008 c 0,0.758 -0.61602,1.37402 -1.37402,1.37402 z m -82.17187,-1.83838 v -7.1499 h 18.23144 v 7.1499 z m 26.64843,-10e-4 v -7.14844 h 18.23145 v 7.14844 z m -254.64112,-0.33692 -11.13427,-9.06298 v -16.83252 h 11.13427 z m 176.85206,-2.84179 v -21.78662 h 2.00537 v 21.78662 z m 4.88086,0 v -21.78662 h 3.12598 v 21.78662 z m 6,0 v -21.78662 h 16.54394 v 21.78662 z m 166.89991,-4.07227 v -7.32715 h 47.60009 v 7.32715 z m -306.62257,-0.78955 v -10.09863 h 20.84473 v 10.09863 z m 63.52881,-3.94629 v -3.12598 h 21.78662 v 3.12598 z m 0,-7.27734 v -2.00391 h 21.78662 v 2.00391 z M 4.3578235,547.84819 v -4.45313 c 0.058,-1.781 -0.4615948,-2.58398 -1.5585937,-2.58398 H -10.974696 c 0,-13.96799 4.8581647,-16.94126 9.51416,-20.90625 l -9.339844,-3.9419 v -8.90478 l 15.1582035,6.94482 V 500.46635 H -10.974696 v -4.71973 h 41.667481 v 4.71973 H 15.446691 v 10.09424 c 2.713997,-1.188 8.567101,-2.05555 15.246094,-1.81055 v 4.98633 c -9.93299,1.603 -17.238997,4.89923 -21.9169926,9.88623 -2.7719972,2.791 -4.3880982,5.78861 -4.8500978,8.9956 H 30.692785 v 8.19288 H 16.832433 c -1.269998,0.535 -1.385742,1.33627 -1.385742,2.40527 v 4.63184 z m -373.6259835,-1.92334 -0.36621,-1.89991 h -25.29639 v -12.02343 c -0.264,-25.82798 18.8137,-34.05815 38.72168,-31.97315 v 4.63037 c -11.52499,-0.734 -18.05494,3.889 -20.35693,7.125 -0.841,1.182 -0.76815,3.2045 0.17285,3.5625 l 10.0459,3.93457 -1.64209,5.94873 -11.521,-2.57226 c -2.81,-0.673 -3.17912,-0.84894 -3.12012,13.35205 h 13.42676 c 3.358,-8.08099 10.17455,-14.78467 15.85254,-14.78467 v 5.25586 c -3.05,2.039 -6.93018,10.94734 -6.93018,19.44434 z m 177.41162,-1.35059 v -9.58447 h -10.36084 v -9.84522 h 10.36084 v -0.0645 c 0.24,-18.57898 11.40101,-28.23248 29.792,-25.64649 l -0.001,5.28955 c -12.75399,0.24 -16.54454,8.9944 -16.70654,20.42139 h 16.70801 v 9.84522 h -16.70801 v 9.58447 z m -143.12402,-0.0527 -0.0439,-20.86963 c 0.168,-3.939 1.83778,-8.3238 4.19678,-11.4668 9.02199,-11.46199 24.78121,-14.37118 38.57519,-12.65918 v 5.31006 c -12.95498,-1.06 -28.15846,3.05529 -29.62646,18.15527 l -0.0249,21.53028 z m 19.16308,0 -2.1372,-23.43604 h 11.07128 l 2.20167,23.43604 z m 15.79541,0 -2.13574,-23.43604 h 11.07129 l 2.20166,23.43604 z m 32.28955,-0.009 v -9.84082 h 43.18213 v 9.84082 z m -191.77295,-0.0249 0.004,-20.86963 c 0.041,-2.24899 0.53767,-4.73385 1.38867,-6.81884 7.08399,-15.06799 26.15444,-19.07574 41.33642,-17.30274 l -0.0659,5.30567 c -5.783,0.186 -12.37558,-0.0591 -17.80957,2.19287 -6.396,2.96899 -11.40731,9.43868 -11.75831,16.59668 l -0.0176,20.89599 z m 27.83936,0 -2.13721,-23.43603 h 11.07129 l 2.20019,23.43603 z m -277.98048,-0.0176 0.007,-9.84082 h -6.09229 v -8.74073 h 6.10107 l 0.007,-8.40381 c 0.245,-7.44399 5.41434,-14.20141 12.31933,-16.8164 5.29,-2.075 11.63023,-1.59078 17.17823,-1.19678 v 5.31152 c -9.15799,-0.123 -18.02714,3.46653 -18.36914,13.83252 l -0.006,7.27295 h 7.82226 v -10.29345 h 11.13575 v 10.29345 h 6.99316 v 8.74073 h -6.99316 v 9.84082 h -11.13575 v -9.84082 h -7.82812 l -0.004,9.84082 z m -68.88721,-0.0147 v -45.31787 h 40.78565 v 9.71044 h -31.59229 v 26.86817 h 26.34815 v 8.73926 z m 145.48829,0 v -7.89844 h 22.91894 v 7.89844 z m 112.5835,0 v -5.3086 h 22.78711 v -6.79834 h -22.72266 l 0.0234,-10.66699 c 1.424,-7.13399 9.45089,-12.00392 16.48388,-10.56592 v 5.3086 c -6.37399,-0.192 -6.44197,4.37617 -6.66796,9.45117 h 12.8833 v -18.83936 h -23.04639 v -7.89843 l 29.1709,0.0337 c 3.20999,0.33 4.82819,3.22136 4.99219,6.19336 l 0.019,20.51074 h 2.97803 v 6.47314 h -2.97803 v 6.47461 h 2.72021 v 5.63233 z m 382.05762,0 v -11.13428 h 40.527836 v 11.13428 z m 63.60352,-0.57129 c -0.058,-10.27199 1.905141,-18.85078 5.890137,-25.73877 l -6.150879,-2.85059 v -9.79687 l 11.781739,5.4331 c 7.680992,-7.36199 17.699606,-11.10317 30.058594,-11.22217 v 5.07715 c -8.720991,0.653 -15.592216,4.09755 -20.616211,10.33155 l 10.047363,4.54101 v 9.79688 l -14.638184,-6.59034 c -1.847998,3.979 -2.945969,8.22336 -3.292969,12.73536 h 26.767091 v 8.28369 z m -506.54298,-0.66797 c 0,-6.72599 2.22612,-20.40665 4.24512,-22.88965 l -9.78955,-17.72168 v -2.22803 h 10.04882 l 6.23731,9.88623 c 6.23699,-6.53099 14.64051,-9.79687 25.20849,-9.79687 v 4.45312 c -4.15799,0.297 -7.71027,1.42526 -10.65527,3.38526 -7.21899,4.74999 -11.03103,13.41738 -11.43603,26.00537 h 22.0913 v 8.90625 z m -65.74951,-9.31348 -5.29688,-10e-4 c -3.433,-18.93898 11.8685,-34.64717 30.52149,-34.74317 l 14.46093,-0.0205 v 11.13574 l -16.13525,0.022 c -17.31898,0.406 -22.8293,11.75343 -23.55029,23.60742 z m 14.04785,-2.39502 v -7.89843 h 22.91894 v 7.89843 z m 365.31299,-1.23779 v -8.73926 h 10.74756 l 0.0176,-3.54492 c 0.494,-14.39499 16.75862,-20.69528 29.24561,-18.46729 v 5.3086 c -10.82099,-0.561 -17.05406,5.95562 -16.18506,16.70361 h 19.35644 v 8.73926 z m 127.06202,-19.99658 v -11.13574 h 45.058594 v 11.13574 z m -61.70362,-29.77295 v -6.47315 h 40.52784 v 6.47315 z m 63.15967,0 0.007,-31.23633 c 1.015,-17.10398 27.11623,-14.0906 39.09521,-13.7666 l 0.001,5.31152 c -1.833,0.007 -6.33391,0.0425 -8.10791,0.16846 -6.62999,0.594 -16.95339,1.67704 -17.90039,9.93603 l -0.0176,29.58692 z m 29.06836,0 v -26.80225 h 13.07813 v 26.80225 z m -525.5962,-0.0366 v -5.82862 h -11.14014 v -7.90136 h 11.14014 v -26.29395 h -5.50635 l 3.49805,22.1499 h -7.57764 l -4.72851,-22.1499 v -5.31152 h 39.83056 v 9.71484 c -3.86999,1.263 -3.42803,13.74159 -3.56103,17.74658 h -8.74365 c 0.16312,-6.88312 0.3109,-14.71635 3.67236,-20.92969 0.2241,-0.41422 0.46268,-0.82115 0.71631,-1.22021 h -6.46143 v 26.29395 h 11.14014 v 7.90136 h -11.14014 v 5.82862 z m -135.99463,-0.001 -8.61035,-45.31934 h 11.20019 l 8.5459,45.31934 z m 14.82568,0 2.39502,-18.05713 c 1.584,-8.17399 2.49268,-17.98095 8.40967,-24.31494 2.594,-2.651 6.66541,-2.99959 10.17041,-2.95459 v 8.74658 c -0.532,0.207 -1.49552,0.84157 -1.93652,1.20557 -4.119,3.847 -5.02548,13.306 -5.56348,17.79199 -0.538,4.487 -2.2544,17.57959 -2.2544,17.57959 z m 212.23096,-0.006 -43.37549,-3.82031 0.58301,-10.48828 43.24659,3.75586 z m 39.30176,0 11.97803,-35.02441 -16.63916,2.13574 5.95605,16.18506 h -11.13574 l -11.65283,-28.61572 h 12.23584 l 1.61865,4.40332 22.5293,-4.40332 h 13.07813 l -14.89014,45.31933 z m 201.35596,0 -0.51855,-3.75586 h -27.90234 v -9.19336 c 0.425,-10.24199 9.76483,-21.34674 20.71582,-18.84375 v 5.31153 c -5.712,1.56899 -8.03316,8.11823 -7.63916,13.53222 h 13.65966 l -3.43066,-27.06006 h -19.61572 v -5.31005 h 40.8501 v 5.31005 h -10.94092 l 3.49658,27.06006 h 7.51025 v 9.19336 h -6.27978 l 0.45264,3.75586 z m 35.35108,0 v -45.31933 h 45.05859 v 45.31933 z m -128.12842,-0.001 v -6.47315 h 25.11914 v -7.89843 h -25.11914 v -9.19336 h 25.11914 v -13.85303 h -25.11914 v -7.8999 l 30.72363,0.009 c 3.523,0.067 5.39514,2.99429 5.51514,6.25928 l 0.0147,15.48487 h 9.06445 v 9.19336 h -9.06445 v 7.5747 h 7.12207 v 6.79688 z m -289.54542,-0.52588 v -9.88623 h -27.89209 v -8.28369 h 27.54492 v -9.0835 c 0,-4.421 -3.71098,-9.08496 -8.10498,-9.08496 h -19.43994 v -7.92627 h 25.03272 c 8.49199,0 15.16113,4.90528 15.16113,16.65527 v 27.60938 z m 232.91456,-1.11768 c -0.214,-6.29999 0.57818,-11.94055 2.15918,-16.91455 l -7.79004,-3.03515 v -9.53028 l 11.25732,4.69043 c 6.374,-10.83499 17.55702,-16.90125 30.58301,-17.42725 v 5.07715 c -10.18099,-0.367 -16.71526,6.82143 -20.26025,16.64942 l 14.97656,6.24023 v 8.5503 l -17.146,-6.68409 c -0.752,4.024 -1.12232,8.2328 -1.13232,12.38379 z m 377.998542,-0.0381 V 462.1788 c 0,-9.25099 5.100379,-26.29089 35.131349,-25.31689 v 4.61718 c -16.036984,1.384 -25.115482,2.50915 -22.271485,29.84913 h 18.812989 V 459.5225 l 10.908692,-0.041 v 19.25098 z m -182.103522,-6.21534 h 20.84619 v -12.03662 l -20.84326,-0.16699 z m 52.76661,-5.00537 -0.0615,-12.79248 c 1.713,-17.83298 24.3649,-20.96883 38.77588,-19.25683 v 5.31152 c -11.36399,-1.185 -27.72415,3.14745 -25.70215,17.54443 h 32.30567 v 9.19336 z m -341.91798,-2.63379 -38.13135,-3.68994 0.51709,-10.5542 38.00244,3.75586 z M 9.858312,463.14213 c -2.9519971,0 -5.345215,-2.39322 -5.345215,-5.34522 0,-2.95199 2.3932179,-5.34521 5.345215,-5.34521 2.951997,0 5.345215,2.39322 5.345215,5.34521 0,2.952 -2.393218,5.34522 -5.345215,5.34522 z m -267.394052,-7.99951 h 20.84619 v -12.10547 h -20.84619 z m -287.14454,-5.69678 -43.37549,-3.88477 0.58301,-10.42236 43.24659,3.75293 z m 429.6299,-32.85352 c -0.50113,0.008 -0.99732,-0.0505 -1.47657,-0.19629 -3.10899,-0.945 -5.81049,-3.09643 -8.33349,-5.06543 -3.036,-2.37099 -5.94532,-4.90428 -8.79932,-7.48828 -1.674,-1.516 -3.86037,-3.43437 -5.48437,-5.00537 -1.607,-1.555 0.38645,-4.12584 1.46045,-5.58984 0.755,-1.03 4.12853,-3.92862 4.76953,-3.30762 5.08199,4.919 10.91453,10.15816 16.66553,14.28516 1.56599,1.124 4.69024,2.95898 5.05224,2.95898 0.362,0 4.36998,-3.2288 5.37598,-4.1748 1.005,-0.946 4.22129,-4.98319 5.17529,-5.74219 0.607,-0.484 1.851401,-1.31933 2.7334,-1.13233 2.248997,0.479 1.229835,3.68087 0.506836,4.98487 -1.779999,3.20899 -3.985306,6.28627 -6.508306,8.94726 -1.93799,2.044 -4.20408,4.09656 -6.78808,5.28955 -1.29525,0.59775 -2.84575,1.21261 -4.34912,1.23633 z M -702.23448,416.21 c -0.759,0 -1.37256,-0.61456 -1.37256,-1.37256 v -8.08008 c 0,-0.758 0.61356,-1.37402 1.37256,-1.37402 h 8.53711 c 0.758,0 1.37256,0.61602 1.37256,1.37402 v 8.08008 c 0,0.758 -0.61456,1.37256 -1.37256,1.37256 z m 71.6499,0 c -0.75899,0 -1.37255,-0.61456 -1.37255,-1.37256 v -8.08008 c 0,-0.758 0.61356,-1.37402 1.37255,-1.37402 h 8.53711 c 0.758,0 1.37256,0.61602 1.37256,1.37402 v 8.08008 c 0,0.758 -0.61456,1.37256 -1.37256,1.37256 z m 192.43067,-1.05615 c -1.04128,-0.0691 -1.8459,-1.50422 -1.99365,-2.54297 -0.292,-2.06 0.18611,-4.49355 1.78711,-5.93555 4.714,-4.246 10.79126,-8.39851 15.11426,-13.0415 -1.376,-1.854 -3.39015,-3.63017 -4.59815,-5.59717 -4.24199,5.66499 -8.98309,11.86773 -15.89209,14.19873 -7.47199,1.635 -12.64814,-7.83789 -16.11914,-13.10889 -0.785,-2.747 1.35829,-5.68483 3.19629,-7.52783 1.376,-1.249 4.43611,-3.50677 5.80811,-1.09277 2.761,4.20199 5.70801,9.76839 10.81201,11.25439 0.105,-0.016 0.21387,-0.0174 0.31787,-0.0454 2.926,-1.708 4.79099,-4.79315 6.81299,-7.43115 1.521,-2.341 3.48473,-4.88626 6.49072,-5.26026 0.631,-0.067 1.22543,0.16154 1.58643,0.74854 2.281,3.713 4.92983,6.80325 7.52783,10.30225 1.581,2.12999 1.31892,5.80151 -0.47607,7.72851 -4.79,5.145 -11.80535,10.17589 -17.02735,14.87989 -0.748,0.67399 -1.49567,1.34702 -2.24267,2.02001 -0.38425,0.346 -0.7574,0.47422 -1.1045,0.45118 z M 7.1088002,414.93558 c -5.4824707,0.38557 -17.6678922,-15.17006 -18.6738282,-16.5249 -1.109999,-1.495 0.07569,-6.71192 1.908691,-8.79492 6.1839939,-6.52699 12.6884926,-13.2039 20.396485,-17.9209 4.252996,-2.576 7.634331,2.68671 10.611328,5.05371 3.563997,3.416 7.079734,7.00399 10.073731,10.93799 0.607999,0.8 0.102656,2.72533 -0.152344,3.48633 -0.555999,1.633 -1.663274,3.28156 -2.780273,4.64355 -4.067996,4.116 -8.212501,8.16469 -12.458497,12.09668 -2.381997,2.205 -4.781522,4.50543 -7.4575193,6.35743 -0.4038746,0.41446 -0.9006214,0.62515 -1.4677735,0.66503 z M -562.30674,414.47416 c -0.22251,0.002 -0.445,-0.004 -0.66944,-0.0176 -6.95299,0.373 -14.78491,-7.17756 -18.60791,-12.41455 0,0 9.58803,-7.74132 9.99903,-7.13232 2.935,4.22999 8.01895,9.18457 11.50195,9.18457 3.857,0 8.93582,-6.2435 11.13281,-9.3545 1.865,-2.64099 4.14777,-3.002 5.00977,0.542 0.451,2.27999 0.15742,5.04969 -1.51758,6.78369 -3.99609,4.91155 -9.95092,12.34099 -16.84863,12.40869 z m 254.00391,-0.94922 c -1.05337,-0.0633 -2.14734,-0.56152 -3.31641,-1.72559 -5.72299,-4.97499 -10.09011,-11.2943 -15.01611,-17.0083 -1.931,-2.15099 -3.70289,-4.51133 -5.23389,-6.96533 -0.287,-0.384 -0.22896,-1.10228 -0.085,-1.75928 0.101,-0.472 0.25028,-0.9161 0.36328,-1.2041 1.087,-2.426 3.28251,-5.371 6.1875,-5.354 0.468,0.091 0.7735,0.38282 1.1045,0.84082 1.608,2.219 3.29432,4.73509 5.25732,7.26709 1.335,1.721 3.78737,4.572 4.42236,4.604 0.635,0.032 3.99727,-2.96615 5.84327,-4.70215 3.22199,-3.02999 6.31707,-6.50637 9.10107,-9.23437 1.086,-1.144 3.82192,-3.0067 4.94092,-0.9917 0.839,2.234 -1.23944,4.98064 -2.64844,6.45264 -4.37899,4.52499 -8.8577,8.92718 -14.01269,12.55517 2.53299,2.738 7.15039,7.83568 7.77539,7.86768 0.625,0.031 5.34798,-4.47828 7.72998,-7.00928 1.754,-2.012 3.35186,-5.09769 6.38086,-5.01269 5.76399,2.79699 -9.34449,15.77532 -12.04248,17.90332 -2.31,1.64518 -4.43406,3.6154 -6.75147,3.47607 z m -190.4253,-0.0205 c -0.0772,-5e-4 -0.14728,-0.007 -0.21093,-0.022 -9.60199,-2.21 -25.94394,-21.33931 -25.98194,-24.23731 -0.033,-2.43199 5.39499,-8.35573 8.20899,-10.82373 8.04799,8.99699 18.16112,21.23232 28.14111,28.09131 0.90675,0.44466 -7.76262,7.0074 -10.15723,6.9917 z m 129.07032,-3.11133 c -0.48274,-2.5e-4 -0.97065,-0.10966 -1.45459,-0.36035 -7.21299,-5.10899 -13.31542,-11.52825 -18.62842,-18.55224 -1.963,-2.453 -3.8532,-4.98866 -5.4082,-7.72266 -0.345,-0.531 -0.24355,-1.44658 -0.0396,-2.26758 0.989,-3.512 4.30093,-7.95267 8.25293,-7.86767 0.659,0.119 1.11563,0.48888 1.36963,1.10888 0.99899,1.54 2.03514,3.05574 3.09814,4.55274 1.204,1.634 4.40141,5.55864 5.94141,6.18164 0.487,0.034 3.20477,-2.12392 3.82177,-2.69092 3.328,-3.061 6.45472,-6.33688 9.65772,-9.52588 1.378,-1.387 4.80409,-3.62849 6.14209,-1.10449 0.981,2.78 -1.65392,6.14634 -3.44092,7.92334 -3.562,3.72899 -8.04779,7.7788 -11.63379,11.1958 -0.032,0.462 5.98579,5.84986 9.38379,8.25586 1.857,2.155 -0.24611,5.50526 -1.6831,7.34326 -1.2805,1.482 -3.28704,3.53136 -5.37891,3.53027 z m 189.66504,-3.26367 c -0.10928,0.004 -0.21927,-0.0174 -0.33252,-0.0747 -1.391,-1.219 -2.78334,-2.43726 -4.17334,-3.65625 -0.329,-0.287 -0.0882,-0.9135 0.0278,-1.2085 0.64199,-1.436 1.75965,-2.77701 3.11865,-3.68701 0.39,-0.194 0.81262,-0.54687 1.26562,-0.31787 1.391,1.21899 2.78088,2.43725 4.17188,3.65625 0.328,0.287 0.0882,0.91396 -0.0278,1.20996 -0.643,1.435 -1.76066,2.77554 -3.11866,3.68554 -0.29325,0.1455 -0.60379,0.3811 -0.93164,0.39258 z m 138.887702,-0.45117 c -0.05483,-0.005 -0.100821,-0.0242 -0.137696,-0.063 -2.277997,-2.392 -4.555963,-4.78427 -6.834961,-7.17627 -0.298999,-0.315 0.428907,-1.45103 0.503907,-1.58203 1.283998,-2.103 2.911673,-4.05527 4.763672,-5.67627 0.217999,-0.176 1.174238,-1.08051 1.469238,-0.77051 2.277998,2.392 4.556963,4.78428 6.834961,7.17627 0.3,0.315 -0.428906,1.44857 -0.503906,1.58057 -1.283999,2.102 -2.912674,4.05674 -4.763672,5.67773 -0.19075,0.154 -0.94776,0.86574 -1.331543,0.8335 z m 49.6845713,-0.61523 c 1.1249989,-0.402 2.1775247,-1.40842 3.0615237,-2.12842 3.414996,-2.803 6.607808,-5.86404 9.799805,-8.91504 -1.695999,-1.955 -3.467483,-3.8472 -5.292481,-5.6792 -2.534997,-2.51 -5.069331,-5.05147 -7.9863281,-7.12647 -0.053,0.032 -0.1066681,0.0637 -0.159668,0.0967 -4.7469953,3.587 -9.0088679,7.77081 -13.2348636,11.94581 3.0499969,3.42499 6.20004676,6.8008 9.7690432,9.6958 1.2129988,0.861 2.4839704,2.06584 4.0429688,2.11084 z M -485.16514,402.36576 c -7.22799,-5.31799 -27.51069,-27.84816 -26.65869,-27.99316 1.078,-0.184 10.63765,0.149 10.51465,0 5.18299,5.77599 21.68115,22.80029 21.68115,22.80029 -0.39,0.422 -5.20911,5.43487 -5.53711,5.19287 z m 316.04737,-2.24121 c -1.087,0.0718 -2.33471,-0.38042 -3.82177,-1.29785 -3.925,-2.381 -7.45167,-5.44875 -10.18067,-8.98975 -2.05,3.13 -4.09345,6.29676 -6.33545,9.30176 -0.406,0.544 -0.97967,1.09576 -1.76367,0.88477 -3.138,-1.65 -5.11937,-4.84698 -7.15137,-7.52198 -2.099,-2.98499 -3.89319,-6.12361 -5.20019,-9.47461 -0.572,-2.75499 0.29255,-5.7923 1.26855,-8.3833 0.343,-1.136 2.05158,-4.25289 2.91358,-1.69189 1.78599,4.05399 6.10324,11.36379 10.74023,15.11279 12.02399,-16.37998 3.585,-11.88828 16.56299,-2.55029 0.391,0.262 4.42822,3.09381 6.09521,2.50781 0.941,-0.664 3.25128,-10.10467 5.03028,-8.03467 1.758,4.588 -2.26729,12.91075 -4.59229,17.13574 -1.03556,1.95019 -2.16786,2.90922 -3.56543,3.00147 z m 176.696785,-0.085 c -0.046021,-0.003 -0.086188,-0.0198 -0.1171875,-0.0498 -1.5939984,-1.55099 -3.1872517,-3.10134 -4.7812501,-4.65234 l -0.684082,-0.6665 c -0.2519998,-0.244 0.3603399,-1.12701 0.4233398,-1.22901 0.5059995,-0.821 1.1705906,-1.61942 1.8295899,-2.33642 0.6699993,-0.728 1.3625048,-1.47315 2.166504,-2.07715 0.1829998,-0.137 0.9853987,-0.84012 1.2333984,-0.59912 l 4.7812505,4.65234 c 0.227999,0.222 0.455617,0.44304 0.682617,0.66504 0.252,0.245 -0.359875,1.127 -0.421875,1.229 -0.507,0.822 -1.172056,1.62089 -1.831055,2.33789 -0.669999,0.728 -1.3610398,1.47415 -2.165039,2.07715 -0.1601248,0.11988 -0.7940609,0.67328 -1.116211,0.64893 z m -705.987325,-0.8291 c -0.759,0 -1.37402,-0.61603 -1.37402,-1.37403 v -8.08008 c 0,-0.75799 0.61502,-1.37255 1.37402,-1.37255 h 8.53565 c 0.758,0 1.37256,0.61456 1.37256,1.37255 v 8.08008 c 0,0.758 -0.61456,1.37403 -1.37256,1.37403 z m 63.99903,0 c -0.759,0 -1.37256,-0.61603 -1.37256,-1.37403 v -8.08008 c 0,-0.75799 0.61356,-1.37255 1.37256,-1.37255 h 8.53564 c 0.758,0 1.37403,0.61456 1.37403,1.37255 v 8.08008 c 0,0.758 -0.61603,1.37403 -1.37403,1.37403 z m 383.66456,-0.45118 c -2.89303,0.0592 -5.59804,-1.77072 -7.90869,-4.28613 -2.033,-2.049 -3.91888,-4.31355 -5.56787,-6.68555 -0.501,-0.71999 0.21138,-1.72259 0.44238,-2.41259 0.618,-2.213 5.64039,-6.4557 6.75439,-5.3877 1.677,1.967 8.64527,11.81183 11.84326,8.75684 0.729,-0.523 8.33203,-7.78988 10.64502,-10.44287 1.237,-1.503 4.49405,-5.59625 6.39405,-3.01026 0.962,2.217 -1.01185,4.9899 -2.31885,6.5669 -4.685,5.49699 -9.61931,10.98457 -15.61231,15.08056 -1.58881,1.2406 -3.15598,1.78978 -4.67138,1.8208 z m -527.5298,-0.36474 v -9.19336 h 40.26709 v 9.19336 z m 420.16261,-1.66699 c -0.12871,0.003 -0.25639,-0.006 -0.38233,-0.0308 -1.46699,-1.60199 -2.93339,-3.20515 -4.40039,-4.80615 -0.346,-0.378 -0.0222,-1.12503 0.13477,-1.47803 0.85,-1.62799 3.28188,-4.94173 5.29687,-4.55273 1.467,1.602 2.93486,3.20269 4.40186,4.80469 0.346,0.378 0.0212,1.12649 -0.13477,1.47949 -0.79781,1.52625 -2.9854,4.53408 -4.91601,4.5835 z m 298.593755,-1.72266 c -6.053994,0 -12.099105,-7.0082 -15.829102,-11.47119 -1.105998,-1.324 7.477837,-10.33434 8.006837,-10.06934 1.165998,0.585 2.067391,1.96804 2.90039,2.81104 2.711998,3.02999 4.862122,6.38232 9.120118,6.38232 2.329997,0 6.771779,-5.55696 8.321777,-7.10596 1.548999,-1.54899 3.020786,-4.5498 4.029785,-4.5498 1.009999,0 10.13086,12.00024 10.13086,13.74023 0,1.74 -2.145002,7.21292 -4.125,5.21192 -3.177997,-3.212 -3.905737,-5.07204 -6.802735,-8.54004 -4.144995,5.85199 -7.818938,13.59082 -15.75293,13.59082 z m -526.694835,-2.2207 c -0.91188,-0.0226 -1.69889,-0.81785 -2.12988,-2.58985 -0.451,-2.27999 -0.15596,-5.04969 1.51904,-6.78369 4.12499,-5.06999 10.33607,-12.82358 17.51806,-12.39258 6.953,-0.373 14.78345,7.17949 18.60645,12.41748 0,0 -9.58802,7.73986 -9.99902,7.13086 -2.934,-4.22999 -8.01749,-9.18457 -11.50049,-9.18457 -3.857,0 -8.93682,6.2435 -11.13281,9.3545 -0.9325,1.32049 -1.96948,2.07047 -2.88135,2.04785 z m 475.1338,-1.01953 c -4.57,0.049 -9.12466,-3.67472 -15.22266,-9.55372 -1.768,-1.94599 -5.95889,-4.18589 -4.69189,-6.46289 1.267,-2.27699 2.96732,-5.51703 3.92431,-4.58203 1.627,1.59 14.14687,12.8584 16.13086,12.8584 1.984,0 6.83693,-4.28597 9.81592,-8.16797 0.428,-0.558 1.04823,-1.20172 1.803225,-1.13672 l 0.0015,10e-4 c 2.818997,0.984 2.330643,5.45416 1.035644,7.53515 -4.934999,6.637 -8.870879,9.46531 -12.796879,9.50831 z m -329.11964,-7.95264 c -0.0466,-0.007 -0.0862,-0.0251 -0.11572,-0.0601 l -5.2002,-6.18604 c -0.24,-0.28499 0.44316,-1.21621 0.51416,-1.32421 1.208,-1.727 2.70117,-3.30968 4.36817,-4.59668 0.196,-0.139 1.05892,-0.86008 1.29492,-0.58008 1.734,2.062 3.46766,4.12404 5.20166,6.18603 0.239,0.285 -0.44316,1.21622 -0.51416,1.32422 -1.208,1.727 -2.70263,3.30922 -4.36963,4.59522 -0.1715,0.12162 -0.85304,0.68908 -1.1792,0.6416 z m -254.38477,-1.60254 c -0.759,0 -1.37402,-0.61456 -1.37402,-1.37256 v -8.08008 c 0,-0.758 0.61502,-1.37256 1.37402,-1.37256 h 8.53564 c 0.758,0 1.37256,0.61456 1.37256,1.37256 v 8.08008 c 0,0.758 -0.61456,1.37256 -1.37256,1.37256 z m 56.34961,0 c -0.759,0 -1.37256,-0.61456 -1.37256,-1.37256 v -8.08008 c 0,-0.758 0.61356,-1.37256 1.37256,-1.37256 h 8.53565 c 0.75799,0 1.37402,0.61456 1.37402,1.37256 v 8.08008 c 0,0.758 -0.61603,1.37256 -1.37402,1.37256 z m 153.21973,-0.0366 -4.78271,-4.771 c 0.069,-1.692 3.97583,-6.08037 5.65283,-6.40136 l 4.78271,4.77099 c -0.071,1.695 -3.97383,6.07837 -5.65283,6.40137 z m 171.36622,-0.89649 c -0.11493,-0.009 -0.2291,-0.0467 -0.33985,-0.12597 -1.292,-1.553 -2.58251,-3.10667 -3.87451,-4.65967 -0.305,-0.367 0.0294,-1.04716 0.19043,-1.36816 0.866,-1.547 2.21626,-2.92802 3.76025,-3.79102 0.434,-0.172 0.9237,-0.51815 1.3667,-0.20215 1.292,1.554 2.58252,3.10714 3.87452,4.66113 0.304,0.366 -0.0309,1.0467 -0.1919,1.3667 -0.865,1.547 -2.21479,2.92902 -3.75879,3.79102 -0.3255,0.129 -0.68209,0.3562 -1.02685,0.32812 z m 67.5791,-0.37939 c -0.12155,0.0118 -0.24337,0.0113 -0.36475,-0.003 -1.227,-1.288 -2.45269,-2.57626 -3.67968,-3.86426 -0.339,-0.356 -0.10617,-1.02746 0.0278,-1.39746 0.723,-1.585 2.73085,-4.84812 4.67285,-4.62012 1.227,1.288 2.45269,2.57626 3.67969,3.86426 0.339,0.356 0.1047,1.027 -0.0293,1.396 -0.67781,1.48687 -2.48334,4.44808 -4.30664,4.62451 z m 75.46436,-0.13184 c -0.12253,0.004 -0.248,-0.019 -0.375,-0.0835 l -3.87012,-3.75293 c -0.357,-0.346 -0.1107,-0.99598 0.0293,-1.35498 0.75,-1.603 1.95704,-3.11279 3.49804,-4.13379 0.437,-0.218 0.90997,-0.61149 1.41797,-0.35449 l 3.87012,3.75293 c 0.356,0.345 0.1107,0.99744 -0.0293,1.35644 -0.75,1.603 -1.95705,3.11086 -3.49804,4.13086 -0.3285,0.1635 -0.67538,0.42699 -1.04297,0.43945 z m -408.83351,-26.71728 v -10e-4 c -3.142,10e-4 -6.16203,-0.14445 -6.45703,-0.43945 0,0 -2.08008,-8.04022 -2.08008,-23.0332 0,-11.19199 8.60889,-24.31934 8.60889,-24.31934 0.715,-1.284 3.68518,-0.88481 3.01318,1.72119 0,0 -2.58252,9.25364 -2.58252,18.72363 0,8.249 1.87151,14.64866 3.66651,19.13965 h 18.36767 c 0.251,-3.94999 -0.22558,-7.73291 -0.22558,-7.73291 0,0 -6.88675,0.50214 -10.11475,-2.15185 -6.19099,-5.09 -4.05274,-19.08508 -3.15674,-19.22608 6.385,-1.004 17.86253,0.0719 18.43653,0.35889 0.321,0.16 2.86973,3.29927 3.15673,3.80127 0.287,0.502 0.28734,4.59174 0.21534,11.40674 -0.025,2.373 0.39338,9.33195 0.81738,13.54394 h 1.57617 c 1.043,0 1.88965,0.84419 1.88965,1.88819 v 4.43115 c 0,1.043 -0.84665,1.88965 -1.88965,1.88965 z m 57.35156,0 c -1.04299,0 -1.88818,-0.84665 -1.88818,-1.88965 v -4.43115 c 0,-1.044 0.84519,-1.88819 1.88818,-1.88819 h 1.57764 c 0.424,-4.21099 0.84092,-11.17194 0.81592,-13.54394 -0.072,-6.816 -0.0717,-10.90474 0.21533,-11.40674 0.287,-0.502 2.83574,-3.64127 3.15674,-3.80127 0.574,-0.287 12.05299,-1.36289 18.43799,-0.35889 0.896,0.141 3.03425,14.13608 -3.15674,19.22608 -3.228,2.65499 -10.11621,2.15185 -10.11621,2.15185 0,0 -0.47659,3.78392 -0.22559,7.73291 h 18.36768 c 1.795,-4.49099 3.66797,-10.89065 3.66797,-19.13965 0,-9.46999 -2.58399,-18.72363 -2.58399,-18.72363 -0.672,-2.606 2.29819,-3.00665 3.01319,-1.72266 0,0 8.60888,13.12982 8.60888,24.32081 0,14.99298 -2.08007,23.0332 -2.08007,23.0332 -0.295,0.294 -3.31504,0.44092 -6.45704,0.44092 z m 63.4629,-0.92139 c -1.043,0 -1.88819,-0.84518 -1.88819,-1.88818 v -4.43115 c 0,-1.044 0.84519,-1.88965 1.88819,-1.88965 h 5.63379 c -3.16,-3.523 -6.98438,-10.49561 -6.98438,-10.49561 -0.861,-0.645 -0.43087,-8.60827 0.16113,-9.15527 0.262,-0.242 0.60301,-0.37793 0.95801,-0.37793 0.031,0 0.0617,9.3e-4 0.0937,0.003 4.415,0.296 6.91101,0.26953 11.08301,0.26953 9.27799,0 17.91315,-0.93419 21.95215,-3.01319 6.36799,-3.27799 8.24399,-11.75659 8.68799,-15.05859 0.12,-0.892 1.33716,-0.79411 1.26416,0.0879 -0.578,7.05499 1.03021,15.37228 -4.57178,20.40528 -7.77699,6.98599 -18.72493,8.77814 -27.16992,8.72314 -2.082,2.753 1.96618,7.39482 4.40918,8.61182 h 24.48926 c 1.04299,0 1.88818,0.84565 1.88818,1.88965 v 4.43115 c 0,1.043 -0.84519,1.88818 -1.88818,1.88818 z m 65.02881,-0.26807 c -1.043,0 -1.88819,-0.84664 -1.88819,-1.88964 v -6.31934 -36.0249 c 0,-1.043 0.84519,-1.88965 1.88819,-1.88965 h 5.6792 c 1.044,0 1.88964,0.84665 1.88964,1.88965 v 16.80615 h 0.26221 c 9.27799,0 17.91315,-0.93419 21.95215,-3.01318 6.36799,-3.279 8.24252,-11.7576 8.68652,-15.0586 0.12,-0.892 1.33909,-0.79411 1.26709,0.0879 -0.578,7.055 1.08669,14.12285 -3.3413,20.21485 -5.695,7.83399 -19.00568,9.40225 -28.82667,9.01025 v 5.24268 c 0,2.57699 24.29595,2.74572 31.33594,2.74072 1.044,0 1.89112,0.84418 1.89112,1.88818 v 4.4253 c 0,1.043 -0.84665,1.88964 -1.88965,1.88964 h -31.33741 z m -254.85645,-0.35449 V 352.23 c -0.614,-3.639 -1.4751,-10.45832 -1.4751,-20.11231 0,-11.19099 8.60888,-24.3208 8.60888,-24.3208 0.715,-1.284 3.68519,-0.88334 3.01319,1.72266 0,0 -2.58399,9.25464 -2.58399,18.72363 0,5.90299 1.14097,10.79504 2.33496,14.81104 h 6.16114 l -0.54199,-13.04151 c -0.018,-0.445 0.33869,-0.81592 0.78369,-0.81592 h 6.64013 c 0.42,0 0.7667,0.33247 0.7837,0.75147 l 0.54345,13.10596 h 5.10938 l -0.54053,-13.04151 c -0.019,-0.445 0.33623,-0.81592 0.78223,-0.81592 h 6.08203 c 0.409,0 0.75022,0.31417 0.78222,0.72217 l 1.60547,20.54883 c 0.086,1.098 -0.78132,2.03613 -1.88232,2.03613 h -36.15967 z m 316.41797,-0.0776 v -44.14307 c 0.023,-0.551 0.35807,-0.85211 0.74707,-0.93311 0.855,-0.441 2.14014,-0.0963 2.14014,1.18067 0,11.09599 7.72571,16.47046 15.7207,18.37646 -0.096,-1.543 -0.12303,-3.03083 -0.082,-4.42383 0.355,-12.11298 15.07032,-13.65117 20.21631,-10.03418 5.88499,4.138 6.17918,17.73349 2.36719,21.52149 -2.696,2.68 -18.12073,5.04834 -31.03272,-2.09766 -0.485,4.414 -0.0948,8.98924 1.22022,12.34424 h 30.59765 c 1.044,0 1.88965,0.84519 1.88965,1.88818 v 4.43116 c 0,1.044 -0.84565,1.88965 -1.88965,1.88965 z m 195.37061,-0.0425 c -0.996,-0.042 -1.14453,-1.25402 -0.37353,-1.64502 4.08199,-1.578 7.40264,-7.30915 9.55664,-13.49415 -3.985,-0.40099 -6.95932,-1.50875 -7.94531,-2.44775 -3.576,-3.405 -4.91367,-18.56026 0.59033,-22.88525 4.22099,-3.318 18.2075,-1.62564 18.5625,10.00634 0.044,1.416 0.004,2.93865 -0.10547,4.51465 7.82599,-1.676 15.74268,-6.86005 15.74268,-17.91504 0,-1.107 1.04832,-1.48286 1.882319,-1.23486 0.492,-0.031 0.982743,0.28301 1.010743,0.95801 v 44.14307 z m 62.712894,-0.0293 c -1.042999,0 -1.889648,-0.84519 -1.889648,-1.88819 v -4.43115 c 0,-1.043 0.846649,-1.88965 1.889648,-1.88965 h 20.339356 c 0.389,-2.07199 0.619184,-5.51453 0.388184,-7.66552 -6.499994,-0.982 -13.343482,-3.3245 -18.688477,-8.12549 -5.601994,-5.033 -3.993778,-13.35028 -4.571778,-20.40528 -0.073,-0.882 1.144161,-0.97889 1.264161,-0.0879 0.443999,3.302 2.319995,11.7796 8.687988,15.0586 4.038996,2.079 12.675158,3.01318 21.952149,3.01318 4.172996,0 6.668013,0.0255 11.083008,-0.26953 0.032,-0.002 0.06275,-0.003 0.09375,-0.003 0.354,0 0.696008,0.13593 0.958008,0.37793 0.591,0.546 1.022132,8.50927 0.161133,9.15527 -0.781999,0.586 -4.366072,1.46446 -9.268067,1.77246 -0.617999,2.27 -0.76494,5.26221 0.435059,7.1792 h 7.171875 c 1.042999,0 1.888184,0.84665 1.888184,1.88965 v 4.43115 c 0,1.043 -0.845185,1.88819 -1.888184,1.88819 z m -194.626474,-10e-4 v -6.3208 -37.82373 c 0.001,-0.026 0.0117,-0.0424 0.0147,-0.0674 -0.005,-0.063 -0.007,-0.12697 -0.0117,-0.18897 -0.045,-0.552 0.41349,-0.79754 0.79248,-0.68554 0.512,-0.078 1.09743,0.22589 1.21143,0.94189 0,0 0.45316,2.77367 1.26416,6.90967 1.314,3.036 3.39809,6.11269 6.68408,7.80469 4.039,2.079 12.67416,3.01172 21.95215,3.01172 4.172,0 6.66901,0.0279 11.08301,-0.26807 0.032,-0.002 0.0627,-0.003 0.0937,-0.003 0.355,0 0.69601,0.13593 0.95801,0.37793 0.258,0.238 0.4844,1.88185 0.5874,3.71484 0.209,0.62 0.29501,1.47505 0.20801,2.64405 -0.63,8.45499 -6.44636,16.38379 -8.33936,18.75879 -0.363,0.455 -0.91067,0.71545 -1.49267,0.71045 l -7.31104,-0.0586 c -1.631,-0.013 -2.47581,-1.94088 -1.38281,-3.15088 3.234,-3.57999 5.54805,-8.6801 6.70605,-11.6001 -6.81399,0.195 -15.56708,-0.77956 -22.97607,-4.85156 -0.439,4.506 0.0187,9.13728 1.45166,12.42627 0.384,0.346 0.62988,0.84046 0.62988,1.39746 v 4.43262 c 0,1.043 -0.84518,1.88818 -1.88818,1.88818 z m 98.8462,-0.17431 c -3.99056,0.0512 -7.94694,-0.30676 -8.40381,-0.62989 -0.775,-0.547 -0.96989,-6.47519 -0.46289,-6.97119 0.225,-0.22 0.52696,-0.30495 0.83496,-0.35595 l 3.41162,0.0439 c 1.018,0 2.41299,-4.33463 3.06299,-9.78662 -4.873,1.815 -11.97273,2.54009 -18.11572,2.66309 2.09899,6.83099 -0.63256,14.16873 -1.64356,14.40673 -4.47099,1.052 -10.06197,0.517 -10.79297,0 -0.775,-0.547 -0.59489,-6.36532 -0.0879,-6.86132 0.225,-0.22 0.5215,-0.34696 0.8335,-0.35596 0.028,-10e-4 0.0555,-10e-4 0.0835,0 6.116,0.012 4.842,-7.31767 1.125,-7.65967 l 0.006,-0.003 c -0.98,-0.15 -1.65987,-0.3233 -1.92187,-0.5083 -0.879,-0.621 -0.67415,-8.59374 -0.0982,-9.15674 0.254,-0.25 0.59229,-0.39429 0.94629,-0.40429 0.031,-0.001 0.0617,-0.001 0.0937,0 4.422,0.16999 6.91495,0.0721 11.08594,-0.0469 7.27599,-0.207 14.1343,-0.97933 18.67529,-2.36133 -0.57399,-7.75199 -2.40966,-14.35107 -2.40966,-14.35107 -0.672,-2.606 2.29818,-3.00666 3.01318,-1.72266 0,0 8.60889,13.12835 8.60889,24.31934 0,6.55999 -0.72556,18.94881 -1.37256,19.11181 -1.66987,0.42113 -4.07734,0.59917 -6.47168,0.62989 z M 2.8461048,351.52689 C -4.399888,351.30989 -9.984462,346.03479 -9.984462,338.9058 V 320.689 c 0,-7.84999 5.584574,-12.40409 12.8305668,-12.62109 H 17.747961 c 5.282994,0.31 11.42259,3.7763 11.95459,9.5083 v 24.44092 c -0.532,5.73199 -6.671596,9.19976 -11.95459,9.50976 z M -760.68614,350.59672 c -3.14445,0.11932 -5.91114,-3.55515 -8.35108,-5.36133 -3.61499,-3.232 -7.1863,-6.63354 -10.2583,-10.39453 -0.625,-0.764 -0.1947,-2.67174 0.0293,-3.42774 0.72,-1.978 18.93405,-21.53729 21.49805,-23.44629 0.645,-0.48 1.43901,-1.07675 2.29101,-0.94775 1.677,0.255 3.29643,1.66083 4.58643,2.65283 4.95399,3.806 11.57262,10.9336 13.43262,13.18359 1.86,2.249 0.0948,6.80725 -1.57617,8.69825 -5.849,6.61599 -12.00759,13.39218 -19.41358,18.28418 -0.7665,0.50118 -1.51264,0.73125 -2.23828,0.75879 z M 7.7650502,345.05814 c 3.1659968,-0.141 7.6110088,-1.52389 8.0830078,-5.60889 v -19.30517 c -0.471999,-4.085 -4.917011,-5.46789 -8.0830078,-5.60889 l -1.3139649,0.0234 c -3.4559965,0.016 -8.1050783,1.44038 -8.0800783,6.13037 v 18.2168 c -0.025,4.68999 4.6240818,6.1129 8.0800783,6.1289 z M -114.00302,343.54203 c 1.87055,0.0229 3.64723,-0.0333 5.28223,-0.23877 0.999,-3.068 1.30047,-6.95726 0.95947,-10.78125 -3.411,2.235 -6.96831,3.55512 -10.3623,4.24512 -0.629,2.30599 -1.42942,4.56647 -2.39942,6.68847 1.51,-0.056 3.06212,-0.0145 4.62012,0.0396 0.64275,0.0225 1.27639,0.0392 1.8999,0.0469 z m -642.27101,-4.11768 c 1.263,0 8.73275,-8.03586 12.73975,-12.27685 -3.111,-3.26 -12.15451,-11.85498 -13.04151,-11.85498 -0.887,0 -10.13795,8.90725 -13.16894,12.01025 1.73199,1.861 12.2077,12.12158 13.4707,12.12158 z m 74.8916,-1.41797 c -0.99628,-0.0697 -2.11608,-0.5572 -3.39258,-1.42382 -3.97899,-2.63 -7.60944,-5.99282 -10.35644,-9.90381 -2.085,3.44899 -4.16532,6.93705 -6.44531,10.24804 -0.413,0.599 -0.99644,1.20859 -1.79444,0.97559 -3.19099,-1.818 -5.20641,-5.34009 -7.27441,-8.28809 -2.135,-3.28799 -3.96055,-6.74648 -5.28955,-10.43847 -0.583,-3.036 0.29753,-6.38231 1.29052,-9.23731 0.329,-1.26 2.11085,-4.65774 2.96485,-1.86474 1.791,4.38499 6.05656,12.32909 10.74756,16.37109 0.135,0.122 0.29233,0.18662 0.59033,-0.33838 2.213,-3.593 4.53784,-7.1227 6.71484,-10.7417 0.267,-0.438 1.11391,-1.11 1.52491,-0.375 1.94699,3.478 5.1098,6.46676 8.1958,8.92676 -0.142,-0.113 1.97773,1.47281 3.32373,2.13281 0.86,0.422 2.37235,0.74563 2.71435,0.61963 0.525,-0.479 0.7522,-1.20044 1.0752,-1.89844 0.662,-1.259 2.5061,-8.93935 4.2041,-6.94336 1.745,5.339 -2.24939,13.99938 -4.67139,18.88038 -1.14187,2.37312 -2.46159,3.41505 -4.12207,3.29882 z M 3.5770618,334.90531 c -0.7579992,0 -1.3740235,-0.61456 -1.3740235,-1.37256 v -6.66797 c 0,-0.758 0.6160243,-1.37402 1.3740235,-1.37402 h 7.0649412 c 0.758,0 1.372559,0.61602 1.372559,1.37402 v 6.66797 c 0,0.758 -0.614559,1.37256 -1.372559,1.37256 z M -756.71348,332.66996 c -0.0466,-0.004 -0.0873,-0.0199 -0.11866,-0.0498 -1.847,-1.756 -3.69304,-3.51304 -5.54004,-5.26904 -0.255,-0.243 0.3652,-1.1051 0.4292,-1.2041 1.107,-1.616 2.49816,-3.09271 4.05616,-4.30371 0.186,-0.133 0.99997,-0.81662 1.25097,-0.57862 1.847,1.757 3.69304,3.51205 5.54004,5.26905 0.255,0.242 -0.3662,1.1041 -0.4292,1.2041 -1.107,1.615 -2.49862,3.09271 -4.05762,4.30371 -0.16187,0.11637 -0.80437,0.6556 -1.13085,0.62842 z m 196.32715,-2.25293 c 1.85024,0.0242 3.76172,-0.20215 3.76172,-0.20215 l 0.14209,-6.52881 c 0,0 -2.15127,-0.71777 -3.80127,-0.71777 -1.65,0 -3.73096,0.35888 -3.73096,0.35888 0,0 -0.44545,6.09737 0.78955,6.67237 0.64013,0.29812 1.72872,0.40298 2.83887,0.41748 z m 52.49121,0 c 1.11015,-0.0145 2.19728,-0.11936 2.8374,-0.41748 1.235,-0.575 0.78955,-6.67237 0.78955,-6.67237 0,0 -2.07949,-0.35742 -3.72949,-0.35742 -1.65,0 -3.80273,0.71631 -3.80273,0.71631 l 0.14355,6.52881 c 0,0 1.91148,0.22632 3.76172,0.20215 z m 203.37305,-2.72022 c 3.946,-0.242 7.09558,-1.28962 8.16358,-2.76562 1.829,-2.529 -1.15898,-7.8723 -5.91797,-5.48731 -1.855,0.93 -2.50761,4.15194 -2.24561,8.25293 z m 179.26759,-0.78808 c 0.26,-3.931 -0.39654,-7.0177 -2.24854,-7.90869 -4.75899,-2.291 -5.28352,2.96555 -3.81152,5.39355 0.75,1.238 3.04306,2.15714 6.06006,2.51514 z m -556.66701,-11.02588 c -0.097,0.004 -0.1954,-0.0168 -0.2959,-0.0718 -1.233,-1.171 -2.4672,-2.34023 -3.70019,-3.51123 -0.291,-0.276 -0.0796,-0.87909 0.0234,-1.16309 0.57,-1.37799 1.56209,-2.66606 2.76709,-3.53906 0.346,-0.187 0.72007,-0.52715 1.12207,-0.30615 1.233,1.17 2.4672,2.34123 3.7002,3.51123 0.291,0.276 0.0781,0.87909 -0.0249,1.16309 -0.57,1.37899 -1.56063,2.66652 -2.76563,3.54052 -0.2595,0.14025 -0.53517,0.36545 -0.82617,0.37647 z m 495.19923,-25.71241 c -13.55399,0 -15.88477,-6.36879 -15.88477,-13.77978 v -4.55127 c 0.371,-6.14899 6.05882,-10.92135 11.88282,-11.88135 l 7.11767,-0.0278 c 2.643,-0.148 5.50643,-1.13449 7.21143,-3.25049 2.155,-2.81 1.80813,-6.72583 -2.46387,-6.50683 l -23.76709,-0.006 v -8.74366 h 26.78614 c 8.38599,-0.06 13.87976,4.09603 14.00976,12.79102 l 0.17432,24.65771 c 0,6.142 -6.53416,11.29834 -16.05616,11.29834 z m 45.72363,-0.16406 v -19.11035 c 0.592,-5.78199 6.0464,-7.73799 10.0254,-7.93799 l 3.42919,0.0322 c 2.561,0.01 5.50984,0.40997 8.00684,1.41797 1.777,-0.937 3.80483,-1.3632 5.54883,-1.4502 l 3.4292,0.0322 c 1.138,0.004 2.35182,0.0881 3.56982,0.26514 v -11.75977 c -0.227,-2.428 -2.37048,-3.24999 -3.89648,-3.33399 l -1.11621,0.0146 c -1.336,0.007 -3.02314,0.57257 -3.64014,2.22657 h -10.2876 c 1.026,-6.649 7.70123,-8.74942 12.78223,-8.77442 l 4.0166,-0.041 c 5.495,0.246 13.02917,2.64482 13.847169,9.73681 v 38.68213 h -11.705569 v -16.77685 l -0.022,0.004 c 0.013,-2.272 -2.48194,-2.96224 -4.33594,-2.96924 l -1.24951,-0.0117 c -1.269,0.069 -3.05223,0.73729 -3.24023,2.71729 v 17.03613 h -8.17676 v -16.89697 c -0.085,-2.165 -2.50136,-2.83773 -4.31836,-2.84473 l -1.24951,-0.0117 c -1.269,0.069 -3.05124,0.73729 -3.24024,2.71729 v 17.03613 z m -159.4834,-0.009 -3.60351,-0.0351 c -5.382,-0.025 -12.62248,-2.24286 -12.58448,-9.54785 v -14.59424 h 8.25879 v 12.87011 c -0.013,2.5 2.46465,3.25861 4.30664,3.26661 l 1.23487,0.0132 c 1.687,-0.076 4.0571,-0.81321 4.3081,-2.99121 v -24.52442 c -0.502,-4.34999 -5.00598,-5.82216 -8.37597,-5.97216 l -9.33838,0.0249 c -3.68,0.018 -8.62903,1.53188 -8.60303,6.52588 v 22.59228 c -0.014,2.702 1.42838,4.3838 3.33838,5.3628 l -0.88916,6.62402 c 0,0 -2.77174,0.53014 -5.40674,-1.02686 -2.635,-1.55799 -4.38721,-5.87302 -4.38721,-9.89502 V 255.0331 c 0,-8.35799 5.94614,-13.20602 13.66114,-13.43702 h 17.77587 c 5.625,0.33 12.16203,4.02155 12.72803,10.12354 v 29.54151 c -0.734,6.36299 -7.49334,8.51632 -12.42334,8.73632 z m 50.29981,-0.30908 c -0.38615,0.015 -0.79906,0.01 -1.24219,-0.019 l -8.31592,-0.001 c -10.45599,-0.391 -6.72922,-21.1679 -4.53222,-21.7749 l 27.51855,-14.09619 v -2.39795 c -0.218,-2.328 -2.27428,-3.11629 -3.73828,-3.19629 l -1.06787,0.0132 c -1.282,0.007 -2.90019,0.54975 -3.49219,2.13575 h -9.86719 c 0.984,-6.377 7.38629,-8.39153 12.25928,-8.41553 l 3.854,-0.0395 c 5.27,0.235 12.49528,2.53638 13.28028,9.33838 v 37.27002 H -236.754 v -26.83008 l -13.87793,6.59912 c 5.198,1.498 5.85963,5.72439 5.86963,12.17139 -0.0244,4.07437 0.37227,9.01768 -5.41992,9.24316 z m -115.771,-0.29736 -3.68262,-0.0366 c -3.54099,-0.016 -7.87068,-0.93403 -10.49267,-3.52002 -2.302,-2.27 -1.11529,-6.19782 2.05371,-6.84082 l 0.81006,-0.16407 c 1.40199,-0.285 2.92168,0.10378 3.84668,1.19678 0.86999,1.028 2.47065,1.3856 3.76464,1.3916 l 1.25977,0.0117 c 0.904,-0.039 1.99316,-0.26683 2.86816,-0.77783 l -22.7666,-18.31934 v 0.041 l -6.4248,-5.20899 c -0.194,-0.157 -0.30616,-0.39113 -0.30616,-0.64013 v -3.12305 c 0,-6.32499 4.95578,-11.00673 11.38477,-11.19873 h 19.77246 c 4.688,0.275 10.13494,3.35251 10.60694,8.4375 v 8.82422 21.26367 c -0.75,6.31 -7.65735,8.44509 -12.69434,8.66309 z m -402.06446,-0.019 c -5.167,-0.155 -9.40676,-3.10425 -11.07276,-7.46924 -0.489,-1.283 -0.76758,-2.68274 -0.76758,-4.17774 v -3.52441 l 7.00049,-5.63233 23.7041,-19.07373 c -1.31599,-1.06 -3.2004,-1.49352 -4.7124,-1.56152 l -12.71338,0.0176 c -2.68599,0.013 -6.29732,1.11867 -6.27832,4.76367 v 0.17285 h -6.98144 c 0.198,-6.41999 5.26629,-10.46853 11.82129,-10.66553 h 20.56201 c 4.87499,0.286 10.54174,3.48689 11.03174,8.77588 v 29.6001 c -0.49,5.289 -6.15675,8.48795 -11.03174,8.77295 z m 321.1377,-0.52149 c -8.56599,-0.153 -11.00799,-3.01907 -11.68799,-7.28906 h 7.92627 c 1.01,1.109 2.77198,1.5179 5.27197,1.5249 l 11.51661,0.0176 c 2.45999,-0.11 5.91671,-1.18438 6.28271,-4.35938 v -5.34814 c -0.09,0.007 -0.18053,0.0199 -0.26953,0.0249 l -19.78565,0.001 c -11.29098,-0.202 -11.94433,-5.11352 -11.94433,-11.74952 v -8.25586 c 0,-5.89499 4.77832,-10.67285 10.67431,-10.67285 3,0 5.8618,1.26201 7.88379,3.47901 l 13.44141,14.72754 v -18.20655 h 10.85742 v 37.25391 c -0.495,5.33599 -6.20896,8.56405 -11.12695,8.85205 z m -262.28175,-0.28564 c -0.2851,-0.0237 -0.56982,-0.0969 -0.84082,-0.22412 -2.64199,-1.243 -5.5577,-3.61764 -5.8667,-7.36963 v -29.74512 c 0.612,-5.977 6.25031,-7.99906 10.36231,-8.20606 l 3.00586,0.0337 c 4.48799,0.024 10.5276,2.10632 10.4956,8.96631 v 25.79297 c -0.012,2.348 2.31591,3.06085 4.0459,3.06885 l 1.6333,0.0117 c 1.585,-0.071 3.81137,-0.76211 4.04737,-2.80811 v -24.03369 c -0.238,-2.063 -1.44363,-3.9328 -2.76563,-5.0918 -0.972,-0.85099 -1.15067,-2.2884 -0.36767,-3.3164 l 0.97265,-1.27442 c 0.599,-0.78599 1.61195,-1.13111 2.56494,-0.87011 3.678,1.005 9.04943,4.52678 9.46143,8.96777 v 27.76318 c -0.69,5.976 -7.03795,7.9976 -11.66895,8.2046 l -3.85986,-0.0337 c -5.05499,-0.024 -11.85582,-2.10631 -11.81982,-8.96631 v -25.79296 c 0.01,-2.348 -1.91517,-3.06085 -3.34717,-3.06885 l -0.95801,-0.0117 c -1.312,0.07 -3.1541,0.76311 -3.3501,2.8081 v 24.0337 c 0.209,2.18499 0.84591,4.03815 1.73291,5.18115 0.747,0.962 0.83275,2.27709 0.0937,3.24609 l -1.30664,1.71533 c -0.54525,0.714 -1.40932,1.09065 -2.26465,1.01954 z m 198.68702,-0.0381 c -7.24599,-0.217 -12.83203,-5.4931 -12.83203,-12.62109 v -5.21778 c 0,-7.84999 5.58604,-12.40409 12.83203,-12.62109 h 17.54444 c 0.53299,0.031 1.07565,0.10275 1.61865,0.19775 v -4.42676 c -0.352,-3.05299 -3.67602,-4.08591 -6.04102,-4.19091 l -11.99414,0.0161 c -1.995,0.01 -4.51622,0.65355 -5.55322,2.56055 h -7.9878 c 1.405,-5.708 6.3141,-8.97374 12.41309,-9.15674 h 17.54444 c 5.28299,0.31 11.42359,3.77777 11.95459,9.50976 v 16.26123 h -10.33594 c -0.352,-3.05299 -3.67602,-4.08591 -6.04102,-4.19091 l -11.99414,0.0161 c -2.582,0.012 -6.05462,1.07657 -6.03662,4.58057 v 7.10595 c -0.018,3.504 3.45462,4.56857 6.03662,4.58057 l 11.99414,0.0176 c 2.365,-0.106 5.68902,-1.13792 6.04102,-4.19092 v -0.49072 h 10.33594 v 2.75244 c -0.531,5.73099 -6.6716,9.1993 -11.95459,9.5083 z m 499.25685,-0.0395 v -31.24805 c 1.010999,-14.96198 20.4745192,-14.22447 31.520508,-14.08447 l 10.633301,0.3164 v 45.01612 h -8.742188 l -0.0015,-39.52002 c -6.858993,0.616 -19.2992441,1.39961 -20.323243,10.1206 l -0.013184,29.39942 z m -63.325197,-0.022 0.02051,-14.9209 c 0.372,-6.149 6.060284,-10.92035 11.884278,-11.88135 l 7.116211,-0.0278 c 2.642998,-0.148 5.504963,-1.13403 7.209961,-3.24903 2.154998,-2.81099 1.811059,-6.7263 -2.460937,-6.5083 l -23.77002,-0.006 v -8.74218 h 26.787598 c 8.385992,-0.059 13.879301,4.09502 14.008301,12.79101 l 0.0073,32.54444 h -13.08252 v -23.51075 c -2.886997,2.088 -6.746894,2.52808 -10.21289,2.35108 -4.594996,0.061 -7.508134,3.73907 -7.661133,8.14306 l -0.0015,13.01661 z m -504.870133,-0.28565 c -4.72299,-0.194 -8.34814,-3.19064 -8.34814,-8.32763 v -28.10157 c 0,-5.18499 3.68812,-8.19342 8.47412,-8.33642 h 26.87109 c 3.489,0.205 7.54305,2.49625 7.89405,6.28125 v 33.16992 h -9.8291 v -6.71192 h -9.55372 V 269.418 h 9.55372 v -13.71826 c -0.443,-3.837 -4.61883,-5.13458 -7.59083,-5.26758 l -11.1914,0.022 c -3.245,0.015 -7.61089,1.35137 -7.58789,5.75537 v 21.26367 c -0.008,1.509 0.5071,2.6493 1.3081,3.5083 z m -41.5708,-0.29297 -3.38525,-0.0337 c -5.054,-0.023 -11.85483,-2.10631 -11.81983,-8.96631 V 268.161 c 0.01,-1.856 -1.82929,-2.42025 -3.19629,-2.42725 l -0.91552,-0.009 c -1.253,0.056 -3.01222,0.60371 -3.19922,2.2207 v 7.8794 c -0.014,2.537 1.45304,4.1186 3.39404,5.0376 l -0.90381,6.22119 c 0,0 -2.81709,0.49913 -5.49609,-0.96387 -2.679,-1.462 -4.46045,-5.51744 -4.46045,-9.29443 v -12.14649 c 0.578,-5.97599 5.90216,-7.99905 9.78515,-8.20605 l 2.83741,0.0351 c 4.23899,0.023 9.9416,2.10486 9.9126,8.96485 v 11.79199 c -0.012,2.349 2.31443,3.06085 4.04443,3.06885 l 1.15869,0.0132 c 1.585,-0.071 3.81136,-0.76357 4.04736,-2.80957 v -23.0332 c -0.471,-4.085 -4.70168,-5.46789 -7.86767,-5.60889 l -23.91797,0.0234 v -6.49072 h 29.69678 c 5.28299,0.31 11.42259,3.7763 11.95459,9.5083 v 27.7456 c -0.69,5.976 -7.03895,7.99859 -11.66895,8.20459 z m 364.32276,-3.79687 1.27588,-0.0176 c 1.849,-0.073 2.42715,-0.86582 2.34815,-2.34082 l -0.082,-3.63721 c -0.136,-2.69399 -4.51861,-1.8576 -6.64161,-2.03759 l 10e-4,6.20947 c 0.169,1.259 1.74315,1.83873 3.09814,1.82373 z m -497.2046,-0.4834 c 2.46,-0.11 5.91525,-1.18291 6.28125,-4.35791 V 258.6322 l -25.26562,20.3291 c 0.074,3.532 3.62,4.61544 6.27099,4.62744 z m 564.27248,-0.74707 h 8.57519 c 3.375,0 6.11133,-2.73487 6.11133,-6.10986 V 266.793 c -2.888,2.088 -8.74687,2.52661 -12.21387,2.34961 -4.59499,0.062 -7.50713,1.63116 -7.66113,6.03516 v 2.49316 c 0,2.866 2.32348,5.18848 5.18848,5.18848 z m -174.39698,-8.97217 v -4.00049 l -23.56787,-18.9624 c -0.457,0.633 -0.73889,1.42446 -0.73389,2.41846 v 0.99023 z m -69.86279,-6.38379 c 0.84199,-0.037 1.80042,-0.19197 2.71142,-0.50097 l -14.08887,-15.43799 c -1.62699,-1.782 -4.49512,-1.92949 -6.12011,-0.14649 -0.644,0.706 -1.05144,1.64603 -1.04444,2.87403 v 8.43164 c -0.019,3.64399 2.11779,4.7502 6.27979,4.7622 z m 69.86279,-2.61621 v -6.42187 -5.52832 c -0.352,-3.053 -3.67455,-4.08639 -6.03955,-4.19239 l -12.22412,0.019 c -0.509,0.002 -1.05315,0.0466 -1.59815,0.14062 z M -713.53868,225.7891 v -21.7544 c 6.63799,-0.024 14.05818,0.0835 20.70117,0.0615 2.292,0.089 5.45185,-0.90203 5.69385,-3.56103 l -0.006,-11.33496 c -0.496,-3.855 -5.17342,-5.15948 -8.50342,-5.29248 l -1.38134,0.022 c -3.634,0.015 -8.52503,1.35867 -8.49903,5.78467 h -6.72217 c -0.72299,-7.36699 5.26895,-11.70565 12.10694,-11.91065 l 14.0625,0.001 c 4.98599,0.292 10.77876,3.56417 11.28076,8.97217 l 0.063,12.73535 c -0.446,5.27399 -3.42298,9.38753 -8.75098,10.49853 l -17.70117,0.19629 v 15.58155 z m 648.227068,-0.5376 c -4.975142,0.091 -4.646152,-4.65146 -4.665527,-8.53711 0.01,-7.99099 0.921232,-12.29244 10.053223,-11.75244 h 1.937988 c -0.399,-0.6 -0.780536,-1.28294 -1.123535,-2.08594 -1.607999,-3.756 -1.28238,-8.09448 1.807617,-9.41748 l 0.531738,-0.22705 c 1.466999,-0.628 3.164482,0.052 3.792481,1.51904 l 0.13623,0.31787 c 0.338,0.791 0.276574,1.67655 -0.08642,2.45654 -0.53,1.137 -0.822285,2.89408 -0.09229,4.60108 0.582,1.359 1.612021,2.30123 2.39502,2.86523 3.669996,0.003 6.50298,-0.10097 6.229981,-9.93896 0.304999,-11.00499 -3.275388,-9.83269 -7.567383,-9.95069 h -11.305665 v -2.1621 c 0,-2.487 1.99396,-4.51002 4.480957,-4.54102 5.897995,-0.072 15.450998,-0.21712 16.395997,0.62988 4.564995,2.424 4.096758,8.61989 4.051758,13.00489 v 6.03808 c 0.045,4.385 0.513237,10.57942 -4.051758,13.00342 -0.595999,0.534 -4.609173,0.67355 -8.972168,0.68555 0.281999,6.04599 0.254017,13.21531 -5.375977,13.46631 h -8.074219 c -0.171718,0.0132 -0.337558,0.022 -0.498047,0.0249 z m 83.106448,-0.0527 c -5.604995,0 -5.368161,-5.47073 -5.389161,-10.34472 0.005,-1.111 -0.0017,-2.25057 0.04834,-3.35157 h -0.04834 -2.068359 c -4.6509955,-0.021 -9.87304724,0.22603 -9.87304724,-5.64697 v -5.46387 H -4.0445204 -11.17538 l 0.0059,-6.59033 0.0044,-4.79443 c 0.13,-4.736 2.7542278,-10.34633 7.8032228,-10.61133 H 8.9178823 c 5.0489947,0.265 7.6732227,5.87533 7.8032227,10.61133 l 0.0029,3.25781 c 3.068997,0.324 5.553223,1.46168 5.553223,5.51367 v 6.73096 h 3.22705 c 5.604995,0 5.367696,5.47173 5.387696,10.34473 -0.02,4.87399 0.217299,10.34472 -5.387696,10.34472 z M -375.0748,224.64652 c -6.291,-0.189 -11.14014,-4.76804 -11.14014,-10.95703 V 197.8721 c 0,-6.81499 4.84914,-10.76949 11.14014,-10.95849 0,0 2.94824,-0.27979 6.34424,-0.27979 3.39499,0 6.59326,0.28125 6.59326,0.28125 4.58799,0.268 9.91888,3.2784 10.37988,8.2544 v 21.22119 c -0.461,4.97599 -5.79189,7.98686 -10.37988,8.25586 z m -375.21681,-0.1875 c 0,0 -15.66622,-0.0322 -15.67822,-0.0322 -3.165,-0.007 -7.02984,-2.03144 -9.02783,-4.41943 -2.576,-3.08 -2.52817,-6.95789 -2.22217,-10.75489 0.695,-8.61099 3.97884,-17.21359 10.90283,-22.72558 0.399,-0.317 0.80807,-0.62353 1.22607,-0.91553 H -778.692 v -6.47607 h 41.06104 v 6.47607 h -12.95215 c -0.49,0 -1.86521,1.69764 -2.24121,2.05664 -0.762,0.726 -1.50789,1.46703 -2.23389,2.22803 -1.427,1.498 -2.7791,3.07209 -3.99609,4.74609 -2.356,3.242 -4.20076,6.8931 -4.96876,10.8501 -0.32299,1.665 -0.4545,3.36311 -0.3955,5.05811 0.043,1.20099 0.0229,2.52243 0.46289,3.66943 0.086,0.224 0.18994,0.44139 0.31494,0.65039 0.704,1.175 1.90891,2.06797 3.12891,2.64697 2.61999,1.242 5.72601,1.35186 8.56201,1.02686 3.56899,-0.3 6.85061,-3.03488 7.22461,-6.69287 l 7.08838,-0.009 c 0.638,7.66799 -5.4138,12.4457 -12.65479,12.6167 z m 112.33008,-0.25342 c -4.86099,-0.531 -10.46507,-4.79498 -10.87207,-11.75098 l -0.0381,-1.81054 h 6.88623 c 0.291,3.39599 3.41523,7.32128 8.01123,7.32128 h 3.23144 c -2.796,-2.56899 -4.6875,-7.43872 -4.6875,-13.03271 0,-4.202 1.06821,-7.99294 2.7832,-10.71094 h -1.60253 c -2.113,-0.011 -3.5213,0.31149 -4.9043,1.75049 l -0.0176,0.004 c 0.705,1.151 1.00726,2.57596 0.59326,4.10596 -0.514,1.9 -2.10604,3.39826 -4.04004,3.76026 -3.33899,0.625 -6.25341,-1.921 -6.25341,-5.146 0.21699,-7.24599 4.7721,-12.83057 12.62109,-12.83057 h 12.21826 c 7.12799,0 12.4041,5.58458 12.6211,12.83057 v 13.5542 c -0.31,5.28299 -6.0477,11.42359 -10.9087,11.95459 z m 64.80762,0 c -7.24599,-0.217 -12.83057,-4.7721 -12.83057,-12.62109 v -12.21827 c 0,-7.12799 5.58458,-12.40409 12.83057,-12.62109 h 14.90186 c 5.28299,0.31 11.42359,3.77877 11.95459,9.50977 v 18.44091 c -0.531,5.731 -6.6716,9.1993 -11.95459,9.5083 h -2.92237 c -1.483,0 -2.68359,-1.20159 -2.68359,-2.68359 v -4.53955 c 0,-0.93 0.49795,-1.7673 1.27295,-2.2793 1.284,-0.848 2.1691,-2.28571 2.4331,-4.5747 v -1.7461 c -1.87999,-1.828 -4.90131,-3.01904 -8.32031,-3.01904 -3.97899,0 -7.42674,1.6074 -9.15674,3.9624 v 0.26074 c -0.011,2.113 0.31149,3.51984 1.75049,4.90284 l 0.004,0.019 c 0.79499,-0.486 1.72021,-0.78223 2.72021,-0.78223 2.894,0 5.23975,2.34722 5.23975,5.24121 0,2.894 -2.34575,5.23975 -5.23975,5.23975 z m 64.00049,0 c -7.24599,-0.217 -12.83203,-5.4931 -12.83203,-12.62109 v -13.21875 c 0,-7.85 5.58604,-12.4041 12.83203,-12.6211 h 14.90186 c 5.28299,0.31 11.42212,3.77877 11.95312,9.50977 v 3.64306 h -13.85303 v -0.0747 c -0.156,-1.349 -0.74903,-2.39601 -1.58203,-3.20801 -1.331,2.283 -2.15625,5.42818 -2.15625,8.90918 0,3.44699 0.80724,6.56812 2.11524,8.84912 0.7,-0.671 1.23814,-1.50304 1.49414,-2.54004 h 13.98193 v 3.86279 c -0.531,5.731 -6.67013,9.1993 -11.95312,9.5083 z m 63.99903,-3.34277 c -7.246,-0.191 -12.83057,-4.81923 -12.83057,-11.07422 V 193.8057 c 0,-6.887 5.58457,-10.88322 12.83057,-11.07422 h 14.90185 c 5.283,0.272 11.42359,3.31329 11.95459,8.34228 v 21.44678 c -0.531,5.028 -6.67159,8.07029 -11.95459,8.34229 z m 318.75733,-0.33545 c -7.245,-0.217 -12.83203,-5.4931 -12.83203,-12.6211 v -12.21826 c 0,-7.84899 5.58703,-12.40409 12.83203,-12.62109 3.94299,0 6.868,4.35507 4.229,8.51806 -0.177,0.278 -0.41169,0.52578 -0.67969,0.71778 -2.32399,1.665 -4.58753,1.49089 -6.26953,0.46289 l -0.004,0.0176 c -1.439,1.38299 -1.76296,2.79129 -1.75196,4.90429 v 10.21875 c -0.024,4.69 2.62557,6.11291 6.08057,6.12891 l 5.31299,0.0234 c 3.166,-0.141 5.61396,-1.52436 6.08496,-5.61036 v -11.30419 c -0.344,-2.984 -1.74406,-4.52095 -3.70605,-5.18995 v -10e-4 -8.88574 -8.9253 h 20.046383 v 3.00293 h -4.475093 v 10.69776 c 1.08799,1.333 1.819789,2.91791 1.987789,4.73291 v 18.44238 c -0.530999,5.731 -6.669129,9.19977 -11.953129,9.50977 z m -190.75635,-0.001 c -7.246,-0.217 -12.83057,-4.7711 -12.83057,-12.62109 v -12.2168 c 0,-7.12899 5.58457,-12.40409 12.83057,-12.62109 h 14.90185 c 5.283,0.31 11.42213,3.77777 11.95313,9.50976 v 18.44092 c -0.531,5.732 -6.67013,9.1983 -11.95313,9.5083 h -2.92236 c -1.483,0 -2.68506,-1.20159 -2.68506,-2.68359 v -4.53955 c 0,-0.93 0.49795,-1.76584 1.27295,-2.27783 1.284,-0.848 2.17057,-2.28718 2.43457,-4.57618 v -11.3042 c -0.471,-4.08499 -2.91897,-5.46788 -6.08496,-5.60888 l -5.31299,0.022 c -3.456,0.016 -6.10457,1.44038 -6.08057,6.13037 v 10.21729 c -0.011,2.11299 0.31296,3.52129 1.75196,4.90429 l 0.004,0.0176 c 0.795,-0.486 1.72022,-0.78076 2.72022,-0.78076 2.89399,0 5.23974,2.34575 5.23974,5.23975 0,2.89399 -2.34575,5.23974 -5.23974,5.23974 z m 61.99951,0 c -7.24599,-0.217 -12.83057,-5.4921 -12.83057,-12.62109 v -12.2168 c 0,-7.84999 5.58458,-12.40409 12.83057,-12.62109 3.225,0 5.76953,2.91395 5.14453,6.25195 -0.362,1.934 -1.85833,3.52604 -3.75732,4.04004 -1.531,0.414 -2.95643,0.1122 -4.10743,-0.5918 l -0.004,0.0161 c -1.439,1.38299 -1.76149,2.79276 -1.75049,4.90576 v 9.21679 c -0.024,4.69 2.62311,6.11438 6.0791,6.13038 l 3.12891,0.006 c 0.631,-0.86 1.8457,-2.82532 1.8457,-5.21631 0,-2.306 -1.193,-4.16752 -2.354,-5.20752 -0.796,-0.712 -1.29785,-1.6947 -1.29785,-2.7627 v -0.42773 c 0,-1.981 1.6054,-3.58887 3.5874,-3.58887 h 0.71631 c 4.17399,0 6.6665,4.79419 6.6665,9.86719 0,3.40399 -0.92772,5.75912 -1.99072,7.34912 l 2.01123,0.003 c 3.166,-0.141 5.61396,-1.52389 6.08496,-5.60889 v -10.30517 c -0.344,-2.984 -1.74552,-4.51995 -3.70752,-5.18995 v -8.8872 h 5.60742 c 5.283,0.309 8.42213,3.77777 8.95313,9.50976 v 18.44092 c -0.531,5.732 -6.67013,9.1983 -11.95313,9.5083 z m 66,0 c -7.24599,-0.217 -12.83057,-5.4921 -12.83057,-12.62109 v -12.2168 c 0,-7.84999 5.58458,-12.40409 12.83057,-12.62109 2.894,0 5.23975,2.34721 5.23975,5.24121 0,2.89399 -2.34575,5.23974 -5.23975,5.23974 -1,0 -1.92522,-0.29476 -2.72021,-0.78076 l -0.004,0.0161 c -1.439,1.38299 -1.76149,2.79276 -1.75049,4.90576 v 10.21582 c -0.024,4.68999 2.62311,6.11437 6.0791,6.13037 l 5.31446,0.0234 c 3.16599,-0.141 5.61249,-1.52389 6.08349,-5.60889 v -11.30566 c -0.264,-2.289 -1.1491,-3.72671 -2.4331,-4.57471 -0.775,-0.512 -1.27295,-1.3493 -1.27295,-2.2793 v -4.53808 c 0,-1.482 1.20059,-2.68506 2.68359,-2.68506 h 2.92237 c 5.28299,0.31 11.42359,3.77777 11.95459,9.50976 v 18.44092 c -0.531,5.732 -6.6716,9.1983 -11.95459,9.5083 z m 128.399417,-0.44971 c 1.049999,0.014 2.269879,-0.52064 2.400879,-1.68164 l 0.0015,-5.73193 c -1.644998,0.167 -5.042926,-0.60514 -5.148926,1.88086 l -0.06299,3.35742 c -0.062,1.361 0.387337,2.09365 1.819336,2.16065 z m -310.050297,-1.04589 c 2.74899,-0.123 6.60953,-1.32215 7.01953,-4.86914 v -16.76075 c -0.41,-3.54699 -4.27054,-4.7476 -7.01953,-4.8706 l -1.14112,0.0205 c -2.99999,0.014 -7.03613,1.24978 -7.01513,5.32177 v 3.6709 c 2.09699,0.751 3.60058,2.75045 3.60058,5.10645 0,2.35499 -1.50359,4.35498 -3.60058,5.10498 v 1.93506 c -0.021,4.07199 4.01514,5.30777 7.01513,5.32177 z M 20.800695,218.6089 h 1.696289 c 1.872998,-0.098 2.378906,-1.6644 2.378906,-3.75439 0,-2.09 -0.505908,-3.6574 -2.378906,-3.7544 h -1.696289 c -1.871998,0.097 -2.377441,1.6644 -2.377441,3.7544 0,2.08999 0.505443,3.65639 2.377441,3.75439 z m -525.036635,-2.87109 c 0.212,-0.01 0.43086,-0.0259 0.65186,-0.0469 -1.715,-2.71899 -2.78467,-6.51233 -2.78467,-10.71533 0,-4.704 1.33634,-8.89419 3.42334,-11.63818 -0.444,-0.064 -0.87853,-0.10505 -1.29053,-0.12305 l -1.31396,0.022 c -3.456,0.016 -8.10408,1.44038 -8.08008,6.13037 v 10.21875 c -0.024,4.69 4.62408,6.11291 8.08008,6.12891 z m -120.83203,-0.12451 c 0.698,-1.013 1.01559,-2.28353 1.07959,-3.70752 l -0.0234,-11.6045 c -0.011,-2.29499 -0.64929,-4.22865 -2.44629,-5.26464 -1.527,2.31299 -2.49316,5.68178 -2.49316,9.44677 0,4.81 1.5713,8.99189 3.8833,11.12989 z m 184.83252,-0.42481 c 3.166,-0.124 7.61201,-1.33688 8.08301,-4.92187 v -16.93799 c -0.471,-3.585 -4.91701,-4.79788 -8.08301,-4.92188 l -1.31396,0.0205 c -3.456,0.014 -8.10408,1.26391 -8.08008,5.37891 v 3.11132 c 2.416,0.864 4.14697,3.16689 4.14697,5.87989 0,2.71299 -1.73097,5.01588 -4.14697,5.87988 v 1.11182 c -0.024,4.11499 4.62408,5.3649 8.08008,5.3789 z m 43.71094,-9.74267 V 194.7637 c -0.019,-6.40599 3.47998,-15.15338 10.25098,-15.81738 h 27.97119 v 6.88037 h -26.00977 c -4.57199,0.439 -6.70449,4.73302 -6.62549,8.93701 v 10.68165 z m 406.861826,-0.24756 h 2.068359 c 1.994998,0 3.490008,-0.5297 3.583008,-2.4917 v -1.77832 c -0.093,-1.962 -1.58801,-2.4917 -3.583008,-2.4917 h -2.068359 c -1.9949981,0 -3.4900081,0.5297 -3.583008,2.4917 v 1.77832 c 0.093,1.962 1.5880099,2.4917 3.583008,2.4917 z m -587.966326,-3.50977 c 2.225,-1.728 5.3366,-2.80518 8.7876,-2.80518 3.398,0 6.47146,1.04215 8.68945,2.72315 v -2.7832 c -0.471,-4.086 -2.9175,-5.46789 -6.08349,-5.60889 l -5.31446,0.022 c -3.45599,0.016 -6.1031,1.44038 -6.0791,6.13037 z M -4.0445204,193.8013 h 13.643555 v -2.40674 c -0.04,-1.50199 -0.4123844,-3.41795 -1.9423828,-4.00195 -1.6409984,-0.712 -8.11632615,-0.712 -9.7573245,0 -1.5299985,0.584 -1.9038478,2.49996 -1.9438477,4.00195 z M -106.34189,184.32376 v -7.1792 h -2.60595 v 6.31202 c 0.883,0.21099 1.75995,0.49918 2.60595,0.86718 z m -340.75196,-22.54687 c -4.78299,-0.28 -10.34126,-3.41843 -10.82226,-8.60743 v -21.22265 c 0.361,-3.891 3.57666,-6.62954 7.18066,-7.87354 0.982,-0.339 5.32281,-0.94236 9.6958,-1.15136 v -6.02344 h -7.30517 v -3.08203 h 13.23632 v 9.08203 c 5.883,0.202 9.07795,0.97185 10.43995,1.56885 3.78599,1.65799 6.30175,5.11739 6.30175,10.29638 0,8.91899 -9.48652,10.32715 -15.70752,10.32715 -3.93999,0 -7.54453,-0.85079 -10.39453,-2.25879 v 6.20069 c 0.427,3.69899 4.45236,4.95061 7.31836,5.07861 l 3.9419,-0.0205 c 1.283,0 3.74294,-0.2634 4.91894,-1.3374 0,0 -0.20508,-0.28258 -0.20508,-0.87158 0,-2.232 1.81097,-4.04297 4.04297,-4.04297 2.232,0 4.04004,1.81097 4.04004,4.04297 -0.167,5.58799 -3.67989,9.89502 -9.73389,9.89502 z m -311.3086,-0.17871 c -1.27337,10e-4 -2.65804,-0.12535 -3.29004,-0.25635 l 10e-4,-10.62158 c -1.645,0.166 -5.70357,-0.60514 -5.80957,1.88086 l -0.0586,8.14892 c -0.002,0.356 -0.28414,0.65697 -0.64013,0.66797 -4.93,0.144 -5.75835,-2.79546 -5.77735,-6.64746 0.01,-7.53199 0.82542,-11.78146 8.56641,-11.79346 0.261,-2.407 2.27595,-4.28613 4.75195,-4.28613 2.499,0 4.52828,1.91405 4.75928,4.35205 l 1.27295,0.006 c 3.66999,0.004 6.50444,-0.10144 6.23144,-9.94043 0.305,-11.00399 -3.27638,-9.83122 -7.56738,-9.94922 h -3.46143 l 3.06885,8.42578 h -10.80469 l -6.40869,-17.58984 h 10.80469 l 0.89209,2.44922 c 5.92199,-0.074 14.58101,-0.1624 15.479,0.6416 4.565,2.425 4.09676,8.61889 4.05176,13.00488 v 6.03662 c 0.045,4.386 0.51324,10.57989 -4.05176,13.00489 -0.59599,0.53299 -4.60917,0.67254 -8.97216,0.68554 0.158,3.389 -0.0331,10.51151 -0.41309,11.27051 -0.1895,0.3795 -1.35163,0.50839 -2.625,0.50977 z m 380.6338,-0.3501 c -5.274,0 -5.05229,-4.64235 -5.07129,-8.77735 0.019,-4.13499 -0.20271,-8.77734 5.07129,-8.77734 h 7.25537 c 5.274,0 5.05229,4.64235 5.07129,8.77734 -0.019,4.135 0.20271,8.77735 -5.07129,8.77735 z m -330.0337,-0.37061 c -3.679,-0.124 -8.34385,-1.72245 -8.31885,-6.60644 v -29.81104 c 0.271,-2.886 2.4469,-5.01357 5.0669,-6.18457 1.31999,-0.589 3.77068,-1.29932 9.09668,-1.29932 5.32599,0 7.67725,0.64178 8.90625,1.19678 3.23799,1.459 5.40966,4.52002 5.40966,8.29102 v 21.8291 h -6.22851 v -20.31592 c 0.024,-4.66099 -3.52008,-6.07628 -6.95508,-6.09228 0,0 -2.19163,-0.0225 -2.22363,-0.0205 -3.143,0.152 -6.65168,1.53273 -7.11768,5.57373 v 26.83301 c 0,2.352 1.16464,4.31705 2.97363,5.47705 z m 661.158707,-0.15234 c -0.196998,-0.003 -0.400058,-0.0113 -0.610839,-0.0249 l -9.912598,-0.001 c -9.94899,-0.372 -5.653005,-15.51175 -6.479004,-20.71875 h -6.0542 V 129.6548 h 14.739258 v 10.15429 h 1.702149 c 11.211989,-0.55699 12.330774,3.87627 12.342774,12.11426 -0.02325,4.00578 0.379408,8.89518 -5.72754,8.80225 z m 64.00049,0 c -0.196998,-0.003 -0.400059,-0.0113 -0.61084,-0.0249 l -9.9125975,-0.001 c -9.94899,-0.372 -5.6540048,-15.51129 -6.47900402,-20.71728 H -5.6997939 V 129.65579 H 14.28214 v -3.38232 c 0.182,-3.917 -3.47987,-3.24577 -6.2138671,-3.50977 H -4.9410048 v -7.89697 H 8.0682729 l 9.9448241,0.009 c 3.903996,0.161 7.261786,3.55899 7.404786,7.45898 v 7.32129 5.21631 5.10938 h -9.607911 c 6.499994,0.971 7.26295,5.16841 7.27295,11.9414 -0.02325,4.00675 0.380873,8.89523 -5.726075,8.80225 z M -114.05575,160.5098 c -0.16543,-0.003 -0.3357,-0.0113 -0.5127,-0.0249 l -8.32324,-0.001 c -8.44599,-0.376 -4.6654,-15.1592 -5.4624,-20.2002 v -3.94629 l -10e-4,-1.30517 h -6.2168 v -3.81738 h 6.21094 l -0.009,-5.15039 c 0.05,-3.408 -3.84868,-2.84678 -6.20068,-3.07178 l -0.001,-7.89844 h 21.89209 c 6.59,0 10.96583,4.21602 10.96583,9.41602 v 6.70459 3.81738 h -17.896 v 4.56006 c 9.41499,-0.556 10.35377,3.87819 10.36377,12.11719 -0.0194,4.00577 0.31912,8.8937 -4.80908,8.80078 z m -126.09669,-0.006 c -0.16542,-0.003 -0.33716,-0.0113 -0.51416,-0.0249 l -8.32324,-0.001 c -8.44499,-0.376 -4.66394,-15.15967 -5.46094,-20.20166 h -7.06054 V 129.1361 h 7.06054 v -13.98926 c 2.109,0.224 17.32866,-0.62753 18.86866,0.75147 5.37499,2.854 4.82353,10.14655 4.76953,15.31055 h -7.12793 v -2.67188 c 0.363,-6.60699 -2.71507,-5.3493 -7.76807,-5.4873 v 16.53808 c 9.41499,-0.557 10.35377,3.87627 10.36377,12.11426 -0.0194,4.00675 0.32059,8.89523 -4.80762,8.80225 z m 36.72803,-0.0381 c 0.444,-11.99499 -3.13309,-21.35598 13.21289,-20.85498 l -0.004,-13.07519 c 0.182,-3.917 -3.47887,-3.24577 -6.21387,-3.50977 v -7.89697 l 28.10449,0.0117 c 4.857,0.243 7.38233,5.39368 7.50733,9.74267 l 0.009,17.70557 h -7.12354 v -7.51172 h -10.94531 v 4.53369 c 6.91199,-0.198 7.82153,5.59458 7.76953,11.16358 v 2.28076 c -0.141,4.22699 -0.0479,7.53425 -5.31885,7.40625 l -8.32324,-0.001 c -3.221,-0.089 -5.45154,-3.26662 -5.45654,-6.30761 l -0.004,-6.64161 c -1.615,-10e-4 -3.8952,-0.17687 -4.9292,1.34912 -1.70699,3.204 -0.94408,8.0855 -1.16308,11.6045 z m -366.97413,-0.001 -0.0161,-7.29346 c -0.649,-5.83199 -7.57394,-7.58801 -12.48194,-8.18701 -1.04299,-12.40699 2.67882,-22.12395 15.79981,-25.06494 l -1.74609,-4.79004 h 11.13867 l 8.48437,23.31592 h -11.13867 l -4.28174,-11.79932 c -5.44899,2.095 -7.66032,6.47413 -8.15332,12.05713 5.948,0.725 11.84073,5.67907 12.21973,11.89306 l 0.0205,9.86866 z m 46.5293,-0.001 v -6.3208 -36.44971 c -0.026,-0.33 -0.0516,-0.65742 -0.0806,-1.00341 -0.166,-1.925 2.88135,-2.15443 2.88135,-0.19043 0,11.09898 7.72811,16.47293 15.7251,18.37793 -0.095,-1.542 -0.12889,-3.0333 -0.0879,-4.4253 0.356,-12.11299 15.07131,-13.65117 20.21631,-10.03418 5.88499,4.138 6.17965,17.73349 2.36865,21.52149 -1.368,1.36 -6.01674,2.63872 -11.94873,2.63672 1.418,4.86899 3.6322,9.67627 6.32519,12.80127 1.041,1.208 0.13455,3.08642 -1.46044,3.08642 h -5.71729 c -0.562,0 -1.10498,-0.24022 -1.45898,-0.67822 -3.453,-4.271 -5.7509,-10.25017 -7.0459,-16.26416 -4.464,-1.023 -9.06322,-2.88211 -13.22022,-5.91211 1.42,5.50599 3.11108,11.02219 4.97608,15.11719 0.396,0.346 0.65185,0.8485 0.65185,1.4165 v 4.43115 c 0,1.043 -0.84665,1.88965 -1.88965,1.88965 z m 207.82325,-10e-4 c -3.217,-0.093 -5.45355,-3.26516 -5.45655,-6.30616 l -0.006,-6.64013 h -9.77783 v -7.90283 h 9.77783 l -0.0161,-10.27295 c 0.049,-3.409 -3.84768,-2.84825 -6.20068,-3.07325 v -7.89697 h 20.72607 l -1.16601,-3.2373 h 11.13867 l 8.03174,22.1499 h -11.14014 l -4.0166,-11.00977 h -6.2168 v 13.34034 c 7.22299,-0.077 11.01929,1.13426 11.82129,9.01025 0.102,3.304 0.68255,7.37148 -1.08545,10.33447 -1.047,1.481 -3.16311,1.43593 -4.78711,1.50293 z m -301.73585,-0.46729 c -14.12989,-0.22434 -33.38379,-7.92605 -33.38379,-27.98584 0,-9.56199 3.91987,-14.93157 5.46387,-16.41357 h 7.71679 c -3.94599,4.10799 -6.17856,9.80884 -6.35156,11.86084 5.53,4.02399 14.65246,6.65478 24.98145,6.65478 h 0.15674 V 115.596 h 10.08105 v 43.41943 c -2.41537,0.68456 -5.40381,1.03175 -8.66455,0.97998 z m -70.89258,-0.65918 c -6.20999,0 -8.95174,-0.75857 -10.38574,-1.41357 -3.774,-1.726 -6.30616,-5.34521 -6.30616,-9.8042 v -20.13135 h 6.85987 v 19.71533 c -0.022,4.198 3.17114,5.47231 6.26514,5.48731 0,0 2.85381,0.02 2.88281,0.019 2.83099,-0.137 5.88029,-1.38102 6.30029,-5.02002 v -26.1665 c 0,-0.049 -0.004,-0.099 -0.0102,-0.14795 -0.292,-2.364 -1.43186,-4.1492 -3.00586,-5.47119 -0.679,-0.57 -0.23808,-1.68604 0.64892,-1.68604 h 3.33399 c 4.72899,0.277 9.45517,3.38221 9.93017,8.51221 v 27.25781 c -0.316,3.412 -2.85271,5.9285 -5.90771,7.3125 -1.538,0.697 -4.39648,1.53662 -10.60547,1.53662 z m 313.73585,-3.67969 h 1.59521 c 1.763,-0.082 2.23828,-1.41157 2.23828,-3.18457 0,-1.77399 -0.47528,-3.10303 -2.23828,-3.18603 h -1.59521 c -1.763,0.083 -2.23828,1.41204 -2.23828,3.18603 0,1.773 0.47528,3.10257 2.23828,3.18457 z m 322.700689,-0.26513 1.21582,-0.0161 c 1.758999,-0.069 2.308887,-0.82356 2.233887,-2.22656 l -0.07764,-3.46142 c -0.129999,-2.563 -4.300803,-1.76599 -6.320801,-1.93799 l 0.0015,5.90918 c 0.16,1.198 1.658267,1.74691 2.947266,1.73291 z m 64.00049,0 1.214355,-0.0161 c 1.758999,-0.069 2.309887,-0.82256 2.233887,-2.22656 l -0.07764,-3.46142 c -0.129999,-2.562 -4.299338,-1.76746 -6.3193357,-1.93946 v 5.90918 c 0.1599999,1.198 1.6597317,1.74838 2.9487307,1.73438 z m -130.516119,-0.21533 1.021,-0.0146 c 1.477,-0.07 1.939,-0.82503 1.875,-2.22803 l -0.0659,-3.45996 c -0.109,-2.563 -3.60967,-1.76845 -5.30566,-1.93945 v 5.90771 c 0.135,1.198 1.39258,1.74838 2.47558,1.73438 z m -126.09668,-0.006 1.01953,-0.0161 c 1.478,-0.069 1.939,-0.82256 1.875,-2.22656 l -0.0644,-3.46143 c -0.109,-2.56199 -3.61113,-1.76745 -5.30713,-1.93945 l 0.001,5.90918 c 0.135,1.198 1.39259,1.74838 2.47559,1.73438 z m -63.0044,-0.009 c 1.018,-0.018 2.6645,0.0128 2.8125,-1.32715 0.018,-5.583 0.94083,-6.49827 -5.32617,-6.32227 l 0.001,5.90918 c 0.134,1.215 1.4262,1.74524 2.5122,1.74024 z m 127.24219,-0.009 h 1.021 c 2.33,0.117 1.87061,-2.62282 1.87061,-4.11182 0,-2.176 -0.176,-3.56574 -2.792,-3.53174 h -2.45068 v 6.39112 c 0.381,0.906 1.44107,1.24344 2.35107,1.25244 z m -441.02344,-2.61621 c 0.80073,-0.0166 1.61275,-0.0753 2.4375,-0.17871 v -12.12891 c -0.592,0.018 -1.18418,0.0337 -1.78418,0.0337 -9.25299,0 -17.54144,-2.09295 -23.16944,-5.39795 1.35844,8.72999 10.50507,17.92073 22.51612,17.67188 z m 238.48389,-12.35596 v -4.95703 h 18.02197 v 4.95703 z m -51.42334,-3.19775 c 2.82899,0 5.4576,-0.49301 7.66259,-1.33301 -0.55399,-3.505 -4.35179,-4.60858 -7.23779,-4.62158 l -3,-0.022 c -2.497,0.111 -5.04427,0.84074 -6.15527,3.53174 2.506,1.367 5.03147,2.44483 8.73047,2.44483 z m -61.86915,-1.3169 c 3.946,-0.242 7.09512,-1.28816 8.16211,-2.76416 1.83,-2.529 -1.15897,-7.87377 -5.91796,-5.48877 -1.855,0.93 -2.50614,4.15294 -2.24415,8.25293 z m 446.727555,-0.79248 v -8.59863 c 0.182,-3.917 -3.480335,-3.2443 -6.215332,-3.5083 H -68.94003 v -7.89698 h 13.007813 l 9.944824,0.007 c 3.903997,0.16 7.263251,3.55999 7.406251,7.45898 v 12.5376 z m -328.051765,-2.97217 c -5.274,0 -5.05229,-4.64234 -5.07129,-8.77734 0.019,-4.135 -0.20271,-8.77734 5.07129,-8.77734 h 7.25537 c 5.274,0 5.05229,4.64234 5.07129,8.77734 -0.019,4.135 0.20271,8.77734 -5.07129,8.77734 z m 258.15821,-0.68554 h 10.76807 v -2.67334 c 0.363,-6.606 -5.71508,-5.34684 -10.76807,-5.48584 z m -59.46241,-1.44873 h 11.40381 v -2.69092 c -0.038,-1.378 -0.3976,-3.13783 -1.8706,-3.67383 -1.578,-0.653 -7.79221,-0.27361 -9.53321,-0.37061 z m -195.86572,-3.45704 h 1.59521 c 1.763,-0.083 2.23828,-1.41203 2.23828,-3.18603 0,-1.773 -0.47528,-3.10257 -2.23828,-3.18457 h -1.59521 c -1.763,0.082 -2.23828,1.41157 -2.23828,3.18457 0,1.774 0.47528,3.10303 2.23828,3.18603 z M -580.53965,98.694854 v -5.220703 c -0.056,-1.276999 0.91091,-2.610352 2.21191,-2.610352 1.407,0 6.12135,-0.01459 6.63135,-0.225586 1.436,-0.522999 1.78673,-2.236544 1.82373,-3.581543 v -2.154785 h -16.18945 v -9.814453 l 20.12695,-14.006837 1.84277,10.13379 -6.21679,3.873047 c 3.93499,10e-4 7.12407,3.192934 7.12207,7.12793 l -0.006,6.978515 c -0.121,4.240996 -2.58283,9.263977 -7.31983,9.500977 z m 59.85205,-1.02539 V 49.92288 h 12.98438 v 37.151368 c -0.009,1.743999 1.71939,2.273297 3.00439,2.279297 l 0.86133,0.0088 c 1.177,-0.053 2.83086,-0.566939 3.00586,-2.085937 v -4.416504 c 0,-9.039991 6.42603,-14.28418 14.77002,-14.53418 h 0.44531 c 1.048,0 1.90499,0.830931 1.93799,1.87793 l 0.082,2.638183 c 0.028,0.929999 -0.6233,1.716735 -1.5293,1.927735 -3.15399,0.735999 -6.11035,2.671945 -6.08935,6.689941 v 12.89502 c 0,1.831998 -1.48588,3.314942 -3.31787,3.314942 z m -112.91895,-0.776368 c -0.758,0 -1.37256,-0.613559 -1.37256,-1.372558 v -8.080079 c 0,-0.757999 0.61456,-1.372558 1.37256,-1.372558 h 3.271 l 1.11328,-6.172852 -1.08545,0.0015 c -4.81999,0.01 -12.01958,-0.426602 -13.78857,-15.975586 -2.178,-19.158981 21.78227,-11.853516 26.67627,-11.853516 0.758,0 1.37255,0.614559 1.37255,1.372558 v 8.080079 c 0,0.758999 -0.61455,1.372558 -1.37255,1.372558 h -5.68506 l -1.11475,6.174317 h 2.9751 c 0.759,0 1.37256,0.616024 1.37256,1.374023 v 8.080079 c 0,0.758999 -0.61356,1.372558 -1.37256,1.372558 h -4.92774 l -1.11328,6.174317 h 2.21485 c 0.759,0 1.37402,0.614559 1.37402,1.372558 v 8.080079 c 0,0.758999 -0.61502,1.372558 -1.37402,1.372558 z M -714.671,96.465362 v -6.477539 h 19.88232 l 0.0337,-6.476075 H -714.671 v -7.901367 h 7.38281 c -0.015,-3.232997 -0.13679,-8.513253 1.11621,-11.53125 2.382,-6.279994 8.1566,-11.103432 14.68359,-12.56543 l -0.12744,-0.383789 h 11.14014 l 6.86426,18.909668 h -11.13867 l -4.27442,-11.786133 c -4.23299,1.610998 -7.50464,5.613032 -8.16064,10.103028 5.91799,0.724999 11.85172,5.699072 12.21972,11.893066 l 0.0205,16.215821 z m -55.63184,-0.0015 -6.60645,-18.133301 h 11.14014 l 6.60498,18.133301 z m 18.86719,-0.0044 c -2.557,-0.071 -4.66296,-2.20912 -5.23096,-4.620118 -0.43,-2.029998 -0.0444,-4.37131 -0.83643,-6.341308 -1.33999,-3.537997 -5.21649,-4.962243 -4.95849,-9.344239 l -0.007,-13.618653 c 0.182,-3.915996 -3.48133,-3.245766 -6.21533,-3.509765 v -7.895508 l 9.94483,0.0073 c 3.90399,0.16 7.26325,3.558988 7.40625,7.458984 l 0.007,17.014161 c 2.697,0.088 5.86321,-0.04617 8.24121,1.423828 4.23,3.002997 3.73339,9.232243 3.65039,13.844239 -0.323,4.200996 -1.65934,5.68359 -5.94433,5.57959 z m 3.22119,-5.307129 c 1.42257,-0.03644 2.38625,-0.396143 2.26025,-2.244141 v -1.869141 c -0.062,-0.903999 0.0893,-2.386579 -0.7207,-3.017578 -1.127,-0.716999 -3.37288,-0.418695 -4.65088,-0.512695 v 5.875488 c 0.104,1.214999 1.38759,1.782602 2.47559,1.766602 0.22012,0.0046 0.43251,0.0067 0.63574,0.0015 z m 189.23877,-9.94629 v -8.264648 c 0.974,-9.444991 -4.85763,-17.882366 -10.09863,-19.422364 l 1.8457,-4.620117 c 1.588,0.091 7.75486,1.031404 10.67286,3.587402 6.31999,5.480994 9.75747,15.064741 10.33447,28.719727 z m -70.99072,-12.120117 c 0.061,-0.008 0.12057,-0.01904 0.18457,-0.01904 h 1.18213 1.33154 l 1.12354,-6.225586 -0.42627,-0.0073 c -4.416,0.023 -9.47321,0.546012 -8.40821,3.958008 0.646,2.069998 3.6847,2.295946 5.0127,2.293946 z M -74.106534,37.358915 V 32.20413 h 15.098145 V 23.858915 H -74.106534 V 4.9214143 c 0.44,-4.43699552 1.787971,-8.2495034 4.042969,-11.4375002 5.608994,-7.4999921 15.482691,-11.2500001 29.617676,-11.2500001 v 4.78125 c -6.713993,0 -11.302734,1.313965 -11.302734,1.313965 -7.535993,2.4999973 -11.302735,7.7177933 -11.302735,15.6547853 V 15.329129 h 18.480469 V 3.7041292 h 10.394532 V 23.67288 h -14.932618 v 8.342285 h 14.603028 v 5.34375 z M -9.2403213,31.40579 c 0,-15.186985 3.0802407,-25.6562565 9.240234581248,-31.40625078126 C 2.5849107,-2.4384583 5.6381202,-3.8442113 9.1581166,-4.2192109 L 6.2694447,-11.812961 H 17.903234 L 26.977941,11.62454 H 15.427648 L 11.384679,1.7807893 C 5.0596855,3.7807873 1.8983508,9.6875495 1.8983508,19.49954 c 0,0 0.1195901,3.220001 0.3295899,4.125 H 28.95841 v 7.59375 z M -127.48398,22.427762 V 12.314481 h 18.64454 v 10.113281 z m 0,-15.2578124 V -2.9447968 h 18.64454 V 7.1699496 Z"
    transform="matrix(1.3333333,0,0,-1.3333333,1053.5216,994.39587)" />
</svg>
