<?xml version="1.0" encoding="utf-8"?>
<!-- Generator: Adobe Illustrator 22.1.0, SVG Export Plug-In . SVG Version: 6.00 Build 0)  -->
<svg version="1.1" id="Layer_1" xmlns="http://www.w3.org/2000/svg" xmlns:xlink="http://www.w3.org/1999/xlink" x="0px" y="0px"
	 viewBox="0 0 512 512" enable-background="new 0 0 512 512" xml:space="preserve">
<path d="M23.1,455.60001h17.7c9.3,1.89999,14,6.20001,14,12.79999v23.20001c0,6.70001-4.7,11-14,12.70001H23.1
	c-9.3-1.70001-14-6-14-12.70001v-23.20001C9.2,461.79999,13.8,457.5,23.1,455.60001 M44.2,401.10001L44.2,401.10001L19.7,401
	v7.40002c0,11.89999,4,19.70001,12.1,23.5c3.2,1.60001,7.2,2.30002,12,2.20001v5c-14.4,0-24.5-4.70001-30.2-14.10001
	c-2.5-3.89999-3.9-8.60001-4.3-14.10001v-18.20001h45.3v20H44.2V401.10001 M73.6,421.89999V416l29.1-26.5h15.9v53.10001H73.4v-5
	h29.7v-15.70001H73.6 M166,388.60001h0.10001V393.5c0,1.10001,0.10001,1.89999,1.5,2.5h15v8.60004h-29
	c0.5,3.39999,2.2,6.60001,5.2,9.5c5.09999,5.19998,13,8.69998,23.7,10.39999v5.20001
	c-8.10001-0.69998-13.60001-1.69998-16.5-2.89999v11.60001h16.5v5h-45.10001v-5H154v-14.20001l-16.39999,7.29999v-9.39999l10.5-5
	c-4.7-3.90002-7.89999-8.60001-9.5-14.20001c-0.7-2.19998-1.09999-4.5-1.2-6.89999H152.3c1.2,0,1.8-0.80002,1.7-2.70001v-4.70001
	H166 M219.39999,414.89999L235.19997,408v10.30002l-10.89999,4.79999c5.40001,6.60001,12.90001,10.19998,22.3,10.89999v5.29996
	c-13.39999-0.09998-24.2-4.09998-32.5-11.79999l-12.7,5.70001v-10.29999l6.7-3c-4.29999-7.30002-6.5-16.30002-6.39999-27.10001
	h43.10001V401.5h-29C216.2,406.19998,217.39999,410.69998,219.39999,414.89999 M276,403.10001v-11.29999h13.29999v11.29999h21.29999
	v8.70001h-21.29999C289,416.80002,290,434.5,308,435.60001v4.5c-17.20001,1.40002-30.79999-8.39999-32-28.29999h-10.39999v-8.70001
	H276 M343.10001,391.70001h17.70001c9.29999,1.89999,14,6.20001,14,12.79999v7.79999c0,4.5-2.29999,7.79999-6.79999,9.89999
	c-2.60001,1.10001-4.89999,1.70001-6.89999,1.70001h-5h-6.70001c-1.39999,0-2.79999-1.10001-4.39999-3.20001
	c-0.39999,5.60001,1.70001,9.5,6.20001,11.89999c2.89999,1.60001,6.79999,2.39999,11.70001,2.39999l2.20001-0.10001l2-0.10001
	v5.39999h-13.89999c-8.60001,0-15.10001-2.89999-19.79999-8.79999c-1.89999-2.5-3.20001-5.39999-4.10001-8.70001v-18.29999
	C329.20001,397.89999,333.89999,393.60001,343.10001,391.70001 M407.20001,391.5h17.60001c9.29999,1.89999,14,6.20001,14,12.79999
	c0,4.60001-2.20001,7.79999-6.70001,9.79999c-2.39999,1.10001-4.70001,1.70001-6.89999,1.79999l3.39999,0.60001l3.60001,1.20001
	c4.5,2,6.70001,5.29999,6.70001,9.79999c0,6.60001-4.70001,10.89999-14,12.79999h-17.60001
	c-9.39999-1.89999-14.10001-6.20001-14.10001-12.79999c0-4.5,2.29999-7.79999,6.79999-9.79999
	c2.39999-1.10001,4.70001-1.70001,6.89999-1.79999c-2.20001-0.10001-4.5-0.70001-6.89999-1.79999
	c-4.60001-2.10001-6.79999-5.29999-6.79999-9.79999C393.20001,397.79999,397.89999,393.5,407.20001,391.5 M458.29999,439.29999
	v-8.19998h21c4.79999,0,8.79999-4.89999,8.79999-9.60001v-9.60001h-29.79999v-8.70001H488.5v-10.39999h13.29999v29
	c0,12.29999-7.19998,17.5-16.39999,17.5H458.29999 M32,368.20001c4.3,3.29999,11.1,3.69998,14,3.09998v4.89999
	c0,0-1.8,0.20001-4.2,0.20001c-11.6,0-18.6-3.20001-23-9.70001c-2.9-4.20001-4.4-8.89999-4.4-15.5
	c0-2.10001,0.2-3.60001,0.2-3.60001H9.4v-8.79999h5.2v-11.10001h12.1v11.10001H36V328h11.8v10.80002h6.8v8.79999h-7v10.10001H35.5
	v-10.10001H26c0,0-0.2,1.20001-0.2,4C25.8,359.20001,27.7,364.80002,32,368.20001 M118.4,338.79999
	c-0.00002,0-0.00002-0.20001-0.00001-0.20001H94.6c0.5,13.29999,4.6,22.39999,12.4,27.39999c3.2,2.10001,7,3.30002,11.5,3.60001
	v4.70001c-11.5,0-20.60001-3.39999-27.3-10.29999l-6.7,10.39999H73.6v-2.29999L84.2,353.5c-2.2-2.60001-4.6-17-4.6-24.10001h38.8
	V338.79999 M137.3,327.70001H182.7v5.39999l-30.3,37.79999h30.3v5.39999H137.3v-5.39999l30.3-37.79999h-30.3V327.70001
	 M219.8,378.79999V336.5h-7.5V331l15.3-5.70001H235.5v53.5H219.8 M310.5,349.29999H288c-2,0-3.79999,0.5-5.29999,1.60001
	S280.5,353.19998,280.5,354.69998v10.89999c0,1.5,0.70001,2.79999,2.20001,3.79999c1.5,1.10001,3.20001,1.60001,5.29999,1.60001h7.5
	c4.60001,0,7.10001-1.79999,7.5-5.39999h7.5c-1.10001,7.20001-6.10001,10.79999-15,10.79999h-15
	c-4.10001,0-7.60001-1.10001-10.5-3.20001c-3-2.10001-4.39999-4.70001-4.39999-7.60001v-10.89999c0-3,1.5-5.5,4.39999-7.60001
	s6.5-3.20001,10.60001-3.20001h15V333h-30v-5.39999h45v21.70001H310.5V349.29999 M359.5,333H352c-2,0-3.79999,0.5-5.29999,1.60001
	S344.5,336.89999,344.5,338.39999v2.70001c0,3.79999,4.79999,8.60001,14.5,14.60001l1,0.60001
	c7.89999,4.89999,14.5,11.89999,14.5,14.60001v5.39999h-45V371h30v-0.5c0-3.39999-4.79999-8.10001-14.5-14.10001l-1-0.60001
	c-9.70001-6-14.20001-10.79999-14.20001-14.60001v-1c0-3.39999,1.5-6.39999,4.39999-8.79999
	c2.89999-2.5,6.10001-3.70001,10.20001-3.70001h15c8.79999,0,13.79999,3.60001,15,10.79999H367
	C366.60001,334.79999,364.10001,333,359.5,333 M438.80002,327.70001v48.60001h-45.60001v-48.60001H438.80002z M495,328.70001
	c0,8.89999,4.20001,16.29999,7.40002,18.49997v5.5c-6.10001,0-13.5-7.10001-17.10001-15.60001h-14.5
	c0,14.89999,0.39999,14.70001,3.39999,14l15.60001-3.70001v7.20001l-12.20001,4.20001c-1,0.30002-1.10001,2.5-0.20001,3.70001
	c2.5,3.39999,9.5,8.29999,22,7.5v4.90002c-21.60001,2.19998-42.19998-6.39999-41.89999-33.60001v-12.60001H495 M28,199h8v50h-8V199
	 M113.1,220.39999V227.5H99.5v13.60001h-7.1V227.5H78.8v-7.10001h13.7V206.8h7.1v13.59999H113.1z M175.7,213.10001l2.40001,5.39999
	L167,223.7L178.2,228.8L175.8,234.2l-12-5.5V239.3h-8v-10.40001l-11.60001,5.5L141.7,229l11.2-5.2L141.7,218.7l2.3-5.5l11.8,5.40001
	V208.7h8v10L175.7,213.10001 M241,201.5v8.89999h-31.39999v27.3h37.2v8.90001H201.2V201.5H241 M311.20001,198.60001v6.3h-24v-6.3
	H311.20001z M311.20001,213.3v6.3h-24v-6.3H311.20001z M263.70001,213.39999l0.10001-2.5h5.60001
	c-0.79999,21.10001,21.60001,27,43,26.39999v11.8C279.60001,252.5,263.60001,235.89999,263.70001,213.39999 M330.29999,202.39999
	l43.39999,0.2V210.2h-30.39999C343,211.10001,342.89999,214.3,342.89999,214.3c0,9.8,3.59998,15.7,10.79999,17.7l4.60001-9.8
	h13.10001l-10.29999,23.39999h-13.20001l3.29999-7.60001c-4-0.39999-7.5-1.8-10.39999-4.2
	C333.79999,228,330.29999,217.59999,330.29999,202.39999 M425.29999,237.3L413.20001,202h13L441,246.10001h-18.70001
	l-18.59998-3.70001l-1.20001,3.5H391v-3.2l9.89999-25.8h12.5l-6.39999,17L425.29999,237.3 M480.70001,223.39999
	C484.5,233.8,491.60001,241.3,502.70001,241v5.2c-14.10001-0.5-26.20001-6.90001-33.10001-18.3l-12.20001,4.89999v-10l8.39999-3.2
	c-1.69998-5.2-2.5-11.2-2.29999-17.8h13.70001c0,4.3,0.40002,8.8,1.20001,13l18.5-7v9L480.70001,223.39999 M54.4,172.2v9.5H9.7v-9.5
	h44.6H54.4z M12.2,147.7V138.3h40.5V147.7H12.2 M81.7,136.29999h10.9l-6.9,47.39999L74.8,183.7L81.7,136.29999z M109.5,136.3
	c0,7.39999,0.4,14.2,1.1,19.7c1.3,10.39999,3.5,17,6.6,19.89999L113.5,181.5c-7-3.39999-15.9-20-15.9-45.2H109.5 M137.10001,135.8
	h12.60001c-0.39999,9.10001,0,43.90001,28.2,42.7v5.5c-18,1.10001-41.40001-7.2-41.2-40.60001L137.10001,135.8 M163.8,159.8
	l5.60001-24h13.8l-6.10001,24H163.8 M216.5,154.89999h14.89999v10.2H216.5V154.89999 M266.79999,156.10001h42.39999v7.8h-42.39999
	V156.10001 M370.10001,144.60001L347.70001,160l22.39999,15.5H357l-23-15.39999l23-15.5H370.10001 M398,175.39999l22.39999-15.29999
	L398,144.60001h13.10001l23,15.5l-23,15.29999H398 M471.10001,135.60001h17.70001c9.29999,1.89999,14,6.2,14,12.8v23.2
	c0,6.7-4.70001,11-14,12.7h-17.70001c-9.29999-1.7-14-6-14-12.7v-23.2C457.20001,141.8,461.79999,137.5,471.10001,135.60001
	 M27.5,107.3H17.1l3.4-22.7h10.3L27.5,107.3z M43.5,107.3H33.1l3.5-22.7h10.3L43.5,107.3 M85.4,82.4h21.2v10.8H85.4V82.4z
	 M106.60001,98.8v10.9H85.4V98.8H106.60001 M182.5,115.4l-45.10001,3.9v-9.1l45.10001-4.7V115.4z M182.5,82.5l-45.10001,4v-9.1
	L182.5,72.6V82.5z M179.10001,98.6l-37.89999,3.7v-8.5l37.89999-4.4V98.6 M233,118.1c-11.10001,0-19.7-3.2-25.8-9.7
	c-2.5-2.6-4.3-5.8-5.5-9.7V86.9h44.59999v8.2h-32c0.60001,7.3,4.2,12.5,10.8,15.6c4.2,2,13.60001,2.9,18.5,2.9v4.5H233z M243.8,73.9
	V81h-40.2v-7.1H243.8 M266.60001,71.8h12.60001c-0.89999,14,2.70001,44.3,28.20001,42.7v5.5C272,121,264.5,95.9,266.60001,71.8z
	 M309.5,95.8h-13.29999L296,71.8h13.79999L309.5,95.8 M377.5,99.89999h-20.70001v-7.7H377.5V99.89999z M326.5,99.8v-7.7h20.70001
	v7.7H326.5 M405,72.9v15.7c0,11.9,5.10001,19.7,15.39999,23.5c4.10001,1.6,9.20001,2.4,15.29999,2.2v5
	c-17.70001,0-30-4.7-36.89999-14.1c-3-3.9-4.70001-8.7-5.20001-14.1L393.5,72.9H405z M413,72.7h10.5l-2.89999,22.6h-10.39999
	L413,72.7 M435.60001,95.3h-10.39999l2.89999-22.6H438.5L435.60001,95.3 M466.70001,95.2H457.5v-8.1h45.10001v8.1h-19.39999
	c-1.29999,13.8,6.70001,19.4,16.39999,19.2v4.6c-19.79999,1.8-27.20001-10.9-28.60001-15.7
	C468.79999,95.6,468.60001,95.2,466.70001,95.2z M502.10001,73v7.9h-44.5V73H502.10001 M27.5,5.2h12v7H56v8.2H39.5v33.4h16.3v5H8v-5
	l6.4-27.7H24V29l-5.4,24.8h9V20.4H11v-8.2h16.5V5.2 M51.7,51.6c-6.2-5.1-9.4-13.6-9.4-25.7L52,26c-0.1,11.5,1.2,18.3,3.8,20.5
	l0.1,5.1H51.7z M94,41.7c0,0-5.3,0-5.3,0c-12.6,0-15.1-13.3-15.1-16.3v-16h44.8V18H85.6c-0.5,11.7,0.5,18.5,7.4,18.3V24.2h13.2v12.5
	c0,7.5,4.10001,12,12.3,13.5v4.3C107.9,54.5,99.7,50.3,94,41.7 M137.3,51h30.2l-22.8-11v-5.8H160c2.2,0,3.89999-0.6,5-1.8
	s1.7-2.2,1.7-3v-11c0-1.3-0.3-2.6-1.60001-3.6c-1.3-0.9-3.3-1.2-5.10001-1.2h-6.39999c-6.2,0-7.3,3.3-8.60001,4.8h-7.60001
	c1.2-7.2,6.2-10.8,15.10001-10.8h15.10001C171.7,7.6,175.2,8.7,178.2,10.8s4.5,4.7,4.5,7.6v10.9c0,2.5-1.39999,4.9-4.3,7.3
	s-6.5,3.6-10.8,3.6H160L182.60001,51v5.4h-45.39999L137.3,51L137.3,51 M201.3,4.5h45v5.3H229.7v8.3h17v20h-11.8V26.5h-21v11.3
	c0,7.9,4.2,13.1,12.8,15.6c0,0,5.2,1.3,12.8,1.3v4.8c-15.99998,0-27.2-3.7-33.59999-11.2C203.3,45.1,201.8,41.3,201.3,36.9V18
	h17.10001V9.7H201.3V4.5 M329.60001,4.5h44.99997v4.8h-5.39999v8.2h5.39999v9.4h-5.39999v21.5c0,6.6-2.79999,11.1-8.5,11.1
	h-31.39999v-8.9H352c4.10001,0,6.10001-2.9,6-8.7v-15h-15.79999c0,0-0.20001,1.1-0.20001,2.5
	c-0.09998,6.4,2.60001,10.6,7.70001,11.6v3.7c-13.89999,1.2-20.10001-6.7-20.10001-18.5v-8.7H358V9.3h-28.39999V4.5 M487.70001,51.1
	h-15.5V40h15.5V51.1z M487.70001,24h-15.5V12.9h15.5v11V24 M419.89999,26.7H412V7.9h7.89999V26.7z M419.89999,56.2H412V34.6h7.89999
	V56.2z M492.49997,265.5v9.10001c0.70001,5.39999,5.29999,13.60001,10,14.39999v4.39999c-6.20001,1.5-13.20001-3.5-18.5-10.70001
	h-5.5c-0.89999,12.5,1.39999,31.10001,20,27.60001V315c-4.19998,0.5-36.5,5.10001-32.79999-32.29999h-8.29999V274h23.20001v-8.5
	H457.5v-5h45.10001v5H492.49997z M31.9,271.29999L31.9,271.29999l-22.2,0.09998v-6.60001h43.90001v6.39999h-8.4v8.70001h9.2v8.20001
	h-9.2v11.10001c0,5.10001-2.7,12.10001-8.4,12.10001H9.7v-8.39999h19c2.2,0,4.6-2.80002,4.6-5.10001v-8.5
	c-0.1-1.20001-0.7-1.60001-1.4-1.60001H9.7v-8.10001h22.2c1.1-0.19998,1.4-0.79999,1.4-1.79999v-5.10001
	C33.3,271.79999,32.5,271.29999,31.9,271.29999 M116.3,275.10001H102v24.69998h16.7v8.90002H73.3v-8.90002H90v-24.69998H75.5
	v-7.80002h40.8V275.10001 M158.5,298.20001c-14.7,0.5-23-12.40002-23.09999-30.90002h29.60001l0.39999-3.79999H177.8l-0.5,3.79999
	h7.10001v8.60001H176.3l-3.8,31.70001h11.89999v5H140v-5h20.7l3.3-31.70001h-14.89999c0,8,3.2,14,9.39999,18.20001V298.20001
	 M219.7,270.89999l0.8-7.19998h12.60001L232.2,270.89999h14.40001V279h-15.5l-1.70001,12.60001H246.5v8.10001h-18.10001
	L226.8,312.29999H214.2L215.8,299.70001h-14.5v-8.10001h15.59999L218.60001,279h-17.20001v-8.10001H219.7 M265.29999,260.5h0.00006
	v-0.20001h45.39999V265.5h-25v8.39999h23.39999v8.29999h-18.60001c0.20001,5,1.20001,9.70001,3.10001,14.10001
	c3.39999,7.60001,8.79999,12.29999,16.39999,14v4.5c-3.20001,0.10001-6.30002-0.39999-9.20001-1.29999
	c-7-2.39999-12.40002-7.19998-16.20001-14.29999l-1.39999,16.10001h-11.5v-14.20001c0.79999-2.20001,1.39999-8.5,1.79999-18.70001
	h-8.20001v-8.29999H273.5v-8.39999h-8.20001V260.5 M438.5,275.20001c-3.79999,4.5-7.5,10-10.79999,16.5l-2.10001,4.10001
	l-1.89999,4.10001v12.39999h-15.60001v-12.60001c0-3,5-11.10001,15-24.5v-5.89999h-29.70001v-5.60001H438.5V275.20001
	 M364.69998,279.09998c-0.80002,16.30002,3.09998,28.30002,9.79999,28.70001v4.60001h-2.79999
	c-7.69998-1.69998-19.79999-9.09998-19.79999-33.29999h-8.79999c-1.19998,0-2.39999,1.29999-2.39999,2.89999v19.90002
	c0,1.70001,1,2.60001,2.39999,2.60001h6.79999v7.89999h-11.60001C333.5,312.40002,329.5,309,329.5,303.20001v-32h22.39999v-7.5
	h12.70001v7.5h7.79999v7.89999L364.69998,279.09998z M401.60001,335v14.29999h28.79999V335H401.60001z M430.39999,369v-14.29999
	h-28.79999V369H430.39999 M478.79999,179l1,0.2H480c4.79999-0.39999,7.20001-3.2,7.20001-8.2v-17.89999l-12.89999,23.2
	c0.79999,1.10001,2,1.89999,3.60001,2.39999L478.79999,179 M480.20001,141.60001H479.5
	c-4.60001,0.10001-6.89999,2.60001-6.89999,7.5v17.7L485,143.2C483.79999,142.10001,482.20001,141.5,480.20001,141.60001 M81.2,416
	h21.6v-19.79999L81.2,416 M352.20001,397.5H351.5c-4.70001,0.10001-7,2.60001-7,7.70001l0.10001,5.5
	c0,3.29999,1.20001,5.70001,3.60001,7.10001c1.10001,0.70001,2.20001,1.10001,3.60001,1.10001h0.29999
	c4.89999-0.5,7.20001-3.20001,7.10001-8.20001v-5.5c0-3.39999-1.20001-5.60001-3.5-6.70001L352.20001,397.5 M416.20001,419H415.5
	c-4.60001,0.10001-6.89999,2.70001-6.89999,7.60001c0,5.10001,2.39999,7.79999,7.20001,8.20001h0.20001
	c4.79999-0.39999,7.20001-3.20001,7.20001-8.20001C423.29999,421.60001,420.89999,419.10001,416.20001,419 M416.20001,397.39999
	H415.5c-4.60001,0.10001-6.89999,2.70001-6.89999,7.60001s2.39999,7.70001,7.20001,8.20001h0.20001
	c4.79999-0.60001,7.20001-3.29999,7.20001-8.20001C423.29999,400,420.89999,397.5,416.20001,397.39999 M30.8,499l1,0.20001H32
	C36.8,498.80002,39.2,496,39.2,491v-17.89999l-12.9,23.20001c0.8,1.10001,2,1.89999,3.6,2.39999L30.8,499 M32.2,461.60001h-0.7
	c-4.6,0.10001-6.9,2.60001-6.9,7.5v17.70001L37,463.20001C35.8,462.10001,34.2,461.5,32.2,461.60001z"/>
</svg>
